<svg width="1599" height="97" viewBox="0 0 1599 97" fill="none" xmlns="http://www.w3.org/2000/svg">
<path d="M0 0V4.89519C3.38744 7.34278 6.2103 9.79037 7.90402 11.8883C19.1955 25.1752 20.3246 34.9656 18.0663 49.6512C16.3726 61.1898 4.51658 82.5189 18.0663 92.6589C27.6641 99.652 38.9555 97.5541 44.0367 89.512C51.9407 76.2251 40.0847 60.8402 40.6493 47.5532C41.2138 34.616 58.7156 28.3222 79.6048 30.4201C102.188 32.518 106.704 44.4063 107.269 56.2947C107.833 62.5885 101.059 80.7706 107.269 86.0154C110.656 88.8127 116.302 90.2113 120.819 87.7637C128.723 83.9175 121.383 68.8823 121.383 63.6374C121.948 50.7002 123.077 33.567 144.531 26.9235C172.759 18.1821 179.534 32.518 175.018 46.5043C172.759 52.4484 169.372 78.6727 191.39 68.5326C199.859 64.6864 195.342 56.2947 194.213 51.3995C191.955 43.0077 191.955 36.3643 199.859 28.6718C204.94 23.7766 213.409 17.8325 223.571 18.1821C237.121 18.5318 238.814 25.8746 246.154 31.1194C254.622 37.4132 256.316 38.8118 263.091 31.4691C269.301 24.8256 269.866 21.6787 283.416 19.9304C290.755 18.8814 310.515 15.0352 316.725 18.1821C325.194 22.0283 320.113 27.9725 318.984 33.2173C317.855 37.0636 315.596 47.2036 329.146 45.1057C338.744 43.707 327.452 30.7698 332.534 25.5249C339.873 17.8325 365.279 20.6297 372.054 27.2732C379.393 34.616 374.876 47.5532 372.618 55.5953C370.36 63.6374 365.843 73.0782 369.231 81.4699C376.57 99.3024 394.072 84.6168 393.507 73.0782C392.943 57.6933 382.216 42.3084 390.685 27.6228C395.766 19.2311 416.655 4.54553 434.157 11.8883C449.4 18.1821 436.98 39.1615 435.286 47.9029C434.157 53.8471 430.769 63.9871 436.415 69.5816C441.496 74.4768 447.706 74.8264 451.094 68.5326C453.917 63.2878 446.013 52.7981 445.448 47.2036C444.319 41.2594 443.19 34.2663 446.577 28.3222C456.74 8.74141 466.337 36.7139 482.145 30.4201C490.049 27.2732 506.422 -2.44759 516.584 19.5807C519.972 27.2732 509.245 46.8539 520.536 50.7002C544.248 58.7422 529.005 25.8746 532.957 22.7277C550.459 8.74141 559.492 36.0146 567.396 37.0636C584.898 39.5112 583.204 9.44072 613.126 21.329C622.724 25.1752 629.499 32.8677 631.193 39.5112C633.451 47.2036 625.547 55.2457 627.805 62.5885C633.451 77.6237 652.646 67.8333 652.646 56.6443C652.646 47.2036 635.709 27.6228 660.55 24.8256C685.392 21.6787 701.764 37.0636 704.587 48.9519C706.281 55.945 696.119 87.0644 711.927 88.463C735.074 90.561 693.86 33.567 739.026 33.2173C765.561 32.8677 754.834 47.5532 761.044 56.2947C766.69 64.6864 772.901 59.7912 774.03 53.4974C775.723 46.8539 768.948 42.3084 781.369 38.4622C814.679 28.3222 814.679 57.3436 812.421 68.183C810.727 75.1761 802.823 97.5541 823.712 96.5051C862.668 94.7568 807.904 37.4132 850.812 31.1194C877.346 26.9235 885.251 43.707 886.38 55.945C886.944 61.8892 879.605 84.2672 889.767 87.7637C909.527 94.7568 900.494 63.2878 901.059 58.3926C902.188 44.4063 907.833 24.8256 937.191 24.1263C963.726 23.427 955.258 40.2105 952.435 50.3505C950.176 58.0429 959.774 80.4209 973.888 65.7354C980.099 59.0919 972.195 51.3995 972.195 44.756C972.195 38.8118 974.453 33.567 979.534 28.6718C985.18 23.0773 995.907 16.4338 1008.33 18.5318C1022.44 20.6297 1021.31 32.8677 1031.47 35.6649C1042.2 38.4622 1040.51 32.518 1044.46 28.3222C1051.23 20.9794 1056.32 20.9794 1069.3 19.9304C1077.21 19.2311 1089.63 14.6856 1096.97 18.1821C1109.95 24.1263 1093.01 33.567 1097.53 40.9098C1100.92 46.1546 1109.39 46.8539 1113.34 41.9587C1117.29 37.0636 1107.13 30.0704 1111.64 25.1752C1119.55 16.4338 1146.65 20.9794 1152.29 28.6718C1165.28 45.4553 1133.66 70.6306 1151.16 85.6658C1168.1 100.002 1173.18 75.8754 1172.62 68.8823C1170.36 53.8471 1160.76 37.7629 1172.62 23.0773C1179.96 14.3359 1205.93 3.14691 1217.22 14.6856C1228.51 25.8746 1209.88 48.9519 1212.7 61.5395C1215.53 76.9244 1232.46 73.0782 1227.95 58.7422C1225.69 52.0988 1214.4 23.7766 1231.33 19.9304C1252.22 15.0352 1247.14 45.1057 1268.03 21.329C1280.45 6.99312 1295.7 10.4897 1297.39 25.5249C1297.95 30.7698 1294 36.3643 1295.13 41.6091C1296.26 48.2526 1305.29 54.5464 1313.76 46.1546C1319.41 40.5601 1299.08 9.79038 1330.13 20.6297C1344.81 25.8746 1339.17 43.3574 1357.23 30.0704C1364.57 24.8256 1366.83 17.4828 1379.82 17.1332C1392.24 16.7835 1402.4 25.1752 1406.92 31.4691C1414.26 41.6091 1398.45 60.8402 1412 67.4837C1435.71 79.0223 1428.93 48.2526 1427.24 43.3574C1423.85 29.7208 1432.89 18.1821 1458.29 25.8746C1481.44 33.2173 1482.57 52.7981 1481.44 66.4347C1481.44 69.2319 1478.05 99.652 1495.55 84.6168C1502.33 78.6727 1494.99 57.6933 1496.12 51.0498C1497.81 40.9098 1502.89 31.8187 1520.4 29.3711C1545.8 25.8746 1563.87 34.616 1562.17 49.6512C1561.04 61.8892 1552.01 76.5747 1559.35 88.463C1565 97.9037 1579.68 98.2534 1587.58 89.1623C1596.61 78.323 1587.58 60.1409 1585.32 48.6022C1583.06 33.9167 1584.19 24.1263 1595.48 10.8393C1595.48 10.8393 1594.92 11.189 1594.92 11.5387C1593.79 12.9373 1593.23 13.9862 1592.66 14.3359V14.6856C1592.1 15.3849 1592.1 15.3849 1592.66 14.6856V14.3359L1594.92 11.5387C1594.92 11.189 1595.48 11.189 1595.48 10.8393C1596.61 9.44072 1598.31 8.04209 1600 6.64347V0H0Z" fill="#282B8B"/>
</svg>
