<?xml version="1.0" encoding="UTF-8"?>
<svg version="1.1" xmlns="http://www.w3.org/2000/svg" width="115" height="115">
<path d="M0 0 C2.5625 0.1875 2.5625 0.1875 4.5625 2.1875 C4.83241906 4.87589385 4.64987357 7.47891936 4.5625 10.1875 C5.16835938 10.26226562 5.77421875 10.33703125 6.3984375 10.4140625 C16.5251744 12.00318121 25.24921277 17.02210044 31.5625 25.1875 C35.08529198 30.91203696 37.22527897 36.6229604 38.5625 43.1875 C39.51962891 43.38666016 39.51962891 43.38666016 40.49609375 43.58984375 C41.32238281 43.76644531 42.14867188 43.94304688 43 44.125 C43.82371094 44.29902344 44.64742188 44.47304688 45.49609375 44.65234375 C47.5625 45.1875 47.5625 45.1875 48.5625 46.1875 C48.6875 48.6875 48.6875 48.6875 48.5625 51.1875 C47.5625 52.1875 47.5625 52.1875 45.49609375 52.28515625 C44.67238281 52.27355469 43.84867187 52.26195312 43 52.25 C42.17371094 52.24097656 41.34742187 52.23195312 40.49609375 52.22265625 C39.85800781 52.21105469 39.21992187 52.19945312 38.5625 52.1875 C38.45035156 53.07888672 38.45035156 53.07888672 38.3359375 53.98828125 C36.65798841 64.56594073 32.16446012 72.72929899 23.85546875 79.53515625 C18.10251578 83.68081061 12.45961642 85.70954648 5.5625 87.1875 C4.9025 90.1575 4.2425 93.1275 3.5625 96.1875 C1.1875 96.8125 1.1875 96.8125 -1.4375 97.1875 C-4.44367269 94.18132731 -4.03335316 91.36368402 -4.4375 87.1875 C-5.283125 86.96835938 -6.12875 86.74921875 -7 86.5234375 C-18.70985376 83.25000111 -27.51216402 77.70982377 -33.7265625 66.95703125 C-36.07591835 62.04704654 -37.04373875 57.60171718 -37.4375 52.1875 C-38.14777344 52.19910156 -38.85804687 52.21070313 -39.58984375 52.22265625 C-40.50894531 52.23167969 -41.42804687 52.24070313 -42.375 52.25 C-43.29152344 52.26160156 -44.20804688 52.27320313 -45.15234375 52.28515625 C-47.4375 52.1875 -47.4375 52.1875 -48.4375 51.1875 C-48.625 48.75 -48.625 48.75 -48.4375 46.1875 C-46.4375 44.1875 -46.4375 44.1875 -44.2734375 43.9921875 C-43.46132813 44.01539063 -42.64921875 44.03859375 -41.8125 44.0625 C-40.99523437 44.08054688 -40.17796875 44.09859375 -39.3359375 44.1171875 C-38.70945312 44.14039063 -38.08296875 44.16359375 -37.4375 44.1875 C-37.36273438 43.58164062 -37.28796875 42.97578125 -37.2109375 42.3515625 C-35.53469174 31.66960422 -30.01030035 22.81595388 -21.4375 16.1875 C-15.68745634 12.85678307 -10.08160401 10.63044027 -3.4375 10.1875 C-3.44910156 9.54941406 -3.46070313 8.91132813 -3.47265625 8.25390625 C-3.48167969 7.42761719 -3.49070313 6.60132813 -3.5 5.75 C-3.51160156 4.92628906 -3.52320313 4.10257813 -3.53515625 3.25390625 C-3.39211585 0.22717144 -3.02891307 0.23299331 0 0 Z " fill="#FD018A" transform="translate(57.4375,8.8125)"/>
<path d="M0 0 C10.69178601 1.17894218 19.07918291 5.09750171 26.46875 13.02734375 C31.59100386 19.62616569 33.83445843 26.82381286 35 35 C32.36 35 29.72 35 27 35 C26.8040625 34.23816406 26.608125 33.47632813 26.40625 32.69140625 C23.93724387 24.16694975 20.47637445 17.66134749 12.94921875 12.62890625 C8.82287374 10.44154278 4.51774969 9.12943742 0 8 C0 5.36 0 2.72 0 0 Z " fill="#2D2D8B" transform="translate(61,19)"/>
<path d="M0 0 C2.64 0 5.28 0 8 0 C6.58175452 11.27260635 2.14162732 20.10868602 -6.7109375 27.34765625 C-12.56920371 31.57640473 -18.76486665 34.19257812 -26 35 C-27 34 -27 34 -27.0625 30.4375 C-27.041875 29.303125 -27.02125 28.16875 -27 27 C-26.154375 26.72027344 -25.30875 26.44054687 -24.4375 26.15234375 C-15.49667235 22.99257398 -8.22239756 19.64310742 -3.625 11 C-2.04507745 7.42070643 -0.9479706 3.79188239 0 0 Z " fill="#2C2B8B" transform="translate(88,61)"/>
<path d="M0 0 C2.64 0 5.28 0 8 0 C8.1959375 0.76183594 8.391875 1.52367187 8.59375 2.30859375 C11.23170531 11.41636188 15.32690884 18.37372435 23.5625 23.4375 C27.05656598 25.02571181 30.28237572 26.0895614 34 27 C34 29.64 34 32.28 34 35 C21.24032143 32.5387422 12.73895436 27.57540369 5 17 C1.75672828 11.4883128 0.46116353 6.34099856 0 0 Z " fill="#2B2A8A" transform="translate(20,61)"/>
<path d="M0 0 C0 2.64 0 5.28 0 8 C-1.051875 8.31130859 -1.051875 8.31130859 -2.125 8.62890625 C-11.56606788 11.6946878 -18.00565136 16.28013585 -23.03515625 24.93359375 C-24.5683642 28.21726583 -25.30247464 31.4489618 -26 35 C-28.64 35 -31.28 35 -34 35 C-33.58607754 24.23801593 -28.28601583 15.17420715 -20.5078125 7.91015625 C-14.70130617 3.48744348 -7.39996415 0 0 0 Z " fill="#2C2B8A" transform="translate(54,19)"/>
<path d="M0 0 C4.55555556 0.55555556 4.55555556 0.55555556 6 2 C6.14115161 4.67058851 6.04247107 7.32432238 6 10 C7.299375 9.979375 8.59875 9.95875 9.9375 9.9375 C11.29165633 9.91600546 12.64756083 9.92851801 14 10 C15 11 15 11 15.0625 13.5625 C15.041875 14.366875 15.02125 15.17125 15 16 C12.04335481 17.4783226 9.25770263 17.06032783 6 17 C6.061875 18.093125 6.12375 19.18625 6.1875 20.3125 C6 24 6 24 4.75 26 C3 27 3 27 0.875 26.8125 C-1 26 -1 26 -2 24 C-2.04022391 21.6670134 -2.04320247 19.33293334 -2 17 C-3.670625 17.061875 -3.670625 17.061875 -5.375 17.125 C-9 17 -9 17 -11 15 C-10.625 12.375 -10.625 12.375 -10 10 C-7.36 10 -4.72 10 -2 10 C-2.04125 8.72125 -2.0825 7.4425 -2.125 6.125 C-2.1953125 3.9453125 -2.1953125 3.9453125 -2 2 C-1.34 1.34 -0.68 0.68 0 0 Z " fill="#FFDFBC" transform="translate(56,44)"/>
<path d="M0 0 C1.875 0.75 1.875 0.75 2.875 1.75 C2.96131874 3.09267413 2.98206473 4.43974322 2.97265625 5.78515625 C2.96943359 6.59404297 2.96621094 7.40292969 2.96289062 8.23632812 C2.95451172 9.08646484 2.94613281 9.93660156 2.9375 10.8125 C2.93298828 11.66650391 2.92847656 12.52050781 2.92382812 13.40039062 C2.91200373 15.51695663 2.89406769 17.63348685 2.875 19.75 C-0.08357409 19.80379226 -3.04117721 19.84357093 -6 19.875 C-7.26263672 19.90013672 -7.26263672 19.90013672 -8.55078125 19.92578125 C-9.75927734 19.93544922 -9.75927734 19.93544922 -10.9921875 19.9453125 C-11.73581543 19.95578613 -12.47944336 19.96625977 -13.24560547 19.97705078 C-15.125 19.75 -15.125 19.75 -17.125 17.75 C-16.56944444 13.19444444 -16.56944444 13.19444444 -15.125 11.75 C-13.43891034 11.67794489 -11.74999341 11.66613932 -10.0625 11.6875 C-9.14339844 11.69652344 -8.22429687 11.70554687 -7.27734375 11.71484375 C-6.56707031 11.72644531 -5.85679688 11.73804687 -5.125 11.75 C-5.15980469 11.13511719 -5.19460937 10.52023438 -5.23046875 9.88671875 C-5.25753906 9.07847656 -5.28460938 8.27023438 -5.3125 7.4375 C-5.34730469 6.63699219 -5.38210937 5.83648437 -5.41796875 5.01171875 C-5.125 2.75 -5.125 2.75 -3.74609375 0.94140625 C-2.125 -0.25 -2.125 -0.25 0 0 Z " fill="#272988" transform="translate(112.125,95.25)"/>
<path d="M0 0 C2.5625 0.25 2.5625 0.25 5 1 C6.20272819 3.40545638 6.10071472 4.94996953 6.0625 7.625 C6.05347656 8.44226563 6.04445313 9.25953125 6.03515625 10.1015625 C6.02355469 10.72804688 6.01195312 11.35453125 6 12 C6.61488281 11.96519531 7.22976563 11.93039063 7.86328125 11.89453125 C9.07564453 11.85392578 9.07564453 11.85392578 10.3125 11.8125 C11.51326172 11.76029297 11.51326172 11.76029297 12.73828125 11.70703125 C15.47851584 12.06198392 16.29171079 12.89366282 18 15 C17.01 17.475 17.01 17.475 16 20 C10.06 20 4.12 20 -2 20 C-2.04125 17.07125 -2.0825 14.1425 -2.125 11.125 C-2.14320801 10.20348145 -2.16141602 9.28196289 -2.18017578 8.33251953 C-2.1851709 7.60661621 -2.19016602 6.88071289 -2.1953125 6.1328125 C-2.21102295 5.01737061 -2.21102295 5.01737061 -2.22705078 3.87939453 C-2 2 -2 2 0 0 Z " fill="#272A8A" transform="translate(2,95)"/>
<path d="M0 0 C0.74886475 0.00523682 1.49772949 0.01047363 2.26928711 0.01586914 C3.36188843 0.01961548 3.36188843 0.01961548 4.4765625 0.0234375 C5.40718506 0.0325415 6.33780762 0.04164551 7.29663086 0.05102539 C11.72069336 0.08196289 11.72069336 0.08196289 16.23413086 0.11352539 C16.23413086 6.05352539 16.23413086 11.99352539 16.23413086 18.11352539 C14.58413086 18.77352539 12.93413086 19.43352539 11.23413086 20.11352539 C9.12779368 18.40523618 8.29611478 17.59204123 7.94116211 14.85180664 C7.9759668 14.05129883 8.01077148 13.25079102 8.04663086 12.42602539 C8.07370117 11.6177832 8.10077148 10.80954102 8.12866211 9.97680664 C8.1634668 9.36192383 8.19827148 8.74704102 8.23413086 8.11352539 C7.61924805 8.14833008 7.00436523 8.18313477 6.37084961 8.21899414 C5.15848633 8.25959961 5.15848633 8.25959961 3.92163086 8.30102539 C2.72086914 8.35323242 2.72086914 8.35323242 1.49584961 8.40649414 C-0.76586914 8.11352539 -0.76586914 8.11352539 -2.57446289 6.73461914 C-3.76586914 5.11352539 -3.76586914 5.11352539 -3.51586914 2.98852539 C-2.38170567 0.15311671 -2.38170567 0.15311671 0 0 Z " fill="#272A8A" transform="translate(98.765869140625,-0.113525390625)"/>
<path d="M0 0 C4.393125 -0.061875 4.393125 -0.061875 8.875 -0.125 C9.79651855 -0.14320801 10.71803711 -0.16141602 11.66748047 -0.18017578 C12.39338379 -0.1851709 13.11928711 -0.19016602 13.8671875 -0.1953125 C14.98262939 -0.21102295 14.98262939 -0.21102295 16.12060547 -0.22705078 C18 -0 18 -0 20 2 C19.63318342 4.93453261 19.13562754 5.86437246 17 8 C14.8359375 8.1953125 14.8359375 8.1953125 12.375 8.125 C11.55773438 8.10695313 10.74046875 8.08890625 9.8984375 8.0703125 C9.27195312 8.04710937 8.64546875 8.02390625 8 8 C8.03480469 8.61488281 8.06960938 9.22976563 8.10546875 9.86328125 C8.13253906 10.67152344 8.15960938 11.47976563 8.1875 12.3125 C8.22230469 13.11300781 8.25710938 13.91351563 8.29296875 14.73828125 C7.93801608 17.47851584 7.10633718 18.29171079 5 20 C2.525 19.01 2.525 19.01 0 18 C0 12.06 0 6.12 0 0 Z " fill="#272988" transform="translate(0,0)"/>
<path d="M0 0 C4.78409464 0.09057666 9.36289926 0.42721224 14.08203125 1.23046875 C14.08203125 3.54046875 14.08203125 5.85046875 14.08203125 8.23046875 C11.26946844 8.25731187 8.45715884 8.27723063 5.64453125 8.29296875 C4.84208984 8.30134766 4.03964844 8.30972656 3.21289062 8.31835938 C1.16907904 8.32698305 -0.87480777 8.28275025 -2.91796875 8.23046875 C-3.91796875 7.23046875 -3.91796875 7.23046875 -4.10546875 4.79296875 C-3.87772799 1.68051173 -3.23275179 0.38845694 0 0 Z " fill="#FFA520" transform="translate(12.91796875,52.76953125)"/>
<path d="M0 0 C2.5625 0.1875 2.5625 0.1875 4.5625 2.1875 C4.54502073 4.94339777 4.42386729 7.57536676 4.1875 10.3125 C4.13078125 11.06660156 4.0740625 11.82070313 4.015625 12.59765625 C3.8740535 14.46168096 3.71950041 16.32471137 3.5625 18.1875 C1.2525 18.1875 -1.0575 18.1875 -3.4375 18.1875 C-3.46434312 15.37493719 -3.48426188 12.56262759 -3.5 9.75 C-3.50837891 8.94755859 -3.51675781 8.14511719 -3.52539062 7.31835938 C-3.5340143 5.27454779 -3.4897815 3.23066098 -3.4375 1.1875 C-2.4375 0.1875 -2.4375 0.1875 0 0 Z " fill="#FFA520" transform="translate(57.4375,8.8125)"/>
<path d="M0 0 C0.25 2.5625 0.25 2.5625 0 5 C-1 6 -1 6 -4.81640625 6.09765625 C-6.39846682 6.09098089 -7.98051159 6.07901875 -9.5625 6.0625 C-10.36880859 6.05798828 -11.17511719 6.05347656 -12.00585938 6.04882812 C-14.00393756 6.03700518 -16.00197783 6.01906914 -18 6 C-18 3.69 -18 1.38 -18 -1 C-4.36956522 -2.91304348 -4.36956522 -2.91304348 0 0 Z " fill="#FFA826" transform="translate(106,55)"/>
<path d="M0 0 C2.31 0 4.62 0 7 0 C9.2 13.2 9.2 13.2 6 18 C1.125 17.125 1.125 17.125 0 16 C-0.07319621 13.30345146 -0.09242537 10.63308542 -0.0625 7.9375 C-0.05798828 7.17888672 -0.05347656 6.42027344 -0.04882812 5.63867188 C-0.0370068 3.75908129 -0.01907078 1.87953101 0 0 Z " fill="#FEA725" transform="translate(54,88)"/>
<path d="M0 0 C2.31 0 4.62 0 7 0 C7 2.64 7 5.28 7 8 C4.69 8 2.38 8 0 8 C0 5.36 0 2.72 0 0 Z " fill="#FBDBB3" transform="translate(54,19)"/>
<path d="M0 0 C2.31 0 4.62 0 7 0 C7 2.31 7 4.62 7 7 C4.69 7 2.38 7 0 7 C0 4.69 0 2.38 0 0 Z " fill="#FBE6BE" transform="translate(54,88)"/>
<path d="M0 0 C2.31 0 4.62 0 7 0 C7 2.31 7 4.62 7 7 C4.69 7 2.38 7 0 7 C0 4.69 0 2.38 0 0 Z " fill="#FFE5BE" transform="translate(88,54)"/>
<path d="M0 0 C2.31 0 4.62 0 7 0 C7 2.31 7 4.62 7 7 C4.69 7 2.38 7 0 7 C0 4.69 0 2.38 0 0 Z " fill="#FFE9B9" transform="translate(20,54)"/>
</svg>
