<svg width="143" height="40" viewBox="0 0 143 40" fill="none" xmlns="http://www.w3.org/2000/svg">
<g style="mix-blend-mode:luminosity">
<mask id="mask0_23247_16226" style="mask-type:luminance" maskUnits="userSpaceOnUse" x="1" y="1" width="141" height="38">
<path d="M1.12598 38.7018H141.874V1.125H1.12598V38.7018Z" fill="white"/>
</mask>
<g mask="url(#mask0_23247_16226)">
<path d="M3.60938 28.3931C3.60938 28.3931 4.60154 30.227 6.66531 32.1478L6.27718 29.3224L3.60938 28.3931Z" fill="white"/>
<path d="M23.5479 38.67C35.3291 38.67 45.9648 30.4551 45.9648 19.9058C45.9648 9.35636 35.3291 1.1416 23.5479 1.1416C11.7664 1.1416 1.13232 9.35636 1.13232 19.9058C1.13232 30.4551 11.7664 38.67 23.5479 38.67Z" fill="white"/>
<path d="M98.4311 31.6403H94.4317L94.3745 18.8345C94.3771 16.9995 92.4523 16.9585 92.4523 16.9585H90.6965C90.6965 16.9585 90.4589 16.9995 90.18 17.0397C87.6624 17.5707 86.8639 19.528 86.8435 21.7304L86.8787 31.6403H82.8373L82.8298 18.8751C82.8255 16.9995 80.8587 16.9585 80.8587 16.9585H79.1035C79.1035 16.9585 78.8653 16.9995 78.5873 17.0397C76.0668 17.5707 75.27 19.528 75.2912 21.7304L75.2857 31.6403H71.2437L71.2368 20.9549L71.2483 12.9215H75.2883L75.2972 14.5936C76.4738 13.1664 78.2198 12.8809 79.0778 12.8809H80.5467C82.3433 12.8809 83.9129 13.4515 85.568 14.9607C87.2683 13.4924 88.7523 12.8809 90.6708 12.8809H92.1397C95.8142 12.8809 98.4291 15.2051 98.4529 19.0383L98.4311 31.6403Z" fill="#231F20"/>
<path d="M129.697 12.8807H123.575L123.575 9.12205L119.534 6.68262L119.538 31.6402H123.579L123.552 16.9177H129.798C130.206 16.9177 130.629 16.9994 130.99 17.2036C131.572 17.4891 132.007 18.1002 131.99 19.1608L131.988 31.6402H136.029L136.002 18.9976C136.02 15.1644 133.373 12.8807 129.697 12.8807Z" fill="#231F20"/>
<path d="M113.861 8.93471L110.06 6.64111H109.902L109.869 16.9176H109.878L109.883 25.033C109.894 28.3373 111.355 30.824 114.334 31.5174C114.927 31.64 115.335 31.64 115.335 31.64H116.192L116.173 27.6029H115.602C113.847 27.6029 113.887 25.5219 113.887 25.5219L113.879 16.9176H116.205L116.187 12.8806H113.861L113.861 8.93471Z" fill="#231F20"/>
<path d="M102.321 6.64111H102.14L102.153 10.882H106.114L106.126 8.9376L102.321 6.64111ZM102.143 31.64H106.145L106.14 12.8806H102.139L102.143 31.64Z" fill="#231F20"/>
<path d="M51.2117 24.7451C53.0115 26.6574 55.5383 27.9964 58.3325 27.9964C61.7007 27.9586 64.0743 26.6959 64.0743 24.4016C64.0743 19.0473 48.5713 24.2105 48.5713 14.4194C48.5713 10.1362 53.0501 7.19141 58.5236 7.19141C62.5061 7.19141 65.7205 8.45369 68.0931 10.8628L64.8021 13.8076C62.6197 11.6668 60.6291 10.9398 58.2945 10.9398C54.6194 10.9398 53.2414 12.7377 53.2414 14.1913C53.2414 19.5819 68.7452 14.1913 68.7452 24.1725C68.7452 29.1816 63.6541 32.2025 58.1412 32.2025C54.7727 32.2025 50.8673 30.9411 47.8438 27.7665L51.2117 24.7451Z" fill="#231F20"/>
<path d="M139.881 29.3762C140.116 29.3762 140.277 29.3359 140.277 29.0728C140.277 28.8379 140.024 28.8091 139.829 28.8091H139.48V29.3762H139.881ZM138.987 28.4313H139.853C140.437 28.4313 140.77 28.6031 140.77 29.1185C140.77 29.5365 140.517 29.7025 140.162 29.7313L140.77 30.7279H140.265L139.715 29.7542H139.48V30.7279H138.987V28.4313ZM139.818 31.1973C140.638 31.1973 141.292 30.5445 141.292 29.5882C141.292 28.6373 140.638 27.9788 139.818 27.9788C138.987 27.9788 138.345 28.6373 138.345 29.5882C138.345 30.5445 138.987 31.1973 139.818 31.1973ZM139.818 27.5205C140.959 27.5205 141.888 28.4483 141.888 29.5882C141.888 30.7279 140.959 31.6556 139.818 31.6556C138.677 31.6556 137.749 30.7279 137.749 29.5882C137.749 28.4483 138.677 27.5205 139.818 27.5205Z" fill="#231F20"/>
<path d="M34.5279 27.2616C38.511 27.2616 42.1075 23.9155 42.1075 19.6187C42.1075 15.3215 38.511 11.9755 34.5279 11.9755C30.5442 11.9755 26.948 15.3215 26.948 19.6187C26.948 23.9155 30.5442 27.2616 34.5279 27.2616ZM34.5279 8.10205C41.1559 8.10205 46.4083 13.1379 46.4083 19.6187C46.4083 26.0998 41.1559 31.1357 34.5279 31.1357C27.8996 31.1357 22.6465 26.0998 22.6465 19.6187C22.6465 13.1379 27.8996 8.10205 34.5279 8.10205Z" fill="white"/>
<path d="M26.957 19.6138C26.957 23.9085 30.5518 27.2534 34.5341 27.2534C38.516 27.2534 42.1111 23.9085 42.1111 19.6138C42.1111 15.3184 38.516 11.9739 34.5341 11.9739C30.5518 11.9739 26.957 15.3184 26.957 19.6138ZM34.5341 31.1272C27.9085 31.1272 22.6574 26.0921 22.6574 19.6138C22.6574 13.1352 27.9085 8.10103 34.5341 8.10103C38.8026 8.10103 42.4977 10.1923 44.5884 13.4111C41.3157 6.16063 32.7912 1.125 23.5645 1.125C11.7709 1.125 1.12598 9.3502 1.12598 19.9135C1.12598 23.0254 2.05562 25.9313 3.66022 28.4872L12.3795 8.55548L14.8645 8.55905L24.2387 30.6689H19.8333L18.1414 26.5143H8.76692L6.61611 32.1044C10.8306 36.1649 17.0191 38.7018 23.5645 38.7018C33.5517 38.7018 42.7137 32.8021 45.2868 24.5799C43.3998 28.4907 39.3271 31.1272 34.5341 31.1272ZM10.2477 22.8529H16.6967L13.4896 14.9311L10.2477 22.8529Z" fill="#0D7A3F"/>
</g>
</g>
</svg>
