<svg width="125" height="40" viewBox="0 0 125 40" fill="none" xmlns="http://www.w3.org/2000/svg">
<g style="mix-blend-mode:luminosity" clip-path="url(#clip0_23247_16282)">
<mask id="mask0_23247_16282" style="mask-type:luminance" maskUnits="userSpaceOnUse" x="0" y="0" width="125" height="40">
<path d="M125 0H0V39.8303H125V0Z" fill="white"/>
</mask>
<g mask="url(#mask0_23247_16282)">
<path d="M47.083 2.20831H43.5513V18.594H47.0235C52.7478 18.594 56.3093 15.4194 56.3093 10.3124C56.3093 5.39277 52.6883 2.20831 47.083 2.20831ZM45.9818 4.44631H46.468C49.851 4.44631 53.8788 5.4322 53.8788 10.3617C53.8788 15.2912 49.851 16.2771 46.468 16.2771H45.9818V4.44631ZM67.46 11.8307C67.46 15.0645 66.2695 16.632 63.7993 16.632C61.329 16.632 60.1288 15.0743 60.1288 11.8307V2.20831H57.6983V12.511C57.6983 16.3461 60.1385 18.9292 63.7895 18.9292C67.4403 18.9292 69.8808 16.356 69.8808 12.511V2.20831H67.46V11.8307ZM76.7855 9.60258L84.226 2.19845H81.0018L74.4938 8.81386V2.19845H72.0633V18.594H74.4938V11.8307L75.0593 11.2885L81.0118 18.6236H84.3253L76.7855 9.60258ZM94.2458 16.3461H87.6288V10.7364H94.0673V8.4885H87.6288V4.44631H94.2458V2.19845H85.208V18.594H94.2458V16.3461ZM43.5513 39.4952H52.579V37.2472H45.9818V31.6375H52.4105V29.3995H45.9818V25.3474H52.579V23.1094H43.5513V39.4952ZM71.1405 39.4952H80.1983V37.2472H73.5713V31.6375H80.0098V29.3995H73.5713V25.3474H80.1983V23.1094H71.1405V39.4952ZM71.1405 39.4952H80.1983V37.2472H73.5713V31.6375H80.0098V29.3995H73.5713V25.3474H80.1983V23.1094H71.1405V39.4952ZM66.597 23.1094V34.5854L56.0415 23.1094H54.5633V39.4952H56.9938V27.9108L67.46 39.4952H69.0078V23.1094H66.597ZM91.5275 27.8713C91.5285 27.0785 91.3235 26.2992 90.9325 25.6082C90.5415 24.9173 89.9775 24.3385 89.2953 23.9277C87.937 23.3066 86.4408 23.0418 84.9503 23.1587H82.341V39.4952H84.7715V32.7416H85.3173L90.0395 39.4952H93.0155L87.837 32.5347C88.9133 32.3275 89.8783 31.7421 90.556 30.886C91.2338 30.0296 91.5785 28.9595 91.5275 27.8713ZM89.226 27.96C89.226 29.8333 87.976 30.6713 85.1783 30.6713H84.7518V25.3081H85.0693C87.9065 25.3081 89.226 26.1558 89.226 27.9501V27.96ZM102.182 33.2641H106.329C106.101 35.719 103.492 37.5824 101.29 37.5824C99.6603 37.5041 98.1235 36.8065 96.9973 35.6341C95.871 34.4614 95.241 32.9036 95.2378 31.2825C95.1978 29.9811 95.579 28.7011 96.3253 27.6308C97.0718 26.5608 98.1443 25.7568 99.3845 25.3374C100.625 24.918 101.968 24.9054 103.217 25.3011C104.465 25.6969 105.552 26.4803 106.319 27.5362L106.468 27.7332L108.135 26.0967L108.016 25.9389C107.111 24.8289 105.94 23.9624 104.611 23.4192C103.281 22.876 101.835 22.6734 100.407 22.83C98.9778 22.9867 97.6113 23.4975 96.433 24.3156C95.2545 25.1337 94.3018 26.2331 93.6623 27.5123C93.0225 28.7918 92.7168 30.2102 92.7725 31.6378C92.8283 33.0654 93.244 34.4559 93.9815 35.6823C94.719 36.9083 95.7548 37.9307 96.9935 38.6557C98.2323 39.3804 99.6345 39.7844 101.071 39.8303C103.101 39.8726 105.064 39.1123 106.53 37.7165C107.996 36.3208 108.844 34.4037 108.889 32.3869V31.0261H102.182V33.2641ZM119.117 23.1094L115.297 29.7151L111.488 23.1094H108.69L114.087 32.3965V39.4952H116.518V32.3965L121.915 23.1094H119.117ZM119.98 37.119C119.978 36.6259 120.123 36.1429 120.398 35.7317C120.672 35.3205 121.062 34.9993 121.52 34.8085C121.978 34.6179 122.483 34.5667 122.97 34.6609C123.457 34.7553 123.905 34.9911 124.258 35.3387C124.61 35.686 124.851 36.1295 124.95 36.6129C125.048 37.0964 125.001 37.598 124.813 38.0547C124.624 38.5111 124.304 38.9019 123.893 39.1777C123.481 39.4534 122.996 39.6015 122.5 39.6035C122.173 39.6062 121.849 39.5446 121.545 39.4229C121.242 39.3009 120.966 39.1208 120.733 38.8927C120.5 38.6649 120.315 38.3933 120.187 38.0942C120.06 37.7948 119.993 37.4736 119.99 37.1486C119.99 37.1486 119.98 37.129 119.98 37.119ZM120.387 37.119C120.385 37.5324 120.506 37.9372 120.736 38.282C120.965 38.6266 121.292 38.8962 121.676 39.0562C122.059 39.2162 122.482 39.2594 122.89 39.1809C123.299 39.1021 123.675 38.9046 123.97 38.6137C124.266 38.323 124.468 37.9513 124.551 37.5464C124.634 37.1414 124.594 36.7208 124.437 36.3382C124.279 35.9556 124.011 35.6278 123.667 35.3965C123.322 35.1652 122.916 35.0408 122.5 35.0388C122.225 35.0375 121.953 35.09 121.698 35.1933C121.444 35.2967 121.212 35.449 121.017 35.6413C120.821 35.8333 120.666 36.0619 120.56 36.3138C120.453 36.5657 120.398 36.836 120.397 37.1093L120.387 37.119ZM123.641 38.5389H123.174L122.46 37.2472H121.934V38.529H121.528V35.7389H122.708C123.214 35.7389 123.7 35.8867 123.7 36.4783C123.708 36.5714 123.698 36.6656 123.669 36.7548C123.641 36.844 123.595 36.9267 123.534 36.9983C123.473 37.0696 123.399 37.1285 123.315 37.1712C123.231 37.2139 123.139 37.2398 123.045 37.2472H122.956L123.641 38.5389ZM121.934 36.1431V36.843H122.371C122.748 36.843 123.274 36.9021 123.274 36.5275C123.274 36.1528 122.976 36.1528 122.639 36.1528L121.934 36.1431ZM24.5732 34.9993C23.6661 35.9573 22.46 36.5826 21.1505 36.7739C19.1664 36.8924 17.2319 35.6798 16.6466 31.2726L8.63068 28.9262C12.1327 41.319 21.8251 40.8852 25.1585 35.4924C25.3868 35.1374 25.3173 34.96 25.1585 34.8713C24.9997 34.7824 24.8013 34.7824 24.5732 34.9993ZM24.5732 2.46465C21.349 -3.9437 9.92038 2.38578 7.93625 18.9292C7.85628 19.2986 7.89913 19.6838 8.05835 20.027C8.21758 20.3701 8.48455 20.6526 8.81918 20.832C9.83393 21.3808 10.9393 21.7448 12.0831 21.9066C12.9603 22.1102 13.8625 22.1866 14.7616 22.1334C15.1525 22.1166 15.5251 21.9644 15.815 21.7034C16.1049 21.4423 16.2938 21.0887 16.349 20.7038C18.0553 2.95759 22.1327 -1.06488 24.0275 2.75056C24.2458 3.19421 24.8013 2.95759 24.5632 2.46465H24.5732Z" fill="#005984"/>
<path d="M22.5991 8.06452C22.2062 8.00259 21.8038 8.05421 21.4397 8.21329C21.0755 8.37237 20.7652 8.63218 20.5455 8.96169C20.0728 9.8076 19.7633 10.7338 19.6328 11.6926C19.4204 12.6635 19.3568 13.6606 19.4443 14.6504C19.5191 14.9074 19.6753 15.1335 19.8898 15.2952C20.1043 15.4568 20.3656 15.5453 20.6348 15.5475C24.2856 15.7743 34.9997 17.2926 36.5077 20.3883C37.4998 22.5178 34.5237 23.0601 32.3212 23.6221C31.9635 23.6865 31.6343 23.8579 31.3773 24.1134C31.12 24.3688 30.9478 24.6961 30.8828 25.0516C30.759 25.5965 30.748 26.1604 30.8503 26.7095C30.9528 27.2586 31.1663 27.7813 31.478 28.2459C31.6123 28.4708 31.8307 28.6335 32.0857 28.6981C32.3405 28.7629 32.6108 28.7244 32.8373 28.591L32.9662 28.5023C34.1015 27.7595 35.107 26.837 35.9423 25.7714C43.105 15.8433 28.0853 8.17297 22.5991 8.06452Z" fill="#54B948"/>
<path d="M26.2795 24.3223C8.31313 26.2941 -5.86345 18.1308 4.87068 16.1492C4.87068 16.1492 6.23973 15.8337 6.49765 15.0647C6.7556 14.2957 6.83495 14.0788 7.13258 12.945C7.32108 12.245 7.48973 11.8507 7.6683 11.3084C7.956 10.4704 7.42028 9.96759 6.2298 10.5493C-3.5817 15.3112 -0.714645 24.204 7.2913 28.6603C12.5338 31.7053 18.7181 32.7331 24.6723 31.549C25.161 31.4571 25.6248 31.2635 26.0333 30.9818C26.4418 30.6998 26.786 30.3353 27.0433 29.9125C27.851 28.7082 28.2025 27.2585 28.0353 25.8208C28.0428 25.6009 27.9998 25.3823 27.91 25.1813C27.8203 24.98 27.686 24.8018 27.5173 24.6596C27.3483 24.5173 27.1493 24.4149 26.935 24.3599C26.7205 24.3049 26.4965 24.2988 26.2795 24.342V24.3223Z" fill="#26BCD7"/>
</g>
</g>
<defs>
<clipPath id="clip0_23247_16282">
<rect width="125" height="40" fill="white"/>
</clipPath>
</defs>
</svg>
