<svg width="184" height="40" viewBox="0 0 184 40" fill="none" xmlns="http://www.w3.org/2000/svg">
<g style="mix-blend-mode:luminosity" clip-path="url(#clip0_23247_16241)">
<path fill-rule="evenodd" clip-rule="evenodd" d="M180.685 34.0331H180.244V35.0592H180.659C181.04 35.0592 181.275 34.8974 181.275 34.5462C181.275 34.2081 181.066 34.0331 180.685 34.0331ZM181.579 37.0171L180.571 35.5324H180.244V36.9642H179.664V33.4935H180.685C181.393 33.4935 181.864 33.8557 181.864 34.5051C181.864 35.0049 181.604 35.3284 181.183 35.4648L182.153 36.882L181.579 37.0171ZM180.699 32.5628C179.284 32.5628 178.161 33.5599 178.161 35.3441C178.161 37.1103 179.284 38.111 180.699 38.111C182.128 38.111 183.253 37.1103 183.253 35.3441C183.253 33.5599 182.116 32.5628 180.699 32.5628ZM180.699 38.4765C178.949 38.4765 177.729 37.2189 177.729 35.3441C177.729 33.479 178.971 32.1934 180.699 32.1934C182.455 32.1934 183.671 33.4645 183.671 35.3441C183.671 37.209 182.427 38.4765 180.699 38.4765ZM27.184 21.9532H18.145C18.7079 21.0285 27.184 6.81679 27.184 6.81679V21.9532ZM23.3249 0.461168L0.404785 38.4743H8.19696C8.19696 38.4743 13.8489 29.0114 14.0438 28.6879H27.1961L27.201 38.4791L34.5973 38.478V0.459961H23.3249V0.461168ZM39.8439 0.459961V38.4791H47.032V0.461168L39.8439 0.459961ZM52.2639 0.459961H59.441V38.4791H52.2639V0.459961ZM75.2602 20.524C71.3502 19.4713 70.5329 18.8798 70.6359 17.2007C70.7205 15.6772 71.9228 14.8009 73.931 14.8009C76.415 14.8009 79.4521 15.7038 82.0619 17.2151L82.4737 17.4578L83.4625 11.1142L83.2288 10.9995C80.5487 9.73808 77.3409 9.06571 73.931 9.06571C70.6491 9.06571 67.859 10.1111 66.0565 12.0039C64.6305 13.514 63.8982 15.4684 63.9357 17.6401C64.0605 23.502 66.7682 25.1606 73.1828 26.8615C77.4244 27.9406 78.2851 28.5816 78.255 30.6676C78.2307 32.5435 77.1462 33.2509 74.2614 33.2509C71.2449 33.2509 67.8431 32.1041 64.8918 30.1135L64.4634 29.8202L63.4672 36.1879L63.6814 36.3086C65.9789 37.6123 69.9047 38.9811 74.0436 38.9811C78.0551 38.9811 81.0175 38.0009 82.8502 36.0901C84.2784 34.5908 84.9805 32.564 84.9478 30.0483C84.8547 23.7531 81.7764 22.2574 75.2602 20.524ZM102.404 32.0715L102.032 32.1741C101.538 32.3142 100.913 32.3853 100.06 32.3853C97.9297 32.3853 96.9394 31.3943 96.9394 29.2504V15.7907H102.21L102.307 9.60046H96.9394V0.459961H89.8698V9.60046H86.178V15.7895H89.8698V30.3718C89.8698 36.1432 92.7921 38.9668 98.817 38.9668C100.761 38.9668 101.952 38.7385 103.013 38.5007L103.335 38.4369L102.404 32.0715ZM115.218 33.2509C113.45 33.2509 112.355 32.1319 112.355 30.3368C112.355 27.1391 115.344 25.0495 121.007 24.2649V30.5275C119.249 32.2984 117.253 33.2509 115.218 33.2509ZM117.701 9.00534C113.232 9.00534 109.857 10.128 107.173 11.2144L106.919 11.3171L107.84 17.4143L108.242 17.2321C111.463 15.763 114.189 15.0773 116.845 15.0773C119.676 15.0773 121.007 16.2856 121.007 18.8882V19.6343C110.393 20.7605 105.225 24.4966 105.225 31.0587C105.225 35.9066 108.27 39.0354 112.992 39.0354C116.261 39.0354 118.975 37.8042 121.475 35.2958C121.611 36.136 121.976 38.4754 121.976 38.4754H128.186V18.6903C128.186 12.0908 124.856 9.00534 117.701 9.00534ZM146.621 32.0715L146.255 32.1741C145.763 32.3142 145.129 32.3853 144.29 32.3853C142.153 32.3853 141.15 31.3943 141.15 29.2504V15.7907H146.432L146.529 9.60046H141.15V0.459961H134.069V9.60046H130.395V15.7895H134.069V30.3718C134.069 36.1432 137.01 38.9668 143.039 38.9668C144.977 38.9668 146.223 38.7279 147.233 38.5007L147.548 38.4369L146.621 32.0715ZM155.883 20.8692C156.207 16.7287 157.953 14.3494 160.713 14.3494C164.43 14.3494 165.415 17.8055 165.562 20.8692H155.883ZM171.264 29.8467C168.05 32.1475 165.42 33.1386 162.448 33.1386C158.589 33.1386 156.193 30.4443 155.782 25.7569H172.531L172.605 23.782C172.605 13.9969 168.662 9.01984 160.876 9.00656C157.455 8.99569 154.65 10.1026 152.538 12.2864C149.965 14.924 148.605 19.0295 148.605 24.1188C148.605 33.3293 153.653 39.0354 161.741 39.0354C165.693 39.0354 169.277 37.8996 172.402 35.6797L172.579 35.559L171.707 29.5232L171.264 29.8467Z" fill="#0033A0"/>
</g>
<defs>
<clipPath id="clip0_23247_16241">
<rect width="184" height="40" fill="white"/>
</clipPath>
</defs>
</svg>
