<svg width="155" height="40" viewBox="0 0 155 40" fill="none" xmlns="http://www.w3.org/2000/svg">
<g style="mix-blend-mode:luminosity" clip-path="url(#clip0_23247_16276)">
<mask id="mask0_23247_16276" style="mask-type:luminance" maskUnits="userSpaceOnUse" x="0" y="0" width="155" height="40">
<path d="M155 0H0V39.8297H155V0Z" fill="white"/>
</mask>
<g mask="url(#mask0_23247_16276)">
<path d="M108.337 15.8463H88.0859V24.7687H99.1321C96.512 30.1222 90.0686 32.335 84.687 29.6939C79.3764 27.0529 77.1813 20.5573 79.8011 15.1325C81.5715 11.4207 85.3244 9.06522 89.4313 9.06522C92.6885 8.99384 95.7333 10.6356 97.5034 13.348H107.134C105.646 6.56694 98.0697 0 89.502 0C81.1465 0 73.0038 5.49622 71.3043 13.6335V1.42759C61.1078 1.42759 54.3101 12.9911 52.7524 19.8435C51.1237 12.9911 44.397 1.42759 34.2004 1.42759V38.1881H43.0516V16.9883C43.0516 16.9883 48.1498 21.5567 48.1498 38.1169H57.2843C57.2843 21.5567 62.3822 16.9883 62.3822 16.9883V38.1169H71.2334V25.3397C73.3578 34.6191 80.6508 39.8297 89.4313 39.8297C98.2824 39.8297 106.142 34.7619 108.337 24.8401V38.1169C108.337 38.1169 126.677 38.1169 126.393 38.1169V29.4084H116.976V24.7687H126.393V15.8463H116.976V10.9211H126.393V1.92725H108.337V15.8463ZM145.866 17.2025C138.147 6.06728 130.642 1.99863 128.588 1.99863V38.1881H138.006V21.057C138.006 21.057 144.52 28.1949 145.866 38.1881H155.071V1.92725H145.866V17.2025ZM16.7108 5.85312C11.6126 9.70762 8.49704 15.418 6.08955 20.6287C3.61125 25.8394 1.20375 33.6197 0 38.1881H9.20511C9.84241 35.6184 11.4002 30.0508 11.6834 29.0515H23.2252V38.1881H32.147V1.35621C23.6501 0.499656 19.1183 4.06862 16.7108 5.85312ZM23.1544 20.6287H15.3655C17.2065 17.7735 20.2512 14.0618 23.1544 12.0632V20.6287Z" fill="#0063C3"/>
</g>
</g>
<defs>
<clipPath id="clip0_23247_16276">
<rect width="155" height="40" fill="white"/>
</clipPath>
</defs>
</svg>
