<svg width="185" height="42" viewBox="0 0 185 42" fill="none" xmlns="http://www.w3.org/2000/svg">
<path opacity="0.5" d="M36.4062 0.904297H40.8508V5.34884" stroke="#00173A" stroke-width="1.80922" stroke-linecap="round"/>
<path d="M36.4062 40.9043H40.8508V36.4598" stroke="#00173A" stroke-width="1.80922" stroke-linecap="round"/>
<path d="M5.34912 0.904297H0.90458V5.34884" stroke="#00173A" stroke-width="1.80922" stroke-linecap="round"/>
<path opacity="0.5" d="M5.34912 40.9043H0.90458V36.4598" stroke="#00173A" stroke-width="1.80922" stroke-linecap="round"/>
<path d="M7.43987 20.9033H4.27148" stroke="#00173A" stroke-width="2.71383" stroke-miterlimit="10" stroke-linecap="round" stroke-linejoin="round"/>
<path d="M34.3712 20.9033H37.5396" stroke="#00173A" stroke-width="2.71383" stroke-miterlimit="10" stroke-linecap="round" stroke-linejoin="round"/>
<path d="M21.0044 7.53753L21.0044 4.36914" stroke="#00173A" stroke-width="2.71383" stroke-miterlimit="10" stroke-linecap="round" stroke-linejoin="round"/>
<path d="M21.0044 34.2701L21.0044 37.4385" stroke="#00173A" stroke-width="2.71383" stroke-miterlimit="10" stroke-linecap="round" stroke-linejoin="round"/>
<path d="M21.0439 8.2168C27.985 8.2168 33.5848 13.9125 33.585 20.9043C33.585 27.8962 27.9851 33.5918 21.0439 33.5918C14.1028 33.5917 8.50293 27.8962 8.50293 20.9043C8.5031 13.9125 14.1029 8.21684 21.0439 8.2168Z" fill="#0A67F2" stroke="#00173A" stroke-width="2.48768"/>
<path d="M21.103 17.3389V24.4677" stroke="white" stroke-width="1.35692" stroke-miterlimit="10" stroke-linecap="round"/>
<path d="M24.6674 20.9033H17.5386" stroke="white" stroke-width="1.35692" stroke-miterlimit="10" stroke-linecap="round"/>
<mask id="mask0_23208_59560" style="mask-type:alpha" maskUnits="userSpaceOnUse" x="7" y="6" width="28" height="29">
<path d="M21.0439 8.2168C27.985 8.2168 33.5848 13.9125 33.585 20.9043C33.585 27.8962 27.9851 33.5918 21.0439 33.5918C14.1028 33.5917 8.50293 27.8962 8.50293 20.9043C8.5031 13.9125 14.1029 8.21684 21.0439 8.2168Z" stroke="#4A5568" stroke-width="2.48768"/>
</mask>
<g mask="url(#mask0_23208_59560)">
<path d="M10.0132 20.9043L6.44873 20.9043" stroke="#00173A" stroke-width="2.71383" stroke-miterlimit="10" stroke-linecap="round" stroke-linejoin="round"/>
<path d="M31.9937 20.9043L35.5581 20.9043" stroke="#00173A" stroke-width="2.71383" stroke-miterlimit="10" stroke-linecap="round" stroke-linejoin="round"/>
<path d="M21.0034 9.91404L21.0034 6.34961" stroke="#00173A" stroke-width="2.71383" stroke-miterlimit="10" stroke-linecap="round" stroke-linejoin="round"/>
<path d="M21.0034 31.8946L21.0034 35.459" stroke="#00173A" stroke-width="2.71383" stroke-miterlimit="10" stroke-linecap="round" stroke-linejoin="round"/>
</g>
<path d="M58.2579 33.009C57.6554 33.009 57.1605 32.8261 56.7731 32.4603C56.3858 32.073 56.1922 31.5996 56.1922 31.0401V12.3194H60.3882V31.0401C60.3882 31.5996 60.1837 32.073 59.7749 32.4603C59.3876 32.8261 58.8819 33.009 58.2579 33.009ZM51.1247 14.127C50.5652 14.127 50.0918 13.9548 49.7045 13.6105C49.3387 13.2662 49.1558 12.8144 49.1558 12.2549C49.1558 11.6954 49.3387 11.2543 49.7045 10.9315C50.0918 10.5872 50.5652 10.4151 51.1247 10.4151H65.4557C66.0151 10.4151 66.4778 10.5872 66.8436 10.9315C67.2309 11.2758 67.4246 11.7277 67.4246 12.2872C67.4246 12.8466 67.2309 13.2985 66.8436 13.6428C66.4778 13.9656 66.0151 14.127 65.4557 14.127H51.1247Z" fill="#0A67F2"/>
<path d="M68.8901 33.009C68.3307 33.009 67.868 32.8261 67.5022 32.4603C67.1364 32.073 66.9535 31.5996 66.9535 31.0401V17.7097C66.9535 17.1502 67.1364 16.6876 67.5022 16.3218C67.868 15.9345 68.3307 15.7408 68.8901 15.7408C69.4496 15.7408 69.9122 15.9345 70.2781 16.3218C70.6439 16.6876 70.8268 17.1502 70.8268 17.7097V20.7438L70.6008 18.5812C70.8375 18.0648 71.1388 17.6129 71.5046 17.2256C71.8919 16.8167 72.3223 16.4832 72.7957 16.225C73.2691 15.9452 73.7747 15.7408 74.3127 15.6117C74.8506 15.4826 75.3886 15.418 75.9265 15.418C76.5721 15.418 77.11 15.6009 77.5404 15.9668C77.9923 16.3326 78.2182 16.7629 78.2182 17.2578C78.2182 17.9679 78.0353 18.4844 77.6695 18.8071C77.3037 19.1084 76.9056 19.259 76.4752 19.259C76.0664 19.259 75.6898 19.1837 75.3455 19.0331C75.0228 18.8824 74.6462 18.8071 74.2158 18.8071C73.8285 18.8071 73.4304 18.904 73.0216 19.0976C72.6343 19.2698 72.2685 19.5495 71.9242 19.9368C71.6014 20.3242 71.3324 20.8083 71.1173 21.3893C70.9236 21.9488 70.8268 22.6158 70.8268 23.3905V31.0401C70.8268 31.5996 70.6439 32.073 70.2781 32.4603C69.9122 32.8261 69.4496 33.009 68.8901 33.009Z" fill="#0A67F2"/>
<path d="M92.1488 15.7408C92.7082 15.7408 93.1709 15.9345 93.5367 16.3218C93.9025 16.6876 94.0854 17.1502 94.0854 17.7097V25.9081C94.0854 28.189 93.4506 29.9965 92.181 31.3306C90.9115 32.6647 89.0824 33.3318 86.6939 33.3318C84.3054 33.3318 82.4764 32.6647 81.2069 31.3306C79.9588 29.9965 79.3348 28.189 79.3348 25.9081V17.7097C79.3348 17.1502 79.5177 16.6876 79.8835 16.3218C80.2493 15.9345 80.7119 15.7408 81.2714 15.7408C81.8309 15.7408 82.2935 15.9345 82.6593 16.3218C83.0251 16.6876 83.208 17.1502 83.208 17.7097V25.9081C83.208 27.2207 83.4985 28.1997 84.0795 28.8453C84.6605 29.4693 85.532 29.7813 86.6939 29.7813C87.8774 29.7813 88.7597 29.4693 89.3407 28.8453C89.9216 28.1997 90.2121 27.2207 90.2121 25.9081V17.7097C90.2121 17.1502 90.395 16.6876 90.7609 16.3218C91.1267 15.9345 91.5893 15.7408 92.1488 15.7408Z" fill="#0A67F2"/>
<path d="M104.799 33.3318C102.97 33.3318 101.377 32.9552 100.022 32.2021C98.6875 31.4275 97.6546 30.3838 96.923 29.0712C96.2129 27.7586 95.8578 26.2739 95.8578 24.617C95.8578 22.6804 96.2452 21.0342 97.0198 19.6786C97.816 18.3015 98.8489 17.2471 100.118 16.5155C101.388 15.7839 102.733 15.418 104.153 15.418C105.25 15.418 106.283 15.644 107.252 16.0959C108.241 16.5477 109.113 17.1718 109.866 17.9679C110.619 18.7426 111.211 19.6463 111.641 20.6792C112.093 21.7121 112.319 22.8095 112.319 23.9715C112.298 24.4879 112.093 24.9075 111.706 25.2303C111.319 25.553 110.867 25.7144 110.35 25.7144H98.0204L97.0521 22.4867H108.898L108.188 23.1323V22.2608C108.145 21.6368 107.919 21.0773 107.51 20.5824C107.123 20.0875 106.628 19.7001 106.025 19.4204C105.444 19.1191 104.82 18.9685 104.153 18.9685C103.507 18.9685 102.905 19.0546 102.346 19.2267C101.786 19.3989 101.302 19.6894 100.893 20.0982C100.484 20.5071 100.161 21.0558 99.9248 21.7443C99.6881 22.4329 99.5697 23.3044 99.5697 24.3588C99.5697 25.5208 99.8064 26.5106 100.28 27.3283C100.775 28.1244 101.399 28.7377 102.152 29.1681C102.927 29.5769 103.744 29.7813 104.605 29.7813C105.401 29.7813 106.036 29.7168 106.509 29.5877C106.983 29.4586 107.359 29.3079 107.639 29.1358C107.94 28.9421 108.209 28.7807 108.446 28.6516C108.833 28.458 109.199 28.3611 109.543 28.3611C110.017 28.3611 110.404 28.5225 110.705 28.8453C111.028 29.1681 111.189 29.5446 111.189 29.975C111.189 30.556 110.888 31.0832 110.286 31.5566C109.726 32.03 108.941 32.4496 107.929 32.8154C106.918 33.1597 105.874 33.3318 104.799 33.3318Z" fill="#0A67F2"/>
<path d="M118.285 31.0401C118.285 31.5996 118.092 32.073 117.704 32.4603C117.339 32.8261 116.876 33.009 116.316 33.009C115.778 33.009 115.327 32.8261 114.961 32.4603C114.595 32.073 114.412 31.5996 114.412 31.0401V11.0929C114.412 10.5335 114.595 10.0708 114.961 9.70501C115.348 9.31769 115.822 9.12402 116.381 9.12402C116.94 9.12402 117.392 9.31769 117.737 9.70501C118.102 10.0708 118.285 10.5335 118.285 11.0929V31.0401Z" fill="#0A67F2"/>
<path d="M133.516 15.7408C134.076 15.7408 134.538 15.9345 134.904 16.3218C135.27 16.6876 135.453 17.1502 135.453 17.7097V31.4275C135.453 33.4071 135.076 34.9779 134.323 36.1399C133.592 37.3234 132.602 38.1734 131.354 38.6898C130.106 39.2062 128.707 39.4644 127.158 39.4644C126.469 39.4644 125.738 39.4106 124.963 39.303C124.188 39.1955 123.553 39.0341 123.059 38.8189C122.413 38.5392 121.961 38.1841 121.703 37.7537C121.466 37.3449 121.423 36.9038 121.574 36.4304C121.767 35.8064 122.079 35.376 122.51 35.1393C122.94 34.9241 123.392 34.9026 123.865 35.0748C124.21 35.1823 124.662 35.3437 125.221 35.5589C125.781 35.7956 126.426 35.914 127.158 35.914C128.148 35.914 128.965 35.7741 129.611 35.4944C130.278 35.2361 130.773 34.7843 131.096 34.1387C131.44 33.5147 131.612 32.654 131.612 31.5566V29.394L132.29 30.1686C131.924 30.8787 131.461 31.4705 130.902 31.9439C130.364 32.3958 129.718 32.7401 128.965 32.9767C128.212 33.2134 127.351 33.3318 126.383 33.3318C125.243 33.3318 124.242 33.0736 123.381 32.5571C122.542 32.0192 121.886 31.2876 121.412 30.3623C120.939 29.4155 120.702 28.3396 120.702 27.1346V17.7097C120.702 17.1502 120.885 16.6876 121.251 16.3218C121.617 15.9345 122.079 15.7408 122.639 15.7408C123.198 15.7408 123.661 15.9345 124.027 16.3218C124.393 16.6876 124.576 17.1502 124.576 17.7097V25.9726C124.576 27.3713 124.877 28.3611 125.479 28.9421C126.103 29.5016 126.964 29.7813 128.061 29.7813C128.815 29.7813 129.449 29.6415 129.966 29.3617C130.482 29.0605 130.88 28.6301 131.16 28.0706C131.44 27.4897 131.58 26.7903 131.58 25.9726V17.7097C131.58 17.1502 131.763 16.6876 132.128 16.3218C132.494 15.9345 132.957 15.7408 133.516 15.7408Z" fill="#0A67F2"/>
<path d="M145.617 33.3318C144.111 33.3318 142.756 33.1489 141.551 32.7831C140.346 32.3958 139.194 31.7287 138.097 30.7819C137.817 30.5452 137.602 30.2762 137.451 29.975C137.301 29.6737 137.225 29.3725 137.225 29.0712C137.225 28.5763 137.398 28.146 137.742 27.7801C138.108 27.3928 138.56 27.1992 139.097 27.1992C139.506 27.1992 139.872 27.3283 140.195 27.5865C141.013 28.2535 141.819 28.7592 142.616 29.1035C143.433 29.4478 144.434 29.6199 145.617 29.6199C146.414 29.6199 147.145 29.5016 147.812 29.2649C148.479 29.0067 149.017 28.6731 149.426 28.2643C149.835 27.8339 150.039 27.3498 150.039 26.8118C150.039 26.1663 149.846 25.6176 149.458 25.1657C149.071 24.7138 148.479 24.3373 147.683 24.036C146.887 23.7132 145.876 23.4658 144.649 23.2936C143.487 23.1215 142.465 22.8633 141.583 22.519C140.701 22.1532 139.958 21.7013 139.356 21.1634C138.775 20.6039 138.334 19.9583 138.032 19.2267C137.731 18.4736 137.58 17.6344 137.58 16.7091C137.58 15.3105 137.935 14.1162 138.646 13.1264C139.377 12.1365 140.356 11.3834 141.583 10.867C142.809 10.3505 144.165 10.0923 145.65 10.0923C147.048 10.0923 148.339 10.3075 149.523 10.7379C150.728 11.1467 151.707 11.6739 152.46 12.3194C153.084 12.8144 153.396 13.3846 153.396 14.0301C153.396 14.5035 153.213 14.9339 152.847 15.3212C152.482 15.7085 152.051 15.9022 151.556 15.9022C151.234 15.9022 150.943 15.8054 150.685 15.6117C150.341 15.3105 149.878 15.0307 149.297 14.7725C148.716 14.4928 148.103 14.2668 147.457 14.0947C146.812 13.901 146.209 13.8042 145.65 13.8042C144.724 13.8042 143.939 13.9225 143.293 14.1592C142.669 14.3959 142.196 14.7187 141.873 15.1276C141.551 15.5364 141.389 16.0098 141.389 16.5477C141.389 17.1933 141.572 17.7312 141.938 18.1616C142.325 18.5704 142.874 18.904 143.584 19.1622C144.294 19.3989 145.144 19.6141 146.134 19.8077C147.425 20.0444 148.555 20.3242 149.523 20.6469C150.513 20.9697 151.33 21.3893 151.976 21.9057C152.622 22.4006 153.106 23.0354 153.428 23.8101C153.751 24.5632 153.913 25.4885 153.913 26.5859C153.913 27.9846 153.525 29.1896 152.751 30.2009C151.976 31.2123 150.954 31.9869 149.684 32.5249C148.436 33.0628 147.081 33.3318 145.617 33.3318Z" fill="#00173A"/>
<path d="M163.811 33.3318C161.982 33.3318 160.39 32.9552 159.034 32.2021C157.7 31.4275 156.667 30.3838 155.936 29.0712C155.226 27.7586 154.871 26.2739 154.871 24.617C154.871 22.6804 155.258 21.0342 156.033 19.6786C156.829 18.3015 157.862 17.2471 159.131 16.5155C160.401 15.7839 161.746 15.418 163.166 15.418C164.263 15.418 165.296 15.644 166.264 16.0959C167.254 16.5477 168.126 17.1718 168.879 17.9679C169.632 18.7426 170.224 19.6463 170.654 20.6792C171.106 21.7121 171.332 22.8095 171.332 23.9715C171.31 24.4879 171.106 24.9075 170.719 25.2303C170.331 25.553 169.879 25.7144 169.363 25.7144H157.033L156.065 22.4867H167.911L167.2 23.1323V22.2608C167.157 21.6368 166.931 21.0773 166.523 20.5824C166.135 20.0875 165.64 19.7001 165.038 19.4204C164.457 19.1191 163.833 18.9685 163.166 18.9685C162.52 18.9685 161.918 19.0546 161.358 19.2267C160.799 19.3989 160.315 19.6894 159.906 20.0982C159.497 20.5071 159.174 21.0558 158.938 21.7443C158.701 22.4329 158.582 23.3044 158.582 24.3588C158.582 25.5208 158.819 26.5106 159.293 27.3283C159.787 28.1244 160.411 28.7377 161.165 29.1681C161.939 29.5769 162.757 29.7813 163.618 29.7813C164.414 29.7813 165.049 29.7168 165.522 29.5877C165.995 29.4586 166.372 29.3079 166.652 29.1358C166.953 28.9421 167.222 28.7807 167.459 28.6516C167.846 28.458 168.212 28.3611 168.556 28.3611C169.029 28.3611 169.417 28.5225 169.718 28.8453C170.041 29.1681 170.202 29.5446 170.202 29.975C170.202 30.556 169.901 31.0832 169.298 31.5566C168.739 32.03 167.954 32.4496 166.942 32.8154C165.931 33.1597 164.887 33.3318 163.811 33.3318Z" fill="#00173A"/>
<path d="M177.298 31.0401C177.298 31.5996 177.104 32.073 176.717 32.4603C176.351 32.8261 175.889 33.009 175.329 33.009C174.791 33.009 174.339 32.8261 173.974 32.4603C173.608 32.073 173.425 31.5996 173.425 31.0401V11.0929C173.425 10.5335 173.608 10.0708 173.974 9.70501C174.361 9.31769 174.834 9.12402 175.394 9.12402C175.953 9.12402 176.405 9.31769 176.749 9.70501C177.115 10.0708 177.298 10.5335 177.298 11.0929V31.0401Z" fill="#00173A"/>
<path d="M184.384 31.0401C184.384 31.5996 184.19 32.073 183.803 32.4603C183.437 32.8261 182.974 33.009 182.415 33.009C181.877 33.009 181.425 32.8261 181.059 32.4603C180.694 32.073 180.511 31.5996 180.511 31.0401V11.0929C180.511 10.5335 180.694 10.0708 181.059 9.70501C181.447 9.31769 181.92 9.12402 182.48 9.12402C183.039 9.12402 183.491 9.31769 183.835 9.70501C184.201 10.0708 184.384 10.5335 184.384 11.0929V31.0401Z" fill="#00173A"/>
</svg>
