<svg width="185" height="42" viewBox="0 0 185 42" fill="none" xmlns="http://www.w3.org/2000/svg">
<path opacity="0.5" d="M36.4062 0.904663H40.8508V5.3492" stroke="white" stroke-width="1.80922" stroke-linecap="round"/>
<path d="M36.4062 40.9047H40.8508V36.4601" stroke="white" stroke-width="1.80922" stroke-linecap="round"/>
<path d="M5.34912 0.904663H0.90458V5.3492" stroke="white" stroke-width="1.80922" stroke-linecap="round"/>
<path opacity="0.5" d="M5.34912 40.9047H0.90458V36.4601" stroke="white" stroke-width="1.80922" stroke-linecap="round"/>
<path d="M7.43987 20.9037H4.27148" stroke="white" stroke-width="2.71383" stroke-miterlimit="10" stroke-linecap="round" stroke-linejoin="round"/>
<path d="M34.3712 20.9037H37.5396" stroke="white" stroke-width="2.71383" stroke-miterlimit="10" stroke-linecap="round" stroke-linejoin="round"/>
<path d="M21.0044 7.53814L21.0044 4.36975" stroke="white" stroke-width="2.71383" stroke-miterlimit="10" stroke-linecap="round" stroke-linejoin="round"/>
<path d="M21.0044 34.2705L21.0044 37.4388" stroke="white" stroke-width="2.71383" stroke-miterlimit="10" stroke-linecap="round" stroke-linejoin="round"/>
<path d="M21.0439 8.21704C27.985 8.21704 33.5848 13.9127 33.585 20.9045C33.585 27.8965 27.9851 33.592 21.0439 33.592C14.1028 33.592 8.50293 27.8965 8.50293 20.9045C8.5031 13.9128 14.1029 8.21709 21.0439 8.21704Z" fill="#0A67F2" stroke="white" stroke-width="2.48768"/>
<path d="M21.103 17.3392V24.4681" stroke="white" stroke-width="1.35692" stroke-miterlimit="10" stroke-linecap="round"/>
<path d="M24.6674 20.9036H17.5386" stroke="white" stroke-width="1.35692" stroke-miterlimit="10" stroke-linecap="round"/>
<mask id="mask0_23349_59154" style="mask-type:alpha" maskUnits="userSpaceOnUse" x="7" y="6" width="28" height="29">
<path d="M21.0439 8.21704C27.985 8.21704 33.5848 13.9127 33.585 20.9045C33.585 27.8965 27.9851 33.592 21.0439 33.592C14.1028 33.592 8.50293 27.8965 8.50293 20.9045C8.5031 13.9128 14.1029 8.21709 21.0439 8.21704Z" stroke="#4A5568" stroke-width="2.48768"/>
</mask>
<g mask="url(#mask0_23349_59154)">
<path d="M10.0132 20.9047L6.44873 20.9047" stroke="white" stroke-width="2.71383" stroke-miterlimit="10" stroke-linecap="round" stroke-linejoin="round"/>
<path d="M31.9937 20.9047L35.5581 20.9047" stroke="white" stroke-width="2.71383" stroke-miterlimit="10" stroke-linecap="round" stroke-linejoin="round"/>
<path d="M21.0034 9.91429L21.0034 6.34985" stroke="white" stroke-width="2.71383" stroke-miterlimit="10" stroke-linecap="round" stroke-linejoin="round"/>
<path d="M21.0034 31.895L21.0034 35.4595" stroke="white" stroke-width="2.71383" stroke-miterlimit="10" stroke-linecap="round" stroke-linejoin="round"/>
</g>
<path d="M58.2579 33.0091C57.6554 33.0091 57.1605 32.8262 56.7731 32.4604C56.3858 32.0731 56.1922 31.5997 56.1922 31.0403V12.3196H60.3882V31.0403C60.3882 31.5997 60.1837 32.0731 59.7749 32.4604C59.3876 32.8262 58.8819 33.0091 58.2579 33.0091ZM51.1247 14.1271C50.5652 14.1271 50.0918 13.9549 49.7045 13.6107C49.3387 13.2664 49.1558 12.8145 49.1558 12.255C49.1558 11.6955 49.3387 11.2544 49.7045 10.9317C50.0918 10.5874 50.5652 10.4152 51.1247 10.4152H65.4557C66.0151 10.4152 66.4778 10.5874 66.8436 10.9317C67.2309 11.2759 67.4246 11.7278 67.4246 12.2873C67.4246 12.8468 67.2309 13.2986 66.8436 13.6429C66.4778 13.9657 66.0151 14.1271 65.4557 14.1271H51.1247Z" fill="#0A67F2"/>
<path d="M68.8901 33.0091C68.3307 33.0091 67.868 32.8262 67.5022 32.4604C67.1364 32.0731 66.9535 31.5997 66.9535 31.0403V17.7098C66.9535 17.1504 67.1364 16.6877 67.5022 16.3219C67.868 15.9346 68.3307 15.7409 68.8901 15.7409C69.4496 15.7409 69.9122 15.9346 70.2781 16.3219C70.6439 16.6877 70.8268 17.1504 70.8268 17.7098V20.7439L70.6008 18.5813C70.8375 18.0649 71.1388 17.613 71.5046 17.2257C71.8919 16.8168 72.3223 16.4833 72.7957 16.2251C73.2691 15.9454 73.7747 15.7409 74.3127 15.6118C74.8506 15.4827 75.3886 15.4182 75.9265 15.4182C76.5721 15.4182 77.11 15.6011 77.5404 15.9669C77.9923 16.3327 78.2182 16.763 78.2182 17.258C78.2182 17.9681 78.0353 18.4845 77.6695 18.8073C77.3037 19.1085 76.9056 19.2591 76.4752 19.2591C76.0664 19.2591 75.6898 19.1838 75.3455 19.0332C75.0228 18.8826 74.6462 18.8073 74.2158 18.8073C73.8285 18.8073 73.4304 18.9041 73.0216 19.0977C72.6343 19.2699 72.2685 19.5496 71.9242 19.937C71.6014 20.3243 71.3324 20.8084 71.1173 21.3894C70.9236 21.9489 70.8268 22.6159 70.8268 23.3906V31.0403C70.8268 31.5997 70.6439 32.0731 70.2781 32.4604C69.9122 32.8262 69.4496 33.0091 68.8901 33.0091Z" fill="#0A67F2"/>
<path d="M92.1488 15.7409C92.7082 15.7409 93.1709 15.9346 93.5367 16.3219C93.9025 16.6877 94.0854 17.1504 94.0854 17.7098V25.9082C94.0854 28.1891 93.4506 29.9966 92.181 31.3307C90.9115 32.6649 89.0824 33.3319 86.6939 33.3319C84.3054 33.3319 82.4764 32.6649 81.2069 31.3307C79.9588 29.9966 79.3348 28.1891 79.3348 25.9082V17.7098C79.3348 17.1504 79.5177 16.6877 79.8835 16.3219C80.2493 15.9346 80.7119 15.7409 81.2714 15.7409C81.8309 15.7409 82.2935 15.9346 82.6593 16.3219C83.0251 16.6877 83.208 17.1504 83.208 17.7098V25.9082C83.208 27.2208 83.4985 28.1999 84.0795 28.8454C84.6605 29.4694 85.532 29.7814 86.6939 29.7814C87.8774 29.7814 88.7597 29.4694 89.3407 28.8454C89.9216 28.1999 90.2121 27.2208 90.2121 25.9082V17.7098C90.2121 17.1504 90.395 16.6877 90.7609 16.3219C91.1267 15.9346 91.5893 15.7409 92.1488 15.7409Z" fill="#0A67F2"/>
<path d="M104.799 33.3319C102.97 33.3319 101.377 32.9554 100.022 32.2022C98.6875 31.4276 97.6546 30.384 96.923 29.0714C96.2129 27.7588 95.8578 26.274 95.8578 24.6171C95.8578 22.6805 96.2452 21.0344 97.0198 19.6787C97.816 18.3016 98.8489 17.2472 100.118 16.5156C101.388 15.784 102.733 15.4182 104.153 15.4182C105.25 15.4182 106.283 15.6441 107.252 16.096C108.241 16.5479 109.113 17.1719 109.866 17.9681C110.619 18.7427 111.211 19.6465 111.641 20.6793C112.093 21.7122 112.319 22.8096 112.319 23.9716C112.298 24.488 112.093 24.9076 111.706 25.2304C111.319 25.5532 110.867 25.7145 110.35 25.7145H98.0204L97.0521 22.4868H108.898L108.188 23.1324V22.2609C108.145 21.6369 107.919 21.0774 107.51 20.5825C107.123 20.0876 106.628 19.7003 106.025 19.4205C105.444 19.1193 104.82 18.9686 104.153 18.9686C103.507 18.9686 102.905 19.0547 102.346 19.2269C101.786 19.399 101.302 19.6895 100.893 20.0983C100.484 20.5072 100.161 21.0559 99.9248 21.7445C99.6881 22.433 99.5697 23.3045 99.5697 24.3589C99.5697 25.5209 99.8064 26.5107 100.28 27.3284C100.775 28.1246 101.399 28.7378 102.152 29.1682C102.927 29.577 103.744 29.7814 104.605 29.7814C105.401 29.7814 106.036 29.7169 106.509 29.5878C106.983 29.4587 107.359 29.308 107.639 29.1359C107.94 28.9422 108.209 28.7809 108.446 28.6518C108.833 28.4581 109.199 28.3613 109.543 28.3613C110.017 28.3613 110.404 28.5226 110.705 28.8454C111.028 29.1682 111.189 29.5447 111.189 29.9751C111.189 30.5561 110.888 31.0833 110.286 31.5567C109.726 32.0301 108.941 32.4497 107.929 32.8155C106.918 33.1598 105.874 33.3319 104.799 33.3319Z" fill="#0A67F2"/>
<path d="M118.285 31.0403C118.285 31.5997 118.092 32.0731 117.704 32.4604C117.339 32.8262 116.876 33.0091 116.316 33.0091C115.778 33.0091 115.327 32.8262 114.961 32.4604C114.595 32.0731 114.412 31.5997 114.412 31.0403V11.093C114.412 10.5336 114.595 10.0709 114.961 9.70513C115.348 9.31781 115.822 9.12415 116.381 9.12415C116.94 9.12415 117.392 9.31781 117.737 9.70513C118.102 10.0709 118.285 10.5336 118.285 11.093V31.0403Z" fill="#0A67F2"/>
<path d="M133.516 15.7409C134.076 15.7409 134.538 15.9346 134.904 16.3219C135.27 16.6877 135.453 17.1504 135.453 17.7098V31.4276C135.453 33.4072 135.076 34.978 134.323 36.14C133.592 37.3235 132.602 38.1735 131.354 38.6899C130.106 39.2063 128.707 39.4646 127.158 39.4646C126.469 39.4646 125.738 39.4108 124.963 39.3032C124.188 39.1956 123.553 39.0342 123.059 38.819C122.413 38.5393 121.961 38.1842 121.703 37.7539C121.466 37.345 121.423 36.9039 121.574 36.4305C121.767 35.8065 122.079 35.3761 122.51 35.1394C122.94 34.9243 123.392 34.9027 123.865 35.0749C124.21 35.1825 124.662 35.3439 125.221 35.559C125.781 35.7957 126.426 35.9141 127.158 35.9141C128.148 35.9141 128.965 35.7742 129.611 35.4945C130.278 35.2363 130.773 34.7844 131.096 34.1388C131.44 33.5148 131.612 32.6541 131.612 31.5567V29.3941L132.29 30.1688C131.924 30.8789 131.461 31.4706 130.902 31.944C130.364 32.3959 129.718 32.7402 128.965 32.9769C128.212 33.2136 127.351 33.3319 126.383 33.3319C125.243 33.3319 124.242 33.0737 123.381 32.5573C122.542 32.0193 121.886 31.2877 121.412 30.3624C120.939 29.4156 120.702 28.3397 120.702 27.1347V17.7098C120.702 17.1504 120.885 16.6877 121.251 16.3219C121.617 15.9346 122.079 15.7409 122.639 15.7409C123.198 15.7409 123.661 15.9346 124.027 16.3219C124.393 16.6877 124.576 17.1504 124.576 17.7098V25.9728C124.576 27.3714 124.877 28.3613 125.479 28.9422C126.103 29.5017 126.964 29.7814 128.061 29.7814C128.815 29.7814 129.449 29.6416 129.966 29.3618C130.482 29.0606 130.88 28.6302 131.16 28.0708C131.44 27.4898 131.58 26.7904 131.58 25.9728V17.7098C131.58 17.1504 131.763 16.6877 132.128 16.3219C132.494 15.9346 132.957 15.7409 133.516 15.7409Z" fill="#0A67F2"/>
<path d="M145.617 33.3319C144.111 33.3319 142.756 33.149 141.551 32.7832C140.346 32.3959 139.194 31.7288 138.097 30.782C137.817 30.5453 137.602 30.2764 137.451 29.9751C137.301 29.6739 137.225 29.3726 137.225 29.0714C137.225 28.5764 137.398 28.1461 137.742 27.7803C138.108 27.3929 138.56 27.1993 139.097 27.1993C139.506 27.1993 139.872 27.3284 140.195 27.5866C141.013 28.2537 141.819 28.7593 142.616 29.1036C143.433 29.4479 144.434 29.6201 145.617 29.6201C146.414 29.6201 147.145 29.5017 147.812 29.265C148.479 29.0068 149.017 28.6733 149.426 28.2644C149.835 27.8341 150.039 27.3499 150.039 26.812C150.039 26.1664 149.846 25.6177 149.458 25.1658C149.071 24.714 148.479 24.3374 147.683 24.0361C146.887 23.7134 145.876 23.4659 144.649 23.2938C143.487 23.1216 142.465 22.8634 141.583 22.5191C140.701 22.1533 139.958 21.7014 139.356 21.1635C138.775 20.604 138.334 19.9585 138.032 19.2269C137.731 18.4737 137.58 17.6345 137.58 16.7092C137.58 15.3106 137.935 14.1163 138.646 13.1265C139.377 12.1367 140.356 11.3835 141.583 10.8671C142.809 10.3507 144.165 10.0925 145.65 10.0925C147.048 10.0925 148.339 10.3076 149.523 10.738C150.728 11.1468 151.707 11.674 152.46 12.3196C153.084 12.8145 153.396 13.3847 153.396 14.0303C153.396 14.5037 153.213 14.934 152.847 15.3213C152.482 15.7087 152.051 15.9023 151.556 15.9023C151.234 15.9023 150.943 15.8055 150.685 15.6118C150.341 15.3106 149.878 15.0308 149.297 14.7726C148.716 14.4929 148.103 14.267 147.457 14.0948C146.812 13.9011 146.209 13.8043 145.65 13.8043C144.724 13.8043 143.939 13.9227 143.293 14.1594C142.669 14.3961 142.196 14.7188 141.873 15.1277C141.551 15.5365 141.389 16.0099 141.389 16.5479C141.389 17.1934 141.572 17.7314 141.938 18.1617C142.325 18.5706 142.874 18.9041 143.584 19.1623C144.294 19.399 145.144 19.6142 146.134 19.8078C147.425 20.0445 148.555 20.3243 149.523 20.647C150.513 20.9698 151.33 21.3894 151.976 21.9059C152.622 22.4008 153.106 23.0355 153.428 23.8102C153.751 24.5633 153.913 25.4886 153.913 26.586C153.913 27.9847 153.525 29.1897 152.751 30.201C151.976 31.2124 150.954 31.987 149.684 32.525C148.436 33.0629 147.081 33.3319 145.617 33.3319Z" fill="white"/>
<path d="M163.811 33.3319C161.982 33.3319 160.39 32.9554 159.034 32.2022C157.7 31.4276 156.667 30.384 155.936 29.0714C155.226 27.7588 154.871 26.274 154.871 24.6171C154.871 22.6805 155.258 21.0344 156.033 19.6787C156.829 18.3016 157.862 17.2472 159.131 16.5156C160.401 15.784 161.746 15.4182 163.166 15.4182C164.263 15.4182 165.296 15.6441 166.264 16.096C167.254 16.5479 168.126 17.1719 168.879 17.9681C169.632 18.7427 170.224 19.6465 170.654 20.6793C171.106 21.7122 171.332 22.8096 171.332 23.9716C171.31 24.488 171.106 24.9076 170.719 25.2304C170.331 25.5532 169.879 25.7145 169.363 25.7145H157.033L156.065 22.4868H167.911L167.2 23.1324V22.2609C167.157 21.6369 166.931 21.0774 166.523 20.5825C166.135 20.0876 165.64 19.7003 165.038 19.4205C164.457 19.1193 163.833 18.9686 163.166 18.9686C162.52 18.9686 161.918 19.0547 161.358 19.2269C160.799 19.399 160.315 19.6895 159.906 20.0983C159.497 20.5072 159.174 21.0559 158.938 21.7445C158.701 22.433 158.582 23.3045 158.582 24.3589C158.582 25.5209 158.819 26.5107 159.293 27.3284C159.787 28.1246 160.411 28.7378 161.165 29.1682C161.939 29.577 162.757 29.7814 163.618 29.7814C164.414 29.7814 165.049 29.7169 165.522 29.5878C165.995 29.4587 166.372 29.308 166.652 29.1359C166.953 28.9422 167.222 28.7809 167.459 28.6518C167.846 28.4581 168.212 28.3613 168.556 28.3613C169.029 28.3613 169.417 28.5226 169.718 28.8454C170.041 29.1682 170.202 29.5447 170.202 29.9751C170.202 30.5561 169.901 31.0833 169.298 31.5567C168.739 32.0301 167.954 32.4497 166.942 32.8155C165.931 33.1598 164.887 33.3319 163.811 33.3319Z" fill="white"/>
<path d="M177.298 31.0403C177.298 31.5997 177.104 32.0731 176.717 32.4604C176.351 32.8262 175.889 33.0091 175.329 33.0091C174.791 33.0091 174.339 32.8262 173.974 32.4604C173.608 32.0731 173.425 31.5997 173.425 31.0403V11.093C173.425 10.5336 173.608 10.0709 173.974 9.70513C174.361 9.31781 174.834 9.12415 175.394 9.12415C175.953 9.12415 176.405 9.31781 176.749 9.70513C177.115 10.0709 177.298 10.5336 177.298 11.093V31.0403Z" fill="white"/>
<path d="M184.384 31.0403C184.384 31.5997 184.19 32.0731 183.803 32.4604C183.437 32.8262 182.974 33.0091 182.415 33.0091C181.877 33.0091 181.425 32.8262 181.059 32.4604C180.694 32.0731 180.511 31.5997 180.511 31.0403V11.093C180.511 10.5336 180.694 10.0709 181.059 9.70513C181.447 9.31781 181.92 9.12415 182.48 9.12415C183.039 9.12415 183.491 9.31781 183.835 9.70513C184.201 10.0709 184.384 10.5336 184.384 11.093V31.0403Z" fill="white"/>
</svg>
