<svg width="32" height="32" viewBox="0 0 32 32" fill="none" xmlns="http://www.w3.org/2000/svg">
<g clip-path="url(#clip0_22913_49317)">
<path d="M5.34812 2.67277C5.01329 2.72771 4.50436 2.91999 4.06909 3.15347C3.26551 3.57924 2.53559 4.45136 2.18737 5.39217L2.03335 5.81793L2.01326 15.4594C1.99317 26.0967 1.97308 25.4443 2.41505 26.3714C2.67621 26.9139 3.39274 27.7105 3.89498 28.0195C4.09587 28.1431 4.48427 28.3285 4.75883 28.4315C5.24097 28.6032 5.28115 28.6101 7.37716 28.6375C8.93075 28.6581 9.49995 28.6444 9.49995 28.5826C9.49995 28.5414 8.72985 26.9619 7.79234 25.0803C6.84813 23.1919 6.03786 21.5232 5.98429 21.3652C5.85705 20.9944 5.85705 20.1635 5.98429 19.7858C6.32581 18.7831 7.27671 18.069 8.29458 18.0484C8.66958 18.0415 8.79012 18.0758 9.14504 18.275C9.37941 18.3986 9.70084 18.6595 9.86826 18.8381C10.0357 19.0235 10.1897 19.1746 10.2031 19.1746C10.2232 19.1746 10.2366 17.9591 10.2433 16.4758C10.2433 14.9993 10.27 13.3444 10.2968 12.8156C10.3437 11.9572 10.3705 11.7992 10.5312 11.4627C10.7522 10.9889 11.1942 10.5769 11.7031 10.3709C11.991 10.2541 12.2254 10.2198 12.7009 10.2129L13.317 10.2061L13.4576 9.9245C13.9129 8.97683 15.0112 8.41372 16.029 8.606C16.4375 8.68154 16.8393 8.86009 17.134 9.09357C17.3683 9.27899 17.7233 9.80776 17.7701 10.0481C17.8103 10.2129 17.8371 10.2473 17.9509 10.2061C18.0313 10.1855 18.3058 10.1649 18.5737 10.1649C19.9867 10.1649 20.951 11.3803 20.951 13.1589V13.6534L21.2925 13.6122C21.7144 13.5572 22.2903 13.6465 22.6117 13.8113C22.913 13.9761 23.3751 14.4568 23.5291 14.7796C23.8238 15.377 23.8305 15.4182 23.8305 21.4751C23.8305 27.065 23.8238 27.2572 23.6898 27.7929C23.6162 28.095 23.5358 28.4178 23.5157 28.5071L23.4755 28.6719L24.3729 28.6307C24.9153 28.6101 25.4175 28.5483 25.6385 28.4796C26.7234 28.1362 27.6341 27.3602 28.1162 26.3714C28.5917 25.3756 28.585 25.4924 28.585 19.4081V13.983L28.3037 13.8388L28.0158 13.6946L27.1519 14.1547C26.355 14.5736 26.2546 14.6079 25.8796 14.601C25.2635 14.5942 24.7546 14.2714 24.48 13.7152C24.2858 13.3237 24.2791 13.0353 24.4398 12.0671L24.5939 11.1331L23.9108 10.4327C23.1742 9.67041 23.0269 9.40946 23.0269 8.87382C23.0269 8.44806 23.1675 8.09097 23.4488 7.78881C23.7836 7.43172 24.0983 7.30124 24.9153 7.1845C25.3305 7.12956 25.7256 7.06089 25.7925 7.03342C25.8595 7.00595 26.114 6.58706 26.3617 6.09262C26.7568 5.30976 26.8506 5.17242 27.1251 4.98014C27.2992 4.8634 27.5671 4.74665 27.7144 4.71918C27.8618 4.69172 27.9823 4.65738 27.9823 4.63678C27.9823 4.53377 27.5336 3.97066 27.239 3.69598C26.7635 3.25648 26.1608 2.92685 25.5381 2.76204C25.0224 2.6247 24.8082 2.6247 15.2656 2.63157C9.90174 2.63843 5.44187 2.65903 5.34812 2.67277Z" fill="white"/>
<path d="M27.7277 5.80348C27.6205 5.85155 27.4062 6.20178 27.0647 6.9091C26.7902 7.47907 26.5558 7.95291 26.5491 7.95977C26.5424 7.96664 26.0402 8.04905 25.4241 8.14519C24.808 8.23446 24.2656 8.33747 24.2254 8.35807C24.1852 8.38554 24.1116 8.50228 24.0647 8.61902C23.9174 8.98985 24.0312 9.189 24.8817 10.0131L25.6718 10.7753L25.4776 11.9221C25.2701 13.1788 25.2901 13.3848 25.6116 13.5359C25.8995 13.6664 26.0468 13.6183 27.0446 13.0758L28.0089 12.5402L28.933 13.0483C30.0647 13.6664 30.2456 13.7076 30.5268 13.4192C30.634 13.3024 30.7277 13.1514 30.7277 13.0827C30.721 13.014 30.6406 12.4715 30.5335 11.8741L30.3527 10.789L31.1764 9.97186C31.9532 9.19587 32 9.13406 32 8.87998C32 8.39241 31.9063 8.33747 30.6273 8.14519C30.0045 8.04905 29.4822 7.95977 29.4822 7.95977C29.4755 7.95291 29.2411 7.47907 28.9665 6.9091C28.3772 5.71421 28.2098 5.56313 27.7277 5.80348Z" fill="white"/>
<path d="M15.1921 9.63607C14.8773 9.73221 14.5492 10 14.4019 10.2679C14.2947 10.467 14.288 10.8996 14.2546 15.5212L14.2211 20.5617L14.0269 20.7334C13.8059 20.9257 13.5581 20.9051 13.3706 20.6716C13.2568 20.5411 13.2501 20.2115 13.2501 15.9127V11.2911L13.0425 11.2499C12.5336 11.1468 12.0313 11.2499 11.7099 11.5314C11.288 11.8954 11.3014 11.6756 11.2344 16.7505C11.1742 21.7292 11.1809 21.6399 10.8393 21.7498C10.5246 21.8528 10.3572 21.6811 9.95541 20.8364C9.52684 19.9231 8.98442 19.2364 8.58932 19.1059C8.07369 18.9274 7.2902 19.3256 7.02234 19.9025C6.90181 20.1497 6.88172 20.3008 6.90181 20.6716C6.9219 21.0562 6.97547 21.2347 7.25672 21.7841C7.43753 22.1412 8.35495 23.9953 9.29915 25.9044L11.0202 29.3723L11.6161 30.0178C12.9889 31.4943 14.4756 32.0917 16.5649 31.9887C18.5939 31.8994 20.1877 31.2402 21.3997 29.9904C21.9288 29.441 22.056 29.2693 22.3573 28.6307C22.6587 27.992 22.7056 27.8341 22.7591 27.2641C22.8529 26.3302 22.8462 15.6586 22.7524 15.4182C22.5314 14.807 21.7613 14.4362 21.1587 14.6491L20.9511 14.7246V17.9385C20.9511 21.0836 20.9511 21.1523 20.8104 21.3309C20.6296 21.5643 20.2948 21.5781 20.0939 21.3515L19.9466 21.1935V16.8947C19.9466 12.2387 19.9466 12.2113 19.5783 11.7168C19.2368 11.2567 18.7278 11.0644 18.2122 11.2087L17.9443 11.2842L17.9242 16.0569L17.9042 20.8364L17.7167 21.0012C17.4823 21.2073 17.3216 21.2073 17.0872 21.0012L16.8997 20.8364V15.6242L16.893 10.4121L16.739 10.158C16.4711 9.71848 15.7412 9.47126 15.1921 9.63607Z" fill="white"/>
</g>
<defs>
<clipPath id="clip0_22913_49317">
<rect width="32" height="32" fill="white"/>
</clipPath>
</defs>
</svg>
