<svg width="32" height="32" viewBox="0 0 32 32" fill="none" xmlns="http://www.w3.org/2000/svg">
<path d="M4.34377 0.786915C4.20627 0.836916 3.98752 0.980665 3.86252 1.10567C3.40627 1.54942 3.43127 1.01817 3.45002 9.15566L3.46877 16.4682L3.60627 16.7244C3.76877 17.0307 4.18127 17.4119 4.49377 17.5494C4.63752 17.6119 4.90002 17.6494 5.21877 17.6494C5.63752 17.6494 5.76877 17.6244 6.03127 17.4869C6.40002 17.2932 6.68127 17.0119 6.88127 16.6244L7.03127 16.3432L7.06252 13.3119C7.09377 10.3557 7.10002 10.2744 7.23127 10.0307C7.40002 9.71191 7.58752 9.53691 7.93752 9.38066C8.66252 9.04941 9.57502 9.39316 9.89377 10.1182C9.93752 10.2182 9.98127 10.8494 10 11.7494C10.0313 13.0244 10.05 13.2494 10.15 13.4619C10.6813 14.5307 12.2125 14.5744 12.7438 13.5307C12.9063 13.2307 12.9063 13.1932 12.9375 11.5307L12.9688 9.84316L13.1438 9.54316C13.625 8.73066 14.7625 8.64316 15.3875 9.36817C15.6563 9.68066 15.75 10.0119 15.75 10.6369C15.7563 11.5682 16.2875 12.2057 17.15 12.2932C17.5625 12.3369 17.9313 12.2307 18.2625 11.9807C18.5813 11.7369 18.875 11.2057 18.875 10.8682V10.6307L21.3313 10.6119L23.7875 10.5932L24.0938 10.4369C24.5 10.2307 24.7875 9.81191 24.8438 9.35566C24.8625 9.18067 24.875 7.38691 24.8625 5.37441C24.8438 1.94316 24.8375 1.70566 24.725 1.49941C24.5625 1.19316 24.3813 1.00566 24.0938 0.855665L23.8438 0.718164L14.2188 0.705666C5.89377 0.699415 4.56252 0.705666 4.34377 0.786915Z" fill="white"/>
<path d="M1.68753 4.80625C1.20628 5.05625 1.03128 5.7125 1.31253 6.175C1.46878 6.425 1.86878 6.61875 2.23753 6.625H2.50003V5.65625V4.6875H2.20003C2.03128 4.6875 1.81253 4.7375 1.68753 4.80625Z" fill="white"/>
<path d="M25.7502 5.66875V6.625L25.9252 6.6625C26.4502 6.78125 26.6314 6.84375 27.0314 7.05C27.5752 7.3375 28.2064 7.95625 28.4814 8.46875C29.2002 9.8375 28.9814 11.4375 27.9189 12.5437C27.4627 13.025 27.0814 13.275 26.4877 13.4875L26.0314 13.6562L21.7502 13.6875L17.4689 13.7188L16.9689 13.8875C15.4189 14.4125 14.2627 15.8563 14.1439 17.4187L14.1064 17.875H15.0502H15.9939L16.0314 17.6375C16.1502 16.95 16.4689 16.4125 16.9877 16.0312C17.6002 15.5812 17.3689 15.6 22.1564 15.5625L26.4689 15.5312L27.0752 15.3187C28.9752 14.6625 30.3314 13.1312 30.7252 11.1875C30.8627 10.5 30.8189 9.3 30.6314 8.65625C30.0252 6.59375 28.2439 5.0375 26.1752 4.7625L25.7502 4.70625V5.66875Z" fill="white"/>
<path d="M11.7251 18.8436C10.8376 19.1561 10.5939 20.3623 11.2876 21.0123C11.5751 21.2811 11.8751 21.3748 12.4376 21.3748C12.7126 21.3748 12.9376 21.3936 12.9376 21.4186C12.9376 21.4498 12.7126 22.9436 12.4376 24.7436C12.1626 26.5436 11.9376 28.1186 11.9376 28.2436C11.9376 28.5748 12.1064 29.2373 12.2876 29.5998C12.4876 30.0123 12.9876 30.5686 13.3626 30.7998C15.3314 32.0123 17.8189 30.8623 18.1314 28.5936C18.2001 28.1123 18.1814 27.9748 17.6939 24.7936C17.4126 22.9748 17.1876 21.4686 17.1876 21.4311C17.1876 21.3998 17.4189 21.3748 17.7064 21.3748C18.3126 21.3748 18.6251 21.2561 18.9189 20.9186C19.3814 20.3936 19.3501 19.6436 18.8501 19.1498C18.7001 18.9936 18.4876 18.8623 18.3439 18.8186C17.9501 18.7123 12.0439 18.7311 11.7251 18.8436ZM15.5439 26.7811C16.2189 26.9811 16.7001 27.6498 16.6939 28.3748C16.6939 28.8186 16.5876 29.0936 16.2689 29.4373C15.5939 30.1873 14.5064 30.1811 13.8376 29.4186C13.0751 28.5498 13.4501 27.1623 14.5501 26.7936C14.9251 26.6686 15.1501 26.6623 15.5439 26.7811Z" fill="white"/>
<path d="M14.6499 27.7436C14.1249 28.0623 14.2499 28.8686 14.8499 29.0623C15.2749 29.2061 15.7312 28.9061 15.7937 28.4561C15.8749 27.8248 15.2062 27.4061 14.6499 27.7436Z" fill="white"/>
</svg>
