<svg width="40" height="40" viewBox="0 0 40 40" fill="none" xmlns="http://www.w3.org/2000/svg">
<g clip-path="url(#clip0_23208_59291)">
<path d="M14.8833 0.0398788C10.9925 0.516674 7.76588 2.03304 5.04704 4.67496C2.78915 6.86354 1.27348 9.46638 0.507829 12.46C0.14063 13.8748 0 15.0551 0 16.6574C0 18.7209 0.218757 20.1122 0.828152 21.9491C3.71887 30.6565 13.0786 35.3697 21.8523 32.5402C23.6961 31.9462 25.6805 30.8675 27.1806 29.656L27.829 29.1167L29.4228 30.7112L31.0166 32.2979L30.7901 32.5402C30.4854 32.8607 30.3916 33.0639 30.3916 33.4156C30.3916 33.697 30.501 33.8143 33.3448 36.6594C35.4152 38.7386 36.3918 39.6687 36.6418 39.7938C37.1262 40.0283 37.97 40.0673 38.5247 39.8876C39.095 39.6922 39.6966 39.0981 39.8841 38.5275C40.0794 37.9178 40.0247 37.019 39.7435 36.5578C39.6341 36.3702 38.2278 34.9007 36.6262 33.2984C33.8136 30.5001 33.6964 30.3907 33.4152 30.3907C33.0636 30.3907 32.8604 30.4845 32.5401 30.7893L32.2979 31.016L30.7119 29.4215L29.126 27.8348L29.6572 27.1782C32.462 23.6999 33.7824 19.1117 33.2433 14.6799C32.7901 10.8811 31.1885 7.58264 28.4775 4.86256C27.0712 3.4478 25.7821 2.51766 24.0242 1.65786C21.5866 0.469776 19.3913 -0.0226517 16.6021 0.000797272C15.7896 0.000797272 15.0161 0.0242462 14.8833 0.0398788ZM20.2663 10.1855C20.8054 11.6393 21.2741 12.8587 21.3132 12.8899C21.3444 12.9134 22.6101 13.3902 24.118 13.9451C25.6336 14.5001 26.8759 14.9691 26.8759 14.9925C26.8759 15.016 25.6258 15.485 24.0945 16.0477L21.3132 17.0639L21.1804 17.3765C21.1023 17.5485 20.6257 18.8225 20.1178 20.206C19.5788 21.6599 19.1647 22.6838 19.1334 22.6291C19.1022 22.5744 18.6256 21.3159 18.0787 19.8387C17.5318 18.3536 17.0552 17.1186 17.0162 17.0951C16.9693 17.0639 15.7115 16.5949 14.2114 16.0399C12.7114 15.485 11.4847 15.016 11.4847 14.9925C11.4847 14.9691 12.7114 14.5001 14.2114 13.9451C15.7115 13.3902 16.9693 12.9212 17.0162 12.8899C17.0552 12.8665 17.4849 11.7722 17.9615 10.4669C18.4459 9.16154 18.9147 7.8953 19.0006 7.6608C19.1334 7.30125 19.1725 7.24654 19.2272 7.3716C19.2584 7.45758 19.7272 8.72383 20.2663 10.1855ZM12.1332 7.72334C12.3676 7.91093 12.5004 8.30956 12.5004 8.83326V9.20844H13.0473C13.5395 9.20844 13.6176 9.23189 13.8442 9.43511C14.0551 9.62271 14.102 9.7165 14.102 9.99007C14.102 10.2636 14.0551 10.3574 13.8442 10.545C13.6176 10.7483 13.5395 10.7717 13.0473 10.7717H12.5004V11.1391C12.5004 11.9676 12.2035 12.4131 11.6488 12.4131C11.1254 12.4131 10.8597 12.0223 10.8597 11.2329V10.7717H10.3519C9.75813 10.7717 9.48468 10.6623 9.32843 10.3731C9.19561 10.1073 9.1878 9.90409 9.3128 9.63834C9.44562 9.34132 9.76594 9.20844 10.3519 9.20844H10.8597V8.74728C10.8597 8.20795 10.9379 7.95783 11.1801 7.73115C11.4144 7.51229 11.8676 7.51229 12.1332 7.72334ZM12.3051 19.7292L12.7582 20.9877L14.2427 21.5348L15.7193 22.0819L14.4848 22.5353C13.7973 22.7854 13.1332 23.0277 13.0004 23.0824C12.7817 23.1762 12.727 23.2857 12.227 24.6457C11.9301 25.4508 11.6723 26.0761 11.6566 26.0448C11.6488 26.0057 11.3988 25.3414 11.1097 24.5675L10.5863 23.1606L9.11749 22.6213L7.64869 22.0819L9.1253 21.5348L10.5941 20.9955L11.1332 19.5182C11.6332 18.1581 11.6801 18.0644 11.7582 18.2598C11.8051 18.377 12.0551 19.0336 12.3051 19.7292Z" fill="#0A67F2"/>
</g>
<defs>
<clipPath id="clip0_23208_59291">
<rect width="40" height="40" fill="white"/>
</clipPath>
</defs>
</svg>
