<svg width="40" height="40" viewBox="0 0 40 40" fill="none" xmlns="http://www.w3.org/2000/svg">
<path d="M17.9299 2.11757C14.844 2.55507 12.258 4.43007 10.8987 7.21913C10.2815 8.47695 10.0705 9.36757 10.0237 10.8363C9.96115 12.5941 10.1721 13.7191 10.8283 15.1488C11.4533 16.5082 12.6877 17.9691 13.9299 18.8129C18.5158 21.9535 24.8127 20.3754 27.3362 15.4691C28.594 13.0316 28.7033 10.141 27.6408 7.62538C26.0471 3.85976 21.9612 1.54726 17.9299 2.11757Z" fill="#0A67F2"/>
<path d="M27.6173 20.508C24.8907 21.0237 22.5157 22.8049 21.2657 25.2737C20.4063 26.9924 20.1563 29.4377 20.6563 31.3674C20.9298 32.4221 21.6407 33.8362 22.3048 34.6643C24.9142 37.9065 29.461 38.883 33.1563 36.9924C36.3751 35.3518 38.2735 31.8752 37.9063 28.3205C37.5782 25.2268 35.8282 22.6721 33.086 21.3205C31.7579 20.6721 30.9142 20.4612 29.4142 20.4221C28.5938 20.4065 28.0548 20.4299 27.6173 20.508ZM30.086 24.1018C30.9298 24.6487 31.0001 25.8987 30.2423 26.5862C29.1876 27.5393 27.5782 26.8284 27.5782 25.4143C27.5782 24.1018 28.9767 23.3752 30.086 24.1018ZM29.6876 28.0862C29.8126 28.1487 30.0157 28.3362 30.1329 28.4924L30.3517 28.7737V31.258C30.3517 33.6565 30.3438 33.7502 30.1876 33.9612C30.1017 34.0784 29.9063 34.258 29.7657 34.3596C29.2501 34.7034 28.461 34.4924 28.1329 33.9065C27.9767 33.6252 27.9688 33.508 27.9688 31.2502C27.9688 28.9924 27.9767 28.8752 28.1329 28.594C28.4376 28.0549 29.1642 27.8127 29.6876 28.0862Z" fill="#0A67F2"/>
<path d="M16.9453 21.8752C11.4922 22.2815 6.875 23.9299 4.28906 26.3908C3.21875 27.4065 2.64062 28.2971 2.25 29.5315C2.07812 30.0783 2.07031 30.2346 2.07031 32.1096V34.1018L2.32031 34.6252C2.74219 35.5236 3.49219 36.0861 4.46094 36.2502C4.98438 36.3283 21.5625 36.3674 21.5625 36.2815C21.5625 36.258 21.375 36.008 21.1406 35.719C20.125 34.4455 19.4688 33.1174 19.0547 31.4533C18.8203 30.5236 18.7656 28.5627 18.9453 27.4924C19.2578 25.594 20.1016 23.8049 21.3281 22.4065C21.5547 22.1565 21.7188 21.9299 21.6953 21.9065C21.625 21.8361 17.8438 21.8049 16.9453 21.8752Z" fill="#0A67F2"/>
</svg>
