<svg width="45" height="45" viewBox="0 0 45 45" fill="none" xmlns="http://www.w3.org/2000/svg">
<path d="M26.2377 0.665591C25.5683 0.87916 24.8014 1.31609 24.4387 1.68493L24.2096 1.9248L24.8177 2.55405L25.4257 3.18331L25.911 2.76968C26.7011 2.07998 27.6418 1.89919 28.6112 2.23459C29.0025 2.38194 29.3442 2.68784 31.0765 4.46151C33.3433 6.78817 33.5537 7.09182 33.5367 8.08543C33.529 8.53536 33.4688 8.76874 33.2558 9.1589C33.0721 9.48392 31.4573 11.2472 28.4401 14.4116C25.9482 17.0224 23.7895 19.3389 23.6453 19.5427C23.1646 20.2377 22.9565 20.8905 22.8918 21.9302C22.7875 23.6442 23.2213 24.5893 24.8524 26.2581L25.783 27.2117L26.4218 26.5944L27.0608 25.9678L25.937 24.7952C24.6659 23.4608 24.4292 23.0442 24.4445 22.1537C24.452 21.7131 24.5123 21.4797 24.7346 21.0897C24.9185 20.7553 26.352 19.1765 29.1114 16.2796C34.1717 10.9748 34.2864 10.8455 34.5286 10.3903C35.3325 8.89442 35.3347 7.12233 34.5436 5.68357C34.2071 5.07771 31.0108 1.73186 30.3156 1.26051C29.1757 0.481502 27.5388 0.247187 26.2377 0.665591Z" fill="white"/>
<path d="M10.4336 10.8027L0.394295 20.4947L0.385465 21.0103L0.376635 21.5258L3.07623 24.31L5.76629 27.1033L6.28183 27.1121L6.79738 27.121L16.8275 17.4194L26.8668 7.72744L26.8756 7.21189L26.8845 6.69634L24.1849 3.9122L21.4948 1.11885L20.9793 1.11002L20.4637 1.10119L10.4336 10.8027Z" fill="white"/>
<path d="M11.5781 24.4368C7.39261 28.4814 7.32604 28.5365 6.26682 28.5184C5.49818 28.5052 5.02366 28.2908 4.38715 27.6798C3.99988 27.2981 3.89773 27.2401 3.7649 27.3316C3.67957 27.3864 3.35734 27.5872 3.06354 27.7696L2.51393 28.1072L2.39272 35.1842L2.27151 42.2613L2.49894 42.6684C2.83565 43.2649 3.37435 43.5648 4.12424 43.5776C4.87413 43.5905 5.42277 43.3092 5.77971 42.7246L6.02096 42.3256L6.07217 39.3354C6.10027 37.695 6.17491 36.0741 6.2274 35.7469C6.41378 34.7187 6.91341 34.0146 7.78397 33.5513C8.23808 33.3153 8.36979 33.2895 9.17593 33.3033C9.98206 33.3171 10.1128 33.3474 10.5586 33.5989C11.4685 34.1208 11.9062 34.8409 12.0547 36.0248C12.2024 37.2557 12.6351 37.7225 13.61 37.7392C14.2099 37.7495 14.6545 37.5227 14.9439 37.0495C15.1079 36.7804 15.1248 36.34 15.2356 28.7751L15.3441 20.7977L11.5781 24.4368Z" fill="white"/>
<path d="M0.796671 24.9179L0.478351 25.4375L1.15074 26.1429C1.51911 26.5336 1.86063 26.8489 1.9075 26.8497C1.97312 26.8508 2.71213 26.404 2.91186 26.2387C2.95937 26.202 1.2556 24.4007 1.17123 24.3992C1.14311 24.3988 0.979586 24.6397 0.796671 24.9179Z" fill="white"/>
<path d="M27.3889 27.5955L26.5022 28.4524L26.5155 29.3152L26.5289 30.1781L28.2927 28.4737L30.0565 26.7692L29.166 26.754L28.2756 26.7387L27.3889 27.5955Z" fill="white"/>
<path d="M29.2125 29.5208L26.686 31.9623L27.0729 32.3627C27.2846 32.5914 27.6182 32.8221 27.814 32.8911L28.1682 33.0097L30.4849 30.7803L32.8017 28.5415L32.6947 28.2209C32.6059 27.9287 31.9265 27.0826 31.7859 27.0801C31.7578 27.0797 30.6045 28.1757 29.2125 29.5208Z" fill="white"/>
<path d="M31.4524 31.7813L29.1449 34.0202L29.2513 34.3783C29.4022 34.8779 35.3905 41.0845 35.9217 41.2717L36.2757 41.409L38.5925 39.1703L40.9093 36.9315L40.8023 36.6109C40.7313 36.3752 39.8203 35.3657 37.5633 33.0205C35.8406 31.2282 34.3376 29.7491 34.235 29.7193C34.1228 29.6986 33.9736 29.6491 33.8993 29.6104C33.8062 29.5713 33.0636 30.2243 31.4524 31.7813Z" fill="white"/>
<path d="M39.5503 40.1807L37.2429 42.4196L37.3406 42.7401C37.3938 42.9192 37.6776 43.3179 37.9538 43.6132C38.4602 44.1564 38.4788 44.1661 38.9944 44.1749L39.5099 44.1837L41.5407 42.2213L43.5619 40.2682L43.5708 39.7526C43.5794 39.2464 43.5705 39.2182 43.0545 38.6936C42.7593 38.4073 42.4357 38.1392 42.3331 38.1093C42.2303 38.0888 42.0813 38.03 42.0068 38.0006C41.9137 37.9615 41.1616 38.6237 39.5503 40.1807Z" fill="white"/>
</svg>
