<svg width="37" height="26" viewBox="0 0 37 26" fill="none" xmlns="http://www.w3.org/2000/svg">
<path d="M22.1904 25.4473L22.1904 21.0264L22.6904 21.0264C24.275 21.0263 25.7798 20.4855 27.2148 19.3721L27.2168 19.3701C28.3561 18.4973 29.1001 17.3404 29.4463 15.875C29.2599 15.9335 29.0524 15.9923 28.8242 16.0488L28.8135 16.0518L28.8018 16.0547C28.4362 16.1272 28.0414 16.1611 27.6201 16.1611C25.506 16.1611 23.7285 15.3513 22.3213 13.751L22.0674 13.4619C20.8369 11.9973 20.2188 10.2803 20.2187 8.33106C20.2187 6.24542 20.9602 4.40001 22.4209 2.81348L22.4199 2.8125C23.8436 1.25993 25.7606 0.500081 28.1123 0.500001C30.75 0.5 32.8438 1.4734 34.3281 3.43555L34.333 3.44141C35.7795 5.42178 36.4999 7.70968 36.5 10.2852C36.5 12.874 36.0989 15.1265 35.2783 17.0273L35.123 17.3867C34.3343 19.1668 33.33 20.6401 32.1025 21.793C30.8045 23.0772 29.3288 23.9964 27.6777 24.542C25.9903 25.143 24.3272 25.4472 22.6904 25.4473L22.1904 25.4473ZM2.47168 25.4473L2.47168 21.0264L2.97168 21.0264C4.55627 21.0264 6.06106 20.4854 7.49609 19.3721L7.49902 19.3701C8.63836 18.4973 9.38238 17.3404 9.72851 15.875C9.54209 15.9335 9.33472 15.9922 9.10644 16.0488L9.08301 16.0547C8.71737 16.1272 8.32272 16.1611 7.90137 16.1611C5.78377 16.1611 4.00398 15.3488 2.5957 13.7432L2.59668 13.7432C1.20188 12.2185 0.500074 10.4067 0.499999 8.33106C0.499998 6.2453 1.24227 4.40007 2.70312 2.81348L2.70215 2.8125C4.12587 1.25988 6.04264 0.500003 8.39453 0.500002C11.0322 0.500043 13.126 1.47344 14.6103 3.43555L14.6152 3.44141C16.0617 5.42178 16.7812 7.70969 16.7812 10.2852C16.7812 12.8765 16.3798 15.1312 15.5576 17.0332C14.7473 18.9727 13.6926 20.5646 12.3848 21.793C11.1678 22.997 9.79483 23.8802 8.26758 24.4355L7.95996 24.542C6.27222 25.1431 4.60867 25.4473 2.97168 25.4473L2.47168 25.4473Z" stroke="white"/>
</svg>
