<svg width="57" height="39" viewBox="0 0 57 39" fill="none" xmlns="http://www.w3.org/2000/svg">
<path d="M24.8873 15.1224C24.8873 19.2612 24.2451 22.8163 22.9606 25.7878C21.6761 28.8653 20.0169 31.3592 17.9831 33.2694C15.9493 35.2857 13.6479 36.7184 11.0789 37.5674C8.40282 38.5225 5.78028 39 3.21127 39L3.21127 33.4286C5.99436 33.4286 8.6169 32.4735 11.0789 30.5633C13.4338 28.7592 14.8254 26.2653 15.2535 23.0816C14.9324 23.1878 14.5577 23.2939 14.1296 23.4C13.8085 23.5061 13.4338 23.6122 13.0056 23.7184C12.4704 23.8245 11.8817 23.8775 11.2394 23.8775C8.02817 23.8775 5.35211 22.6571 3.21126 20.2163C1.07042 17.8816 1.72726e-06 15.1225 1.44893e-06 11.9388C1.1706e-06 8.7551 1.12394 5.94286 3.37183 3.50204C5.51268 1.16735 8.40281 4.33803e-07 12.0423 1.15634e-07C16.1099 -2.39968e-07 19.2676 1.48571 21.5155 4.45714C23.7634 7.53469 24.8873 11.0898 24.8873 15.1224ZM57 15.1224C57 19.2612 56.3577 22.8163 55.0732 25.7878C53.7887 28.8653 52.1296 31.3592 50.0958 33.2694C48.062 35.2857 45.7606 36.7184 43.1915 37.5673C40.5155 38.5225 37.893 39 35.3239 39L35.3239 33.4286C38.107 33.4286 40.7296 32.4735 43.1915 30.5633C45.5465 28.7592 46.938 26.2653 47.3662 23.0816C47.0451 23.1877 46.6704 23.2939 46.2423 23.4C45.9211 23.5061 45.5465 23.6122 45.1183 23.7184C44.5831 23.8245 43.9944 23.8775 43.3521 23.8775C40.1408 23.8775 37.4648 22.6571 35.3239 20.2163C33.1831 17.8816 32.1127 15.1224 32.1127 11.9388C32.1127 8.7551 33.2366 5.94286 35.4845 3.50204C37.6253 1.16734 40.5155 -2.37358e-06 44.1549 -2.69175e-06C48.2225 -3.04735e-06 51.3803 1.48571 53.6282 4.45714C55.8761 7.53469 57 11.0898 57 15.1224Z" fill="#FF008A"/>
</svg>
