<svg width="24" height="24" viewBox="0 0 24 24" fill="none" xmlns="http://www.w3.org/2000/svg">
<path d="M12.6327 0.15C12.5109 0.267187 11.6999 1.86094 9.16399 6.96094C7.34524 10.6219 5.84524 13.6969 5.83118 13.7906C5.79368 14.0203 5.95305 14.3531 6.1593 14.4844C6.3093 14.5734 6.3843 14.5781 8.7843 14.5781C10.3077 14.5781 11.2499 14.5969 11.2499 14.6203C11.2499 14.6484 11.0296 16.6359 10.7577 19.0453C10.2093 23.9109 10.2187 23.6766 10.5421 23.8922C10.6593 23.9719 10.7671 24 10.9546 24C11.1749 24 11.2265 23.9812 11.3624 23.8453C11.4843 23.7328 12.3656 22.0406 14.7749 17.3016C16.5609 13.7859 18.0609 10.8141 18.1077 10.6969C18.2202 10.4109 18.1781 10.2 17.9765 9.99844L17.8218 9.84375H15.2484H12.6749L13.2046 5.28281C13.5281 2.49375 13.7202 0.651562 13.7015 0.539062C13.6827 0.407812 13.6218 0.299999 13.4999 0.178123C13.3359 0.014061 13.3031 0 13.0593 0C12.8249 0 12.7781 0.0187492 12.6327 0.15Z" fill="#242B3A"/>
<path d="M9.91411 1.56563C8.59692 1.83751 7.44849 2.28751 6.37974 2.96251C3.71255 4.64063 1.94536 7.32188 1.47192 10.4063C1.3688 11.0578 1.33599 12.4641 1.40161 13.0688C1.83286 16.8469 4.0313 19.9781 7.38286 21.5906C8.0438 21.9094 9.08911 22.2891 9.14068 22.2328C9.15942 22.2094 9.22974 21.6469 9.30005 20.9766C9.37036 20.3063 9.4313 19.7297 9.43599 19.6969C9.44067 19.6594 9.32818 19.5891 9.15942 19.5234C5.84536 18.2672 3.70318 14.9109 3.98443 11.4047C4.2188 8.52657 5.92036 6.02813 8.50786 4.77188L9.00942 4.52813L9.75474 3.03751C10.1625 2.21719 10.5 1.52813 10.5 1.50001C10.5 1.44376 10.5375 1.43907 9.91411 1.56563Z" fill="#242B3A"/>
<path d="M14.836 1.84217C14.8172 1.92655 14.5969 3.8953 14.5641 4.25624C14.5547 4.34999 14.611 4.38749 14.9766 4.53749C16.1766 5.03905 17.1938 5.75155 18.0094 6.67967C21.525 10.664 20.325 16.7719 15.5578 19.2094L15.0282 19.4765L14.2594 20.9906C13.8375 21.825 13.5 22.514 13.5141 22.5281C13.5516 22.5656 14.4422 22.3781 14.986 22.2234C16.9266 21.6656 18.7313 20.5031 20.0532 18.9609C21.3985 17.3953 22.275 15.4547 22.5516 13.4297C22.65 12.7359 22.636 11.0765 22.5328 10.4297C21.9282 6.60936 19.4485 3.50155 15.8907 2.0953C15.5953 1.97811 15.2391 1.85155 15.1078 1.80936C14.8641 1.73905 14.8594 1.73905 14.836 1.84217Z" fill="#242B3A"/>
</svg>
