<svg width="69" height="60" viewBox="0 0 69 60" fill="none" xmlns="http://www.w3.org/2000/svg">
<g clip-path="url(#clip0_23022_60459)">
<path d="M36.0286 14.7455L36.1209 14.773L36.1249 14.7684C36.5625 14.8477 36.9967 14.5857 37.1253 14.1516C38.2969 10.2149 41.988 7.46465 46.1004 7.46465C46.5873 7.46465 46.9822 7.06977 46.9822 6.58291C46.9822 6.09604 46.5873 5.70117 46.1004 5.70117C41.0463 5.70117 36.7991 9.06626 35.4354 13.649C35.2962 14.1158 35.5621 14.6064 36.0286 14.7455Z" fill="#68616D" stroke="#F9FFF9" stroke-width="0.3"/>
<path d="M56.3438 42.4384H51.9534C51.5494 42.4384 51.2217 42.1107 51.2217 41.7067C51.2217 41.3027 51.5494 40.9749 51.9534 40.9749H56.3438C62.3956 40.9749 67.3197 36.0509 67.3197 29.999C67.3197 23.9471 62.3956 19.023 56.3438 19.023H56.2382C56.026 19.023 55.8242 18.9311 55.6852 18.7706C55.5462 18.6101 55.4834 18.3974 55.5138 18.1873C55.5791 17.7315 55.612 17.2737 55.612 16.8279C55.612 11.5829 51.3444 7.31531 46.0995 7.31531C44.059 7.31531 42.1131 7.95296 40.4719 9.15978C40.1112 9.42478 39.599 9.30718 39.3905 8.91047C34.7425 0.059701 22.6023 -1.12887 16.3082 6.57053C13.6568 9.81417 12.615 14.0336 13.4498 18.146C13.5418 18.6002 13.1942 19.0236 12.7327 19.0236H12.4395C6.3876 19.0236 1.46353 23.9477 1.46353 29.9996C1.46353 36.0514 6.3876 40.9755 12.4395 40.9755H16.8298C17.2338 40.9755 17.5615 41.3032 17.5615 41.7072C17.5615 42.1113 17.2338 42.439 16.8298 42.439H12.4395C5.5805 42.439 0 36.8585 0 29.9995C0 23.3329 5.27155 17.8742 11.8651 17.5731C11.2457 13.3066 12.4301 9.00295 15.1751 5.64437C21.9138 -2.5996 34.828 -1.67556 40.2871 7.51707C42.0287 6.42522 44.0215 5.85244 46.0992 5.85244C52.4538 5.85244 57.4892 11.261 57.0486 17.58C63.5813 17.9463 68.7829 23.3763 68.7829 29.999C68.7829 36.8585 63.2028 42.4384 56.3438 42.4384Z" fill="#68616D"/>
<path d="M15.8496 41.2931C15.8496 51.463 24.1233 59.7366 34.2931 59.7366C44.463 59.7366 52.7366 51.4629 52.7366 41.2931C52.7366 31.1231 44.463 22.8496 34.2931 22.8496C24.1231 22.8496 15.8496 31.1233 15.8496 41.2931ZM17.6134 41.2931C17.6134 32.0962 25.096 24.6134 34.2931 24.6134C43.49 24.6134 50.9728 32.096 50.9728 41.2931C50.9728 50.49 43.49 57.9728 34.2931 57.9728C25.0962 57.9728 17.6134 50.4901 17.6134 41.2931Z" fill="#68616D" stroke="#F9FFF9" stroke-width="0.3"/>
<path d="M33.9434 48.6573C33.9434 49.0359 34.2505 49.343 34.6291 49.343C35.0077 49.343 35.3148 49.0363 35.3148 48.6573V34.7287C35.3148 34.3501 35.0077 34.043 34.6291 34.043C34.2504 34.043 33.9434 34.3501 33.9434 34.7287V48.6573Z" fill="#68616D" stroke="#483EA8" stroke-width="0.3"/>
<path d="M34.6277 35.7005L38.4285 39.5012C38.5622 39.635 38.7382 39.702 38.9133 39.7021L34.6277 35.7005ZM29.8572 39.5012C30.125 39.769 30.5594 39.7691 30.827 39.5011L38.9133 39.7021C39.0881 39.702 39.2643 39.6355 39.3983 39.5012C39.6661 39.2333 39.6661 38.7993 39.3982 38.5315L35.1126 34.2458C34.8448 33.978 34.4104 33.9778 34.1428 34.2458L29.8572 38.5315C29.5893 38.7993 29.5893 39.2333 29.8572 39.5012Z" fill="#68616D"/>
<path d="M38.9133 39.7021L34.6277 35.7005L30.827 39.5011C30.5594 39.7691 30.125 39.769 29.8572 39.5012C29.5893 39.2333 29.5893 38.7993 29.8572 38.5315L34.1428 34.2458C34.4104 33.9778 34.8448 33.978 35.1126 34.2458L39.3982 38.5315C39.6661 38.7993 39.6661 39.2333 39.3983 39.5012C39.2643 39.6355 39.0881 39.702 38.9133 39.7021C38.7382 39.702 38.5622 39.635 38.4285 39.5012L34.6277 35.7005M30.827 39.5011L38.9133 39.7021" stroke="#483EA8" stroke-width="0.3"/>
</g>
<defs>
<clipPath id="clip0_23022_60459">
<rect width="69" height="60" fill="white"/>
</clipPath>
</defs>
</svg>
