<svg width="70" height="70" viewBox="0 0 70 70" fill="none" xmlns="http://www.w3.org/2000/svg">
<path d="M69.5 26.1298C69.5 45.3217 49.6731 69.5 32 69.5C14.3269 69.5 0 53.9419 0 34.75C0 15.5581 14.3269 0 32 0C49.6731 0 69.5 6.93795 69.5 26.1298Z" fill="#282B8B"/>
<g clip-path="url(#clip0_23476_16517)">
<path d="M23.1875 17.2188V18.9375H27.125H31.0625V17.2188V15.5H27.125H23.1875V17.2188Z" fill="white"/>
<path d="M23.2188 21.325C23.3063 22.425 23.7125 23.3438 24.4125 24C24.8438 24.4 25.3313 24.7 25.825 24.8687L26.1562 24.9812L26.175 25.5187L26.1938 26.0625H22.8125H19.4375V26.6875V27.3125H17.7188H16V30.0938V32.875H17.7188H19.4375V33.5V34.125H20.3812C21.1125 34.125 21.3187 34.1438 21.2938 34.2C21.0938 34.7437 18.4375 42.3812 18.4375 42.4313C18.4375 42.4812 18.9 42.5 19.9062 42.5H21.375V42.9562C21.375 43.8687 21.8063 45.0312 22.425 45.775C23.075 46.5562 23.975 47.125 24.9625 47.375C25.45 47.5 25.675 47.5 36.7313 47.5H48V46.5625V45.625L36.8313 45.6125L25.6562 45.5938L25.2875 45.45C24.7375 45.2437 24.4438 45.05 24.0813 44.675C23.6125 44.175 23.3625 43.6125 23.2875 42.8625L23.25 42.5062L24.1938 42.4875L25.1438 42.4688L25.8688 40.3937L26.5938 38.3125L28.8063 38.3L31.0188 38.2812L31.7188 36.2188L32.425 34.1562L33.0875 34.1375L33.75 34.1187V30.0938V26.0625H30.9375H28.125V25.5125V24.9562L28.3938 24.875C28.95 24.7125 29.4062 24.425 29.9125 23.9125C30.6562 23.1625 30.9563 22.4812 31.0375 21.325L31.0813 20.75H27.1313H23.175L23.2188 21.325ZM30.3438 34.2312C30.3188 34.2937 30.1438 34.8 29.9563 35.3562L29.6125 36.375H28.4625C27.8313 36.375 27.3125 36.35 27.3125 36.3187C27.3125 36.275 27.7 35.1438 28.0312 34.2C28.05 34.1438 28.35 34.125 29.225 34.125C30.3063 34.125 30.3875 34.1312 30.3438 34.2312Z" fill="white"/>
<path d="M45.8126 25.4688C45.1438 25.6813 44.5876 25.8875 44.5751 25.925C44.5626 25.9625 44.6876 26.3813 44.8438 26.8625L45.1251 27.7375L46.3938 27.3313C47.0876 27.1063 47.6813 26.9 47.7126 26.8688C47.8063 26.7875 47.2438 25.0625 47.1251 25.0688C47.0751 25.0688 46.4813 25.25 45.8126 25.4688Z" fill="white"/>
<path d="M35.5625 30.0938V34.125H37.5H39.4375V32.5938V31.0625H40.6875H41.9375V30.0938V29.125H40.6875H39.4375V27.5938V26.0625H37.5H35.5625V30.0938Z" fill="white"/>
<path d="M43.1132 26.3375C42.6757 26.4813 42.3007 26.6125 42.2819 26.6313C42.2194 26.6938 42.8132 28.4375 42.8944 28.4375C42.9819 28.4375 44.4382 27.9563 44.4819 27.9125C44.5069 27.8938 43.9569 26.1188 43.9194 26.0938C43.9132 26.0875 43.5507 26.2 43.1132 26.3375Z" fill="white"/>
<path d="M42.8125 30.0938V31.0625H43.6875H44.5625V30.0938V29.125H43.6875H42.8125V30.0938Z" fill="white"/>
<path d="M45.25 30.0938V31.0625H46.625H48V30.0938V29.125H46.625H45.25V30.0938Z" fill="white"/>
<path d="M42.5375 32.5812C42.3813 33.0813 42.25 33.5062 42.25 33.5188C42.25 33.55 43.8125 34.0625 43.9 34.0625C43.9375 34.0625 44.525 32.25 44.4938 32.225C44.4813 32.2188 44.1375 32.1062 43.725 31.975C43.3188 31.8438 42.95 31.725 42.9062 31.7062C42.85 31.6875 42.7375 31.9625 42.5375 32.5812Z" fill="white"/>
<path d="M45.1068 32.4812C45.0443 32.6 44.5443 34.25 44.5693 34.275C44.613 34.3125 47.2005 35.1375 47.213 35.1125C47.2255 35.0875 47.613 33.8812 47.7255 33.5312L47.8005 33.275L46.538 32.8812C45.8505 32.6625 45.2505 32.4687 45.213 32.4562C45.1693 32.4437 45.1255 32.45 45.1068 32.4812Z" fill="white"/>
</g>
<defs>
<clipPath id="clip0_23476_16517">
<rect width="32" height="32" fill="white" transform="translate(16 15.5)"/>
</clipPath>
</defs>
</svg>
