<svg width="70" height="70" viewBox="0 0 70 70" fill="none" xmlns="http://www.w3.org/2000/svg">
<path d="M69.5 26.1298C69.5 45.3217 49.6731 69.5 32 69.5C14.3269 69.5 0 53.9419 0 34.75C0 15.5581 14.3269 0 32 0C49.6731 0 69.5 6.93795 69.5 26.1298Z" fill="#282B8B"/>
<path d="M34.194 20.8563C34.1253 20.9188 33.8815 21.3376 33.6628 21.7938C33.4253 22.2751 33.194 22.6563 33.1128 22.7126C33.0315 22.7626 32.569 22.8626 32.0753 22.9313C31.1315 23.0688 30.9815 23.1188 30.8753 23.3126C30.7128 23.6126 30.7878 23.7438 31.5628 24.5313C32.1128 25.0813 32.3128 25.3313 32.3128 25.4376C32.3128 25.5251 32.244 25.9813 32.1565 26.4563C31.969 27.4938 32.0128 27.6688 32.4503 27.7813C32.5815 27.8126 32.8065 27.7251 33.5565 27.3376L34.5003 26.8501L35.4378 27.3376C36.444 27.8501 36.6065 27.8876 36.844 27.6251C36.9815 27.4688 36.9753 27.2126 36.819 26.3188C36.744 25.9251 36.6878 25.5313 36.6878 25.4376C36.6878 25.3063 36.8503 25.1126 37.4065 24.5563C38.1378 23.8376 38.2315 23.6876 38.1628 23.4063C38.1003 23.1563 37.8878 23.0688 36.9378 22.9313C36.4378 22.8626 35.9628 22.7626 35.8815 22.7063C35.794 22.6501 35.5815 22.2876 35.3315 21.7751C35.1128 21.3188 34.869 20.9001 34.794 20.8438C34.6128 20.7188 34.3565 20.7251 34.194 20.8563Z" fill="white"/>
<path d="M23.8563 24.8188C23.7938 24.8563 23.55 25.2813 23.3063 25.7688C23.0625 26.2563 22.8125 26.6875 22.7625 26.725C22.7062 26.7688 22.5187 26.8188 22.3438 26.8375C20.65 27.0563 20.5 27.1188 20.5 27.5688C20.5 27.8125 20.5312 27.8563 21.1938 28.4875C21.575 28.8563 21.9125 29.2125 21.9375 29.2813C21.9688 29.3625 21.9312 29.75 21.8375 30.2563C21.6562 31.2813 21.65 31.4625 21.8125 31.625C22.0688 31.8813 22.1875 31.8563 23.2 31.3438L24.15 30.8563L25.1 31.3438C25.9313 31.7688 26.0625 31.825 26.2188 31.7688C26.3187 31.7375 26.4563 31.6375 26.525 31.5438L26.6438 31.3813L26.475 30.3813C26.35 29.6625 26.3187 29.3563 26.3625 29.2688C26.4 29.2063 26.7375 28.85 27.1188 28.4688C27.7438 27.85 27.8125 27.7625 27.8125 27.5563C27.8125 27.1625 27.6562 27.0813 26.625 26.9375C26.125 26.8688 25.6562 26.7813 25.5813 26.75C25.4813 26.7063 25.3 26.4063 24.9875 25.7875C24.5312 24.8688 24.425 24.75 24.1063 24.75C24.0312 24.75 23.9188 24.7813 23.8563 24.8188Z" fill="white"/>
<path d="M44.5875 24.8188C44.5125 24.8563 44.2875 25.2313 44.025 25.7625C43.7875 26.2438 43.5375 26.675 43.4688 26.7188C43.4 26.7625 42.925 26.8625 42.4062 26.9375C41.3375 27.0938 41.1875 27.1688 41.1875 27.5563C41.1875 27.7625 41.2563 27.85 41.8813 28.4688C42.2625 28.85 42.6 29.2063 42.6313 29.2688C42.6812 29.35 42.65 29.6688 42.525 30.3813L42.35 31.375L42.475 31.5438C42.7375 31.8938 42.8563 31.875 43.9 31.3438L44.8438 30.8563L45.8 31.3375C46.8125 31.8563 46.9313 31.8813 47.1875 31.625C47.35 31.4625 47.3438 31.2875 47.1625 30.2563C47.0687 29.75 47.0312 29.3625 47.0625 29.2813C47.0875 29.2125 47.425 28.8563 47.8063 28.4875C48.4437 27.8813 48.5 27.8063 48.5 27.5938C48.5 27.3313 48.4188 27.1563 48.275 27.1C48.2125 27.075 47.7875 27.0063 47.3187 26.9375C46.85 26.8688 46.4062 26.8 46.325 26.7813C46.2188 26.7563 46.0813 26.5313 45.7188 25.8125C45.4625 25.3 45.2 24.85 45.1313 24.8125C44.9813 24.7375 44.7625 24.7375 44.5875 24.8188Z" fill="white"/>
<path d="M35.3437 31.1437C34.9562 31.275 34.7375 31.4062 34.4937 31.6687C34.3687 31.8 33.5312 32.9437 32.6312 34.2188L31 36.5312V42.1375V47.75H35.0812C39.525 47.75 39.5812 47.7437 40.1812 47.3937C40.5437 47.1812 40.9312 46.7812 41.1375 46.4C41.2312 46.2188 41.6687 44.7875 42.1937 42.9062C43.0375 39.9062 43.0875 39.6875 43.0875 39.1562C43.0937 38.4688 42.975 38.0875 42.6 37.575C42.3 37.175 41.9125 36.8875 41.3812 36.675C41.05 36.55 40.9125 36.5375 38.9562 36.5125C37.8125 36.5 36.875 36.4688 36.875 36.4375C36.875 36.4125 37.075 35.6937 37.3187 34.8375C37.7187 33.4312 37.7562 33.2375 37.7312 32.8438C37.6937 32.1312 37.3312 31.575 36.7125 31.275C36.3125 31.0812 35.7187 31.025 35.3437 31.1437Z" fill="white"/>
<path d="M27.3939 36.5625C26.7564 36.6562 26.1689 37.1562 25.9751 37.7688C25.8814 38.0625 25.8751 38.5312 25.8876 42.2812L25.9064 46.4688L26.0939 46.8062C26.1939 46.9875 26.4001 47.2375 26.5564 47.35C26.9876 47.6875 27.3126 47.75 28.5126 47.75H29.5626V42.125V36.5L28.6439 36.5062C28.1314 36.5125 27.5751 36.5375 27.3939 36.5625Z" fill="white"/>
</svg>
