<svg width="70" height="70" viewBox="0 0 70 70" fill="none" xmlns="http://www.w3.org/2000/svg">
<path d="M69.5 26.1298C69.5 45.3217 49.6731 69.5 32 69.5C14.3269 69.5 0 53.9419 0 34.75C0 15.5581 14.3269 0 32 0C49.6731 0 69.5 6.93795 69.5 26.1298Z" fill="#282B8B"/>
<g clip-path="url(#clip0_23476_16531)">
<path d="M35.7688 19.7C35.0312 20.4312 34.4188 21.0937 34.4 21.1687C34.375 21.25 34.3812 21.3812 34.4 21.4625C34.4188 21.5437 35.2375 22.575 36.2188 23.75C37.7937 25.6437 38 25.9125 38 26.1C38 26.475 37.6375 26.7187 37.2812 26.5875C37.225 26.5625 36.4 25.6187 35.4563 24.4875C34.4188 23.2375 33.6813 22.4062 33.5813 22.3687C33.2688 22.25 33.1125 22.3562 32.0687 23.4C31.1188 24.35 31.05 24.4375 31.05 24.65C31.05 24.8312 31.2375 25.2187 31.9 26.4125C32.4625 27.425 32.75 28.0062 32.75 28.1312C32.75 28.3812 32.5062 28.625 32.2562 28.625C32.125 28.625 31.5188 28.3187 30.3937 27.6937L28.7188 26.7562L28.05 27.425C27.4375 28.0312 27.375 28.1125 27.375 28.325C27.375 28.45 27.3938 28.6 27.4125 28.65C27.45 28.7437 33.9375 33.3312 34.1375 33.4062C34.1875 33.425 35.8688 31.7875 38.3313 29.325L42.4438 25.2125L40.1562 21.9375C38.8938 20.1312 37.7937 18.5937 37.7125 18.5125C37.6062 18.425 37.475 18.375 37.325 18.375C37.1125 18.375 37.0125 18.4625 35.7688 19.7Z" fill="white"/>
<path d="M43.2188 25.9874C43.1188 26.0562 41.1937 27.9499 38.9563 30.1999L34.875 34.2812V34.5624V34.8374L36.425 36.3937C37.8813 37.8499 37.9938 37.9499 38.2438 37.9812L38.5125 38.0187L42.725 33.8062L46.9375 29.5937V29.3187V29.0374L45.3875 27.4874C43.6938 25.7874 43.6188 25.7312 43.2188 25.9874ZM43.7688 27.6374C43.975 27.7437 44.0563 27.8812 44.0625 28.1249C44.0625 28.3312 43.9125 28.4937 41.7 30.6999C39.4625 32.9437 39.3313 33.0624 39.1125 33.0624C38.9375 33.0624 38.85 33.0187 38.725 32.8687C38.4062 32.4874 38.35 32.5562 40.9563 29.9562C43.425 27.4812 43.45 27.4624 43.7688 27.6374ZM37.8063 33.7874C38.1 34.0312 38.075 34.2937 37.7375 34.6687C37.3813 35.0499 37.125 35.1624 36.875 35.0312C36.6625 34.9187 36.5625 34.7624 36.5625 34.5249C36.5625 34.3999 36.6625 34.2562 36.925 33.9874C37.3438 33.5749 37.5063 33.5374 37.8063 33.7874Z" fill="white"/>
<path d="M24.4698 29.1C22.0385 29.3375 20.1385 29.7313 19.1135 30.2C18.651 30.4125 18.4698 30.5688 18.5198 30.7125C18.5385 30.7625 18.7073 30.8938 18.8885 31C19.276 31.225 19.3698 31.225 20.2823 30.975C21.4823 30.65 23.3573 30.375 25.1885 30.25C25.7573 30.2125 26.5135 30.1625 26.8698 30.1375L27.5198 30.0938L26.9573 29.7C26.6448 29.4813 26.326 29.2375 26.251 29.15C26.076 28.9688 25.851 28.9625 24.4698 29.1Z" fill="white"/>
<path d="M26.6261 31.2312C24.5511 31.3437 21.4949 31.7062 21.6949 31.8125C21.8011 31.875 23.4074 32.0937 24.6574 32.225C25.7636 32.3437 30.7261 32.425 30.6699 32.3312C30.6449 32.3 30.2824 32.025 29.8511 31.7312L29.0761 31.1875L28.0261 31.2C27.4449 31.2062 26.8136 31.2187 26.6261 31.2312Z" fill="white"/>
<path d="M18.5129 32.5249L18.5316 33.0312L18.8191 33.2249C20.1441 34.1062 25.2066 34.7812 29.6879 34.6624C31.8191 34.6124 33.5629 34.4749 33.5629 34.3687C33.5629 34.3437 33.2566 34.1062 32.8754 33.8437L32.1879 33.3687L30.4879 33.4374C26.0879 33.6187 21.4504 33.1312 19.0754 32.2374L18.4941 32.0124L18.5129 32.5249Z" fill="white"/>
<path d="M43.5003 34.5312C42.969 35.0625 42.5503 35.5062 42.5628 35.5187C42.5815 35.5312 42.7378 35.625 42.9065 35.725C43.369 35.9937 44.1503 36.7687 44.5315 37.3375C44.7128 37.6187 45.119 38.3312 45.4315 38.9187C46.2565 40.4937 46.7128 41.125 47.2128 41.3937C47.5878 41.5937 48.3628 41.5875 48.7503 41.3812C49.1503 41.1687 50.1565 40.1687 50.344 39.7875C50.544 39.3875 50.5628 38.6687 50.3815 38.2812C50.1503 37.775 49.4503 37.2687 47.8065 36.4062C47.2503 36.1125 46.569 35.725 46.2878 35.5375C45.6878 35.1375 44.9815 34.4187 44.694 33.9187C44.5815 33.725 44.4878 33.5625 44.4815 33.5625C44.4753 33.5625 44.0315 34 43.5003 34.5312Z" fill="white"/>
<path d="M19.2438 34.9312L19.0625 35.1125V41.7625V48.4187L19.2 48.5437C19.9 49.1812 22.5438 49.7625 25.8438 50C26.9875 50.0812 30.5688 50.0812 31.7375 50C34.9187 49.7687 37.7063 49.1625 38.3563 48.55L38.5 48.4187V43.8625V39.3125H38.3125C37.8875 39.3125 37.675 39.1375 35.8313 37.3L34.0125 35.4812L33.175 35.5562C30.8813 35.7562 27.5437 35.8125 25.6875 35.6875C23.9625 35.5687 21.9813 35.275 20.3625 34.9062C19.5188 34.7125 19.4688 34.7125 19.2438 34.9312ZM21.175 36.6C21.2875 36.7312 21.3125 36.8312 21.3125 37.2125C21.3125 37.725 21.2 37.95 20.9062 38.025C20.7188 38.075 20.4062 37.9312 20.3125 37.7562C20.2125 37.5562 20.2375 36.8 20.35 36.6375C20.5562 36.3375 20.925 36.325 21.175 36.6ZM29.25 37.8875C29.4062 37.9687 29.5875 38.1187 29.6625 38.225C29.8063 38.45 31.7688 43.2687 31.8813 43.6875C31.925 43.8437 31.9563 44.1937 31.9563 44.4687C31.9625 46.075 30.825 47.4375 29.2688 47.7C28.3 47.8625 27.2625 47.525 26.5563 46.8187C25.8375 46.1 25.4563 44.9562 25.6188 43.9937C25.7 43.4875 27.6687 38.5375 27.925 38.1937C28.1 37.9625 28.5 37.7562 28.7812 37.75C28.8875 37.75 29.1 37.8125 29.25 37.8875ZM21.1313 39.4312L21.3125 39.6125V43.5V47.3875L21.1313 47.5687C20.8938 47.8062 20.6688 47.8062 20.4312 47.5687L20.25 47.3875V43.5V39.6125L20.4312 39.4312C20.5438 39.325 20.6812 39.25 20.7812 39.25C20.8813 39.25 21.0188 39.325 21.1313 39.4312Z" fill="white"/>
<path d="M28.6938 38.9438C28.6625 39.025 28.2063 40.15 27.6813 41.4375L26.7188 43.7813V44.4688C26.7188 45.1313 26.725 45.1688 26.9313 45.55C27.3313 46.2875 27.9438 46.65 28.7812 46.65C29.1875 46.65 29.3438 46.625 29.6313 46.4875C30.3937 46.1375 30.8187 45.4688 30.8625 44.5625C30.8812 44.0875 30.8688 43.975 30.7 43.5313C30.4438 42.8563 28.8188 38.8563 28.7812 38.825C28.7687 38.8063 28.725 38.8625 28.6938 38.9438Z" fill="white"/>
</g>
<defs>
<clipPath id="clip0_23476_16531">
<rect width="32" height="32" fill="white" transform="translate(18.5 18.25)"/>
</clipPath>
</defs>
</svg>
