<svg width="225" height="40" viewBox="0 0 225 40" fill="none" xmlns="http://www.w3.org/2000/svg">
<g style="mix-blend-mode:luminosity" clip-path="url(#clip0_23247_16243)">
<path d="M54.9612 0.816989L49.9221 21.3664L44.8669 0.816989H30.0413V8.40463C28.2609 1.76407 21.9801 0.0956683 16.1609 0.00206202C9.07227 -0.0915443 1.63752 2.98645 1.36277 12.3801H11.1714C11.1714 9.5444 13.3419 7.92009 15.7872 7.95861C18.7875 7.93658 20.1722 9.21955 20.2437 11.2238C20.1393 12.9583 19.1172 14.1697 15.8092 14.1697H12.5122V20.992H15.507C17.2049 20.992 19.5732 21.917 19.6667 24.3453C19.7821 27.236 17.7709 28.5135 15.3036 28.5355C10.8911 28.3758 10.1768 24.9729 10.1768 22.0547H0C0.0439602 24.0204 -0.439603 36.839 15.5179 36.7453C23.1615 36.8169 28.4972 33.5958 30.0633 29.1577V35.958H40.1081V13.7952L45.5373 35.9635H54.3128L59.7641 13.8173V35.9855H69.7815V0.816989H54.9612ZM30.0688 21.3168C28.8214 18.7234 27.063 17.5891 26.0684 17.2311C28.1455 16.3061 29.239 15.0507 30.0688 12.5453V21.3168Z" fill="#FF0000"/>
<path d="M88.0969 4.78183C87.9592 4.03434 87.3436 2.85814 85.6169 2.85814C84.3304 2.85814 83.4835 3.68258 83.4835 4.58947C83.4835 5.33698 83.9618 5.93604 84.9626 6.12844L86.8652 6.49666C89.3447 6.98035 90.6754 8.59626 90.6754 10.5145C90.6754 12.614 88.9213 14.7246 85.7488 14.7246C82.1308 14.7246 80.5364 12.3942 80.3218 10.454L82.7851 9.79994C82.9007 11.152 83.8408 12.3612 85.7654 12.3612C87.1897 12.3612 87.9758 11.6467 87.9758 10.6848C87.9758 9.89887 87.3818 9.27779 86.3207 9.06893L84.4127 8.68417C82.241 8.24448 80.8388 6.83743 80.8388 4.78183C80.8388 2.35798 83.0105 0.51123 85.5895 0.51123C88.8997 0.51123 90.1696 2.51187 90.4774 4.05633L88.0969 4.78183Z" fill="black"/>
<path d="M94.409 9.70606C94.409 11.4209 95.5254 12.3827 96.834 12.3827C98.1426 12.3827 98.7969 11.5143 99.0057 10.7888L101.255 11.5363C100.831 13.1137 99.3522 14.7297 96.834 14.7297C94.0409 14.7297 91.8467 12.6136 91.8467 9.71158C91.8467 6.78754 94.0022 4.68799 96.7517 4.68799C99.3302 4.68799 100.793 6.28188 101.195 7.88129L98.9013 8.65077C98.6705 7.8648 98.0765 7.05684 96.8066 7.05684C95.5088 7.05136 94.409 7.99671 94.409 9.70606Z" fill="black"/>
<path d="M104.24 0.285645C105.126 0.285645 105.818 1.00016 105.818 1.87956C105.818 2.72599 105.126 3.43501 104.24 3.43501C103.377 3.43501 102.663 2.72599 102.663 1.87956C102.663 0.994664 103.377 0.285645 104.24 0.285645ZM102.97 14.4386V4.97947H105.527V14.4386H102.97Z" fill="black"/>
<path d="M116.651 11.7289C116.172 13.3613 114.671 14.7243 112.34 14.7243C109.745 14.7243 107.452 12.8611 107.452 9.66774C107.452 6.64482 109.684 4.68262 112.109 4.68262C115.034 4.68262 116.788 6.55138 116.788 9.58531C116.788 9.95358 116.75 10.3383 116.75 10.3768H109.976C110.031 11.6244 111.092 12.5313 112.362 12.5313C113.555 12.5313 114.209 11.9377 114.517 11.0913L116.651 11.7289ZM114.264 8.62895C114.226 7.68909 113.61 6.76572 112.147 6.76572C110.822 6.76572 110.091 7.76603 110.031 8.62895H114.264Z" fill="black"/>
<path d="M121.149 14.4388H118.592V4.97975H121.072V6.15044C121.649 5.16662 122.782 4.73242 123.805 4.73242C126.152 4.73242 127.23 6.4033 127.23 8.48087V14.4388H124.673V8.91507C124.673 7.85979 124.156 7.02986 122.925 7.02986C121.808 7.02986 121.154 7.89826 121.154 8.99202V14.4388H121.149Z" fill="black"/>
<path d="M131.387 9.70606C131.387 11.4209 132.503 12.3827 133.812 12.3827C135.12 12.3827 135.774 11.5143 135.983 10.7888L138.232 11.5363C137.809 13.1137 136.33 14.7297 133.806 14.7297C131.013 14.7297 128.824 12.6136 128.824 9.71158C128.824 6.78754 130.98 4.68799 133.729 4.68799C136.308 4.68799 137.77 6.28188 138.172 7.88129L135.879 8.65077C135.648 7.8648 135.054 7.05684 133.784 7.05684C132.486 7.05136 131.387 7.99671 131.387 9.70606Z" fill="black"/>
<path d="M148.454 11.7289C147.97 13.3613 146.469 14.7243 144.143 14.7243C141.548 14.7243 139.255 12.8611 139.255 9.66774C139.255 6.64482 141.487 4.68262 143.912 4.68262C146.837 4.68262 148.586 6.55138 148.586 9.58531C148.586 9.95358 148.547 10.3383 148.547 10.3768H141.773C141.834 11.6244 142.89 12.5313 144.159 12.5313C145.353 12.5313 146.007 11.9377 146.315 11.0913L148.454 11.7289ZM146.067 8.62895C146.029 7.68909 145.413 6.76572 143.951 6.76572C142.625 6.76572 141.894 7.76603 141.834 8.62895H146.067Z" fill="black"/>
<path d="M151.896 11.0747C152.875 11.0747 153.666 11.8607 153.666 12.828C153.666 13.7844 152.875 14.5758 151.896 14.5758C150.934 14.5758 150.147 13.7844 150.147 12.828C150.147 11.8607 150.934 11.0747 151.896 11.0747Z" fill="black"/>
<path d="M89.4275 32.5047H83.8848L82.7522 35.6211H79.9424L85.1772 21.9849H88.2561L93.4469 35.6211H90.5601L89.4275 32.5047ZM84.7704 30.0809H88.5423L86.6564 24.9254L84.7704 30.0809Z" fill="black"/>
<path d="M94.8706 39.2763V26.1567H97.356V27.3109C97.7794 26.58 98.8351 25.9424 100.259 25.9424C103.03 25.9424 104.625 28.0584 104.625 30.867C104.625 33.7306 102.838 35.8521 100.16 35.8521C98.8518 35.8521 97.8892 35.33 97.4275 34.6979V39.2763H94.8706ZM99.759 28.2343C98.4504 28.2343 97.3947 29.2182 97.3947 30.889C97.3947 32.5599 98.4504 33.5602 99.759 33.5602C101.068 33.5602 102.107 32.5819 102.107 30.889C102.101 29.2127 101.068 28.2343 99.759 28.2343Z" fill="black"/>
<path d="M106.319 39.2763V26.1567H108.805V27.3109C109.228 26.58 110.283 25.9424 111.708 25.9424C114.479 25.9424 116.074 28.0584 116.074 30.867C116.074 33.7306 114.287 35.8521 111.609 35.8521C110.3 35.8521 109.338 35.33 108.882 34.6979V39.2763H106.319ZM111.207 28.2343C109.899 28.2343 108.843 29.2182 108.843 30.889C108.843 32.5599 109.899 33.5602 111.207 33.5602C112.516 33.5602 113.555 32.5819 113.555 30.889C113.555 29.2127 112.516 28.2343 111.207 28.2343Z" fill="black"/>
<path d="M117.805 35.6159V21.6938H120.367V35.6159H117.805Z" fill="black"/>
<path d="M124.266 21.4629C125.151 21.4629 125.844 22.1774 125.844 23.0568C125.844 23.9032 125.151 24.6122 124.266 24.6122C123.397 24.6122 122.688 23.9032 122.688 23.0568C122.688 22.1774 123.403 21.4629 124.266 21.4629ZM123.001 35.6158V26.1567H125.558V35.6158H123.001Z" fill="black"/>
<path d="M136.753 32.906C136.274 34.5438 134.773 35.9069 132.442 35.9069C129.846 35.9069 127.554 34.0437 127.554 30.8504C127.554 27.8274 129.786 25.8652 132.211 25.8652C135.136 25.8652 136.885 27.734 136.885 30.7679C136.885 31.1362 136.846 31.5209 136.846 31.5594H130.078C130.138 32.807 131.194 33.7139 132.464 33.7139C133.657 33.7139 134.311 33.1203 134.619 32.2739L136.753 32.906ZM134.372 29.8116C134.333 28.8717 133.717 27.9483 132.255 27.9483C130.924 27.9483 130.193 28.9487 130.138 29.8116H134.372Z" fill="black"/>
<path d="M147.915 33.9066C147.915 34.5441 147.953 35.2366 147.992 35.6214H145.545C145.506 35.429 145.451 34.9673 145.451 34.5276C145.028 35.2751 144.066 35.8577 142.796 35.8577C140.101 35.8577 138.177 33.7417 138.177 30.8726C138.177 28.1025 140.047 25.9259 142.719 25.9259C144.352 25.9259 145.122 26.602 145.391 27.1022V21.6938H147.915V33.9066ZM143.104 33.5603C144.412 33.5603 145.429 32.56 145.429 30.8506C145.429 29.1633 144.407 28.2179 143.104 28.2179C141.795 28.2179 140.756 29.1797 140.756 30.8726C140.756 32.56 141.757 33.5603 143.104 33.5603Z" fill="black"/>
<path d="M157.977 26.1567H159.879V28.4267H157.977V32.384C157.977 33.2139 158.362 33.4833 159.093 33.4833C159.401 33.4833 159.748 33.4448 159.879 33.4064V35.5224C159.649 35.6158 159.187 35.7532 158.439 35.7532C156.591 35.7532 155.437 34.654 155.437 32.8237V28.4267H153.727V26.1567H154.21C155.211 26.1567 155.673 25.5027 155.673 24.6563V23.3262H157.983V26.1567H157.977Z" fill="black"/>
<path d="M171.08 30.8888C171.08 33.7909 168.947 35.9069 166.115 35.9069C163.289 35.9069 161.155 33.7909 161.155 30.8888C161.155 27.9648 163.289 25.8652 166.115 25.8652C168.941 25.8652 171.08 27.9648 171.08 30.8888ZM168.523 30.8888C168.523 29.0971 167.368 28.1957 166.115 28.1957C164.867 28.1957 163.712 29.0971 163.712 30.8888C163.712 32.6586 164.867 33.5765 166.115 33.5765C167.368 33.5765 168.523 32.6751 168.523 30.8888Z" fill="black"/>
<path d="M176.7 35.6157V21.9849H179.356V33.0764H185.432V35.6157H176.7Z" fill="black"/>
<path d="M188.455 21.4629C189.34 21.4629 190.028 22.1774 190.028 23.0568C190.028 23.9032 189.335 24.6122 188.455 24.6122C187.587 24.6122 186.877 23.9032 186.877 23.0568C186.872 22.1774 187.587 21.4629 188.455 21.4629ZM187.179 35.6158V26.1567H189.742V35.6158H187.179Z" fill="black"/>
<path d="M195.779 25.1181V26.1569H197.913V28.3499H195.779V35.616H193.2V28.3499H191.622V26.1569H193.2V25.0796C193.2 22.9416 194.548 21.562 196.642 21.562C197.181 21.562 197.703 21.6554 197.913 21.7544V23.9089C197.775 23.8649 197.527 23.81 197.104 23.81C196.532 23.81 195.779 24.0628 195.779 25.1181Z" fill="black"/>
<path d="M207.711 32.906C207.227 34.5438 205.726 35.9069 203.4 35.9069C200.805 35.9069 198.512 34.0437 198.512 30.8504C198.512 27.8274 200.739 25.8652 203.169 25.8652C206.094 25.8652 207.843 27.734 207.843 30.7679C207.843 31.1362 207.805 31.5209 207.805 31.5594H201.03C201.085 32.807 202.146 33.7139 203.417 33.7139C204.61 33.7139 205.264 33.1203 205.572 32.2739L207.711 32.906ZM205.325 29.8116C205.286 28.8717 204.67 27.9483 203.208 27.9483C201.883 27.9483 201.151 28.9487 201.091 29.8116H205.325Z" fill="black"/>
<path d="M211.153 32.2573C212.132 32.2573 212.924 33.0433 212.924 34.0051C212.924 34.967 212.132 35.7585 211.153 35.7585C210.191 35.7585 209.405 34.967 209.405 34.0051C209.405 33.0433 210.191 32.2573 211.153 32.2573Z" fill="black"/>
<path d="M217.13 26.1455V21.9849H218.235L219.455 25.0023L220.649 21.9849H221.759V26.1455H220.962V23.2545L219.791 26.1455H219.093L217.921 23.26V26.1455H217.13Z" fill="black"/>
<path d="M212.923 21.9849H216.377V22.7598H215.057V26.1455H214.237V22.7598H212.923V21.9849Z" fill="black"/>
</g>
<defs>
<clipPath id="clip0_23247_16243">
<rect width="225" height="40" fill="white"/>
</clipPath>
</defs>
</svg>
