<svg width="123" height="40" viewBox="0 0 123 40" fill="none" xmlns="http://www.w3.org/2000/svg">
<g clip-path="url(#clip0_23247_16269)">
<mask id="mask0_23247_16269" style="mask-type:luminance" maskUnits="userSpaceOnUse" x="0" y="0" width="123" height="40">
<path d="M123 0H0V39.9229H123V0Z" fill="white"/>
</mask>
<g mask="url(#mask0_23247_16269)">
<path d="M23.8957 25.9006L21.3846 21.2619L18.7786 25.9006M7.16659 36.3875L29.9889 36.3998C29.4142 36.0079 28.6937 34.4744 28.6937 34.4744L7.32396 34.4829C5.13144 34.3288 4.83543 31.0128 7.63104 31.0874L26.8177 31.0991L25.721 29.12H7.03388C2.43449 29.3207 2.2733 36.0108 7.16659 36.3875ZM38.855 30.9202L27.2617 10.0788C27.2352 11.0126 26.3596 12.3682 26.3596 12.3682L37.1111 31.7043C38.0382 33.696 35.2636 35.5703 33.9743 33.0913L24.4779 15.857L23.3283 17.8825L32.5633 34.5558C34.9691 38.4776 40.8965 35.3787 38.855 30.9202ZM18.3082 5.17495L6.58603 26.2361C7.38647 25.8297 8.89253 25.9526 8.89253 25.9526L19.8942 6.24371C21.1 4.40827 24.1559 5.78125 22.7239 8.18096L12.7532 25.9006H15.0129L24.7119 8.61033C26.7845 4.5029 21.0294 1.09508 18.3082 5.17495ZM42.0303 30.2523C44.2638 34.7973 40.6171 39.6861 36.7492 39.7036L6.46992 39.7065L6.3419 39.7168C1.18065 39.6861 -1.23431 33.958 0.621359 30.5234L16.0719 2.84565C18.6374 -1.07256 24.5349 -0.837087 26.9035 2.89105L41.5578 29.3708L42.0303 30.2523Z" fill="#E12A27"/>
<path d="M76.3879 18.8282C76.3879 18.8282 82.4729 18.821 82.5115 18.821C84.8227 18.8439 85.22 20.6365 85.2003 21.6781C85.1676 23.5025 84.021 23.9081 82.9182 24.1822C83.7088 25.3242 84.9902 26.899 85.8205 28.0096H82.5332L79.3158 22.8618C79.3158 22.8618 80.8801 22.8788 81.6269 22.8631C82.8909 22.8347 82.8557 20.7349 81.5962 20.7409L79.1027 20.7332C79.1027 20.7332 79.0823 28.0091 79.1027 28.0091C78.1763 28.0091 77.3146 28.0091 76.3884 28.0091C76.3879 26.1336 76.3879 18.8282 76.3879 18.8282ZM50.2521 32.9134H51.7903C53.689 32.9134 54.9199 33.681 54.9199 35.2656C54.9199 37.0082 53.899 37.6788 51.7903 37.7154H50.2521M47.692 39.6658H52.2833C55.5285 39.6658 57.5189 38.1299 57.5189 35.2776C57.5189 32.5834 55.5583 30.9635 52.2833 30.9635H47.692V39.6658ZM58.5236 39.685H66.834V37.7272H61.0449V36.0629H66.2177V34.3017H61.0449V32.7726H66.6898V30.9498H58.5236M67.8891 39.7193H70.3104V34.2523H70.3402L74.2179 39.7193H77.0624V30.9495H74.7143V36.3529H74.4255L70.7328 30.9495H67.8883M107.207 37.9022C105.374 37.9022 104.67 36.5628 104.67 35.2236C104.67 33.8855 105.374 32.5456 107.207 32.5456C109.042 32.5456 109.746 33.885 109.746 35.2236C109.745 36.5628 109.042 37.9022 107.207 37.9022ZM101.826 35.2231C101.826 37.8383 103.768 39.923 107.207 39.923C110.647 39.923 112.59 37.8383 112.59 35.2231C112.59 32.6091 110.647 30.5247 107.207 30.5247C103.768 30.5247 101.826 32.6091 101.826 35.2231ZM78.9241 39.6815H81.3458V34.216H81.375L85.2527 39.6815H88.0972V30.9117H85.7492V36.3166H85.4603L81.7674 30.9117H78.9227M89.9002 39.7463H92.5233V30.9164H89.9002V39.7463ZM93.8706 39.4192C94.7454 39.6747 95.8871 39.802 96.8037 39.802C98.9894 39.802 101.134 39.1753 101.134 36.8622C101.134 33.6415 96.4799 34.6126 96.4799 33.1691C96.4799 32.3895 97.5793 32.3377 98.2428 32.3377C98.9896 32.3377 99.7515 32.4653 100.428 32.7466L100.597 30.9058C99.9352 30.7024 99.0046 30.5748 98.059 30.5748C96.0848 30.5748 93.7727 31.1628 93.7727 33.3093C93.7727 36.5559 98.4253 35.5078 98.4253 37.1699C98.4253 37.8852 97.6369 38.0391 96.8037 38.0391C95.7178 38.0391 94.7727 37.7829 94.0969 37.4511M113.828 39.6815H116.249V34.216H116.278L120.156 39.6815H123V30.9117H120.652V36.3166H120.363L116.671 30.9117H113.827M52.8371 21.3357L52.8678 21.2249L54.102 23.9429H51.6823M47.3267 27.9306H49.8649L50.7977 25.9196H54.9829L55.9202 27.9306H58.6163L54.4474 18.8062H51.4956L47.3267 27.9306ZM66.8394 18.8062H64.0566L61.588 25.1674L58.9339 18.8062H56.1517L60.1248 27.9306H62.9176M95.5459 18.8062H92.3292L90.1626 22.5122L87.9981 18.8062H84.7806L88.7449 24.5309V27.9306H91.5811V24.5309M67.1498 28.0096H75.4275V25.9598H69.6622V24.2178H74.813V22.3735H69.6622V20.7718H75.2851V18.863H67.1498" fill="black"/>
</g>
</g>
<defs>
<clipPath id="clip0_23247_16269">
<rect width="123" height="40" fill="white"/>
</clipPath>
</defs>
</svg>
