<svg width="32" height="32" viewBox="0 0 32 32" fill="none" xmlns="http://www.w3.org/2000/svg">
<path d="M5.45 1.125C5.19375 1.28125 5 1.59375 5 1.85625C5 2.04375 4.9875 2.05625 4.55 2.1875C3.23125 2.5875 2.14375 3.49375 1.53125 4.71875C1.075 5.625 1 6.03125 1 7.6375V9H16H31V7.6375C31 6.03125 30.925 5.625 30.4688 4.71875C29.8563 3.49375 28.7688 2.5875 27.4563 2.1875C27.0125 2.05625 27 2.04375 27 1.85625C27 1.375 26.5562 1 26 1C25.4563 1 25 1.375 25 1.825V2H23.5H22V1.825C22 1.375 21.5438 1 21 1C20.4563 1 20 1.375 20 1.825V2H18.5H17V1.825C17 1.375 16.5437 1 16 1C15.4563 1 15 1.375 15 1.825V2H13.5H12V1.825C12 1.375 11.5437 1 11 1C10.4563 1 10 1.375 10 1.825V2H8.5H7V1.825C7 1.375 6.54375 1 6 1C5.76875 1 5.5875 1.0375 5.45 1.125ZM6.9875 2.61875C6.9625 3.08125 6.925 3.2875 6.8375 3.44375C6.45 4.1 5.55 4.10625 5.16875 3.45C5.08125 3.30625 5.0375 3.075 5.0125 2.6875L4.98125 2.13125L5.19375 2.1C5.48125 2.05 5.86875 2.025 6.49375 2.0125L7.01875 2L6.9875 2.61875ZM11.9875 2.61875C11.9563 3.31875 11.85 3.5625 11.5 3.79375C11.0688 4.0875 10.4438 3.925 10.1625 3.44375C10.075 3.2875 10.0375 3.08125 10.0125 2.61875L9.98125 2H11H12.0188L11.9875 2.61875ZM16.9875 2.61875C16.9625 3.08125 16.925 3.2875 16.8375 3.44375C16.45 4.10625 15.55 4.10625 15.1625 3.44375C15.075 3.2875 15.0375 3.08125 15.0125 2.61875L14.9812 2H16H17.0188L16.9875 2.61875ZM21.9875 2.61875C21.9563 3.31875 21.85 3.5625 21.5 3.79375C21.0688 4.0875 20.4438 3.925 20.1625 3.44375C20.075 3.2875 20.0375 3.08125 20.0125 2.61875L19.9813 2H21H22.0188L21.9875 2.61875ZM26.8125 2.1L27.0188 2.14375L26.9875 2.69375C26.9625 3.075 26.9188 3.30625 26.8313 3.45C26.45 4.10625 25.55 4.1 25.1625 3.44375C25.075 3.2875 25.0375 3.08125 25.0125 2.60625L24.9813 1.98125L25.7938 2.01875C26.2437 2.04375 26.7 2.08125 26.8125 2.1Z" fill="white"/>
<path d="M1.00002 18.8625C1.00002 27.7938 0.962521 27.1437 1.53127 28.2812C2.16252 29.5562 3.37502 30.525 4.77502 30.875C5.25627 30.9937 5.48752 31 11.8188 31H18.3688L17.7 30.325C16.3438 28.9625 15.4813 27.3062 15.1563 25.4437C15.0375 24.7687 15.0375 23.3187 15.1563 22.5938C15.4188 20.9625 16.15 19.4062 17.2375 18.1438C18.5938 16.5813 20.4813 15.5188 22.5625 15.15C23.1938 15.0437 24.6625 15.025 25.2813 15.125C27.2438 15.4375 28.9063 16.2875 30.3313 17.7L31 18.3687V14.6812V11H16H1.00002V18.8625ZM7.48752 15.1875C8.08752 15.5562 8.08752 16.4437 7.48752 16.8125C7.21877 16.975 6.78127 16.975 6.51252 16.8125C5.70002 16.3187 6.05002 15.0625 7.00002 15.0625C7.16877 15.0625 7.36252 15.1125 7.48752 15.1875ZM13.4875 15.1875C14.3 15.6812 13.95 16.9375 13 16.9375C12.4688 16.9375 12.0625 16.5312 12.0625 16C12.0625 15.4688 12.4688 15.0625 13 15.0625C13.1688 15.0625 13.3625 15.1125 13.4875 15.1875ZM7.48752 20.1875C8.30002 20.6812 7.95002 21.9375 7.00002 21.9375C6.05002 21.9375 5.70002 20.6812 6.51252 20.1875C6.78127 20.025 7.21877 20.025 7.48752 20.1875ZM13.4875 20.1875C14.3 20.6812 13.95 21.9375 13 21.9375C12.4688 21.9375 12.0625 21.5312 12.0625 21C12.0625 20.275 12.8688 19.8125 13.4875 20.1875ZM7.48752 25.1875C8.30002 25.6813 7.95002 26.9375 7.00002 26.9375C6.46877 26.9375 6.06252 26.5312 6.06252 26C6.06252 25.4688 6.46877 25.0625 7.00002 25.0625C7.16877 25.0625 7.36252 25.1125 7.48752 25.1875ZM13.4875 25.1875C14.3 25.6813 13.95 26.9375 13 26.9375C12.4688 26.9375 12.0625 26.5312 12.0625 26C12.0625 25.4688 12.4688 25.0625 13 25.0625C13.1688 25.0625 13.3625 25.1125 13.4875 25.1875Z" fill="white"/>
<path d="M22.5 17.1312C19.8 17.7125 17.6813 19.85 17.125 22.5625C17.0063 23.125 16.9938 23.3625 17.0188 24.2188C17.0563 25.3625 17.1625 25.9062 17.55 26.8C18.4063 28.7812 20.1875 30.2937 22.3063 30.8312C22.7625 30.95 23.0188 30.9688 24 30.9688C24.9813 30.9688 25.2375 30.95 25.6938 30.8312C28.2125 30.1875 30.1875 28.2125 30.8313 25.6937C30.95 25.2375 30.9688 24.9812 30.9688 24C30.9688 23.0187 30.95 22.7625 30.8313 22.3062C30.1938 19.8 28.2125 17.8125 25.725 17.175C24.9563 16.9812 23.3063 16.9563 22.5 17.1312ZM24.5 20.2063C24.9188 20.4812 24.9688 20.65 24.9875 21.8812L25.0125 22.9812L25.625 23.0125C26.0813 23.0375 26.2875 23.075 26.4438 23.1625C27.1063 23.55 27.1063 24.45 26.4375 24.8375C26.2375 24.9562 26.1188 24.9688 25 24.9688C23.8813 24.9688 23.7625 24.9562 23.5625 24.8375C23.2625 24.6625 23.0813 24.3688 23.0313 23.9812C23.0063 23.8 23 23.0062 23.0125 22.2188C23.0313 20.9 23.0438 20.7625 23.1625 20.5625C23.45 20.075 24.0625 19.9062 24.5 20.2063Z" fill="white"/>
</svg>
