<svg width="32" height="32" viewBox="0 0 32 32" fill="none" xmlns="http://www.w3.org/2000/svg">
<g clip-path="url(#clip0_22913_49305)">
<path d="M1.81231 0.112499C1.18106 0.35 0.737307 0.699999 0.406057 1.21875C-0.0376927 1.9125 -0.000192704 0.63125 -0.000192704 16C-0.000192704 28.7313 0.0060573 29.875 0.106057 30.1625C0.374807 30.9688 1.02481 31.6188 1.83731 31.8937C2.11231 31.9875 2.56231 32 5.87481 32C9.37481 32 9.62481 31.9937 9.94981 31.8813C10.7936 31.5938 11.4061 30.9688 11.6686 30.1313C11.7748 29.8 11.7811 29.0312 11.7811 16C11.7811 2.96875 11.7748 2.2 11.6686 1.86875C11.4061 1.03125 10.7936 0.40625 9.94981 0.11875C9.62481 0.00625038 9.38106 0 5.84981 0.00625038C2.49981 0.00625038 2.06231 0.0187492 1.81231 0.112499ZM6.59356 24.5563C7.04356 24.7687 7.24981 24.9812 7.46231 25.4375C7.92481 26.4313 7.32481 27.5687 6.21231 27.8187C5.56231 27.9625 4.82481 27.6562 4.44356 27.0812C3.48106 25.6312 5.03106 23.8062 6.59356 24.5563Z" fill="white"/>
<path d="M14.0934 1.25C13.9559 1.2875 13.7621 1.34375 13.6684 1.3875C13.4996 1.45 13.4934 1.475 13.5371 1.68125C13.5621 1.80625 13.5996 6.41875 13.6184 11.9375L13.6559 21.9688L13.9121 21.5312C15.1809 19.3812 21.6871 8.0625 21.8371 7.75C22.0184 7.36875 22.0309 7.3 22.0246 6.625C22.0246 6.01875 21.9996 5.85625 21.8809 5.59375C21.6746 5.1375 21.2996 4.68125 20.9246 4.425C20.3371 4.03125 15.9809 1.5375 15.6121 1.39375C15.2059 1.23125 14.4684 1.1625 14.0934 1.25Z" fill="white"/>
<path d="M23.9187 8.31191C23.7874 8.33691 23.6437 8.39316 23.5999 8.44316C23.5562 8.49316 21.2937 12.3932 18.5687 17.1119L13.6187 25.6932L13.6374 26.1557L13.6562 26.6182L21.1562 22.2932C25.7687 19.6244 28.7687 17.8557 28.9562 17.6869C29.5499 17.1619 29.8249 16.5244 29.8187 15.7057C29.8187 15.3807 29.7749 15.0619 29.6999 14.8557C29.6374 14.6744 28.9312 13.3744 28.1249 11.9682C26.5249 9.18691 26.3312 8.91816 25.6499 8.57441C25.0874 8.29316 24.4874 8.19941 23.9187 8.31191Z" fill="white"/>
<path d="M21.7812 24.0245L13.6562 28.7245L13.6125 29.3745C13.55 30.3745 13.35 31.0433 12.9125 31.737L12.75 31.9995H21.3C30.7812 31.9995 30.1 32.0308 30.7812 31.5933C31.3187 31.2433 31.7 30.7558 31.9 30.1495C31.9937 29.862 32 29.4245 31.9875 25.5245L31.9687 21.2183L31.7625 20.7933C31.4875 20.2433 31.0437 19.7933 30.55 19.562C30.3312 19.4683 30.1 19.3745 30.0312 19.3558C29.9437 19.337 27.3562 20.7995 21.7812 24.0245Z" fill="white"/>
</g>
<defs>
<clipPath id="clip0_22913_49305">
<rect width="32" height="32" fill="white"/>
</clipPath>
</defs>
</svg>
