<svg width="40" height="40" viewBox="0 0 40 40" fill="none" xmlns="http://www.w3.org/2000/svg">
<path d="M4.88281 1.39844C3.14062 1.90625 1.82031 3.25781 1.375 4.97656C1.1875 5.6875 1.1875 14.3125 1.375 15.0312C1.82031 16.75 3.3125 18.2344 5.00781 18.6328C5.74219 18.8047 14.25 18.8047 14.9844 18.6328C16.3672 18.3047 17.6328 17.2812 18.2656 15.9766C18.75 14.9922 18.75 14.9922 18.75 10C18.75 4.91406 18.7578 4.98438 18.1953 3.89844C17.6172 2.79688 16.6328 1.92969 15.4453 1.49219L14.8828 1.28906L10.1172 1.27344C5.77344 1.25781 5.3125 1.27344 4.88281 1.39844Z" fill="#0A67F2"/>
<path d="M29.3203 1.40625C29.1797 1.48438 29.0078 1.64844 28.9375 1.76562C28.8594 1.875 28.6094 2.78125 28.3828 3.78125C27.9062 5.86719 27.6953 6.38281 27.0391 7.03906C26.3828 7.69531 25.8672 7.90625 23.7734 8.38281C22.7812 8.61719 21.875 8.85938 21.7578 8.9375C21.0703 9.39062 21.0703 10.6094 21.7578 11.0625C21.875 11.1406 22.7812 11.3828 23.7734 11.6172C25.8672 12.0938 26.3828 12.3047 27.0391 12.9609C27.6953 13.6172 27.9062 14.1328 28.3828 16.2188C28.6094 17.2188 28.8594 18.125 28.9375 18.2344C29.3906 18.9297 30.6094 18.9297 31.0625 18.2344C31.1406 18.125 31.3906 17.2188 31.6172 16.2188C32.0938 14.1328 32.3047 13.6172 32.9609 12.9609C33.6172 12.3047 34.1328 12.0938 36.2188 11.6172C37.2188 11.3906 38.125 11.1406 38.2344 11.0625C38.9297 10.6094 38.9297 9.39062 38.2344 8.9375C38.125 8.85938 37.2188 8.60938 36.2188 8.38281C34.1328 7.90625 33.6172 7.69531 32.9609 7.03906C32.3047 6.38281 32.0938 5.86719 31.6172 3.78125C31.3906 2.78125 31.1406 1.875 31.0625 1.76562C30.8438 1.42188 30.4844 1.25 30 1.25C29.7109 1.25 29.4844 1.29688 29.3203 1.40625Z" fill="#0A67F2"/>
<path d="M4.88281 21.3984C3.14062 21.9062 1.82031 23.2578 1.375 24.9766C1.1875 25.6875 1.1875 34.3125 1.375 35.0312C1.82031 36.75 3.3125 38.2344 5.00781 38.6328C5.74219 38.8047 14.25 38.8047 14.9844 38.6328C16.3672 38.3047 17.6328 37.2812 18.2656 35.9766C18.75 34.9922 18.75 34.9922 18.75 30C18.75 24.9141 18.7578 24.9844 18.1953 23.8984C17.6172 22.7969 16.6328 21.9297 15.4453 21.4922L14.8828 21.2891L10.1172 21.2734C5.77344 21.2578 5.3125 21.2734 4.88281 21.3984Z" fill="#0A67F2"/>
<path d="M24.8828 21.3984C23.1406 21.9062 21.8203 23.2578 21.375 24.9766C21.1875 25.6875 21.1875 34.3125 21.375 35.0312C21.8203 36.75 23.3125 38.2344 25.0078 38.6328C25.7422 38.8047 34.25 38.8047 34.9844 38.6328C36.3672 38.3047 37.6328 37.2812 38.2656 35.9766C38.75 34.9922 38.75 34.9922 38.75 30C38.75 24.9141 38.7578 24.9844 38.1953 23.8984C37.6172 22.7969 36.6328 21.9297 35.4453 21.4922L34.8828 21.2891L30.1172 21.2734C25.7734 21.2578 25.3125 21.2734 24.8828 21.3984Z" fill="#0A67F2"/>
</svg>
