<svg width="40" height="40" viewBox="0 0 40 40" fill="none" xmlns="http://www.w3.org/2000/svg">
<g clip-path="url(#clip0_23208_59318)">
<path d="M11.8047 0.15625C10.8828 0.492188 10.1875 1.11719 9.74219 2.02344L9.49219 2.53906L9.46875 9.58594L9.45312 16.6328H10.6406C12.75 16.6328 14.5391 17.0625 16.4062 18.0156C17.6953 18.6719 18.6719 19.3828 19.7031 20.4062L20.5469 21.2422L27.0547 21.2656L33.5547 21.2891L33.8281 21.4609C34.5703 21.9219 34.5625 22.9453 33.8125 23.3984C33.5625 23.5469 33.3984 23.5547 27.8359 23.5781C24.6875 23.5859 22.1094 23.625 22.1094 23.6641C22.1094 23.6953 22.2266 23.9844 22.375 24.3047C22.75 25.125 23.1016 26.2812 23.25 27.1719C23.3203 27.5859 23.3906 28.0078 23.4062 28.1016L23.4375 28.2734L28.5 28.2969C33.3984 28.3203 33.5625 28.3281 33.8125 28.4766C34.5625 28.9297 34.5625 29.9766 33.8125 30.4297C33.5625 30.5781 33.3984 30.5859 28.5 30.6094L23.4375 30.6328L23.4062 30.8047C23.3906 30.8984 23.3125 31.3281 23.25 31.7578C23.0859 32.7344 22.625 34.125 22.1484 35.0859C21.2188 36.9375 20.0469 38.3594 18.3672 39.6719L17.9531 40L27.6641 39.9844L37.3828 39.9609L37.9297 39.6953C38.6484 39.3438 39.2656 38.7266 39.6172 38.0078L39.8828 37.4609L39.9062 23.8125L39.9219 10.1641L35.2969 10.1406C30.6875 10.1172 30.6641 10.1172 30.3906 9.94531C30.2422 9.85156 30.0469 9.65625 29.9609 9.51562C29.8125 9.26562 29.8047 9.10156 29.7812 4.625L29.7578 0H20.9922C12.5391 0.0078125 12.2109 0.0078125 11.8047 0.15625ZM33.8281 14.4297C34.1875 14.6484 34.375 14.9844 34.375 15.3906C34.375 15.7969 34.1875 16.1328 33.8281 16.3516L33.5547 16.5234H24.6875C15.9609 16.5234 15.8125 16.5234 15.5625 16.3672C15.2109 16.1562 15 15.7969 15 15.3984C15 14.8281 15.3281 14.4297 15.8984 14.2891C16.0234 14.2578 20.0547 14.2422 24.8438 14.2422L33.5547 14.2578L33.8281 14.4297Z" fill="#0A67F2"/>
<path d="M32.1094 4.21875V7.8125H35.7188H39.3359L35.7422 4.21875C33.7656 2.24219 32.1406 0.625 32.1328 0.625C32.1172 0.625 32.1094 2.24219 32.1094 4.21875Z" fill="#0A67F2"/>
<path d="M8.75781 19.0312C4.49219 19.75 0.945312 23.3047 0.203125 27.6172C0.0390625 28.5391 0.0390625 30.3672 0.203125 31.2891C0.953125 35.6406 4.50781 39.1797 8.82812 39.8828C9.78125 40.0312 11.4688 40.0312 12.4219 39.8828C16.7578 39.1797 20.3516 35.5859 21.0547 31.25C21.2031 30.2969 21.2031 28.6094 21.0547 27.6562C20.3516 23.3203 16.7578 19.7266 12.4219 19.0234C11.5078 18.875 9.65625 18.8828 8.75781 19.0312ZM11.2031 23.0391C11.5234 23.25 11.7031 23.5703 11.7656 24.0391C11.8125 24.4453 11.8203 24.4531 12.2188 24.6328C13.1172 25.0469 13.6719 25.8594 13.6719 26.7656C13.6719 27.1797 13.6406 27.2891 13.4688 27.5C12.9531 28.1016 12.2656 28.125 11.7266 27.5469C11.625 27.4375 11.5156 27.2109 11.4922 27.0547L11.4453 26.7578L10.6406 26.7344L9.84375 26.7109V27.4844V28.2578L10.8125 28.2969C11.625 28.3359 11.8516 28.375 12.2031 28.5312C12.8047 28.8125 13.1641 29.1562 13.4531 29.75C13.7109 30.2656 13.7109 30.2812 13.7109 31.4062C13.7109 32.4609 13.6953 32.5703 13.5078 32.9688C13.2188 33.5859 12.875 33.9453 12.3047 34.2266L11.8125 34.4688L11.7656 34.875C11.6719 35.5938 11.25 36.0156 10.625 36.0156C10 36.0156 9.57812 35.5938 9.48438 34.8672C9.4375 34.4609 9.42969 34.4531 9.03125 34.2734C8.13281 33.8594 7.57812 33.0469 7.57812 32.1406C7.57812 31.7266 7.60938 31.6172 7.78125 31.4062C8.29688 30.8047 8.98438 30.7812 9.52344 31.3594C9.625 31.4688 9.73438 31.6953 9.75781 31.8516L9.80469 32.1484L10.6094 32.1719L11.4062 32.1953V31.4219V30.6484L10.4375 30.6094C9.625 30.5703 9.39844 30.5312 9.04688 30.375C8.44531 30.0938 8.08594 29.75 7.79688 29.1562C7.53906 28.6406 7.53906 28.625 7.53906 27.5C7.53906 26.375 7.53906 26.3594 7.79688 25.8438C8.08594 25.2578 8.44531 24.9062 9.03125 24.6328C9.42188 24.4531 9.4375 24.4375 9.48438 24.0469C9.55469 23.5312 9.69531 23.2578 10.0156 23.0547C10.3438 22.8438 10.8984 22.8359 11.2031 23.0391Z" fill="#0A67F2"/>
</g>
<defs>
<clipPath id="clip0_23208_59318">
<rect width="40" height="40" fill="white"/>
</clipPath>
</defs>
</svg>
