<svg width="24" height="24" viewBox="0 0 24 24" fill="none" xmlns="http://www.w3.org/2000/svg">
<path d="M9.66028 0.0890698C9.38946 0.262507 9.32175 0.440632 9.29757 0.993757L9.28307 1.50001H8.78978C8.19977 1.50001 8.02084 1.57032 7.85641 1.87501C7.71616 2.12813 7.71616 2.26876 7.85641 2.53126C8.016 2.84532 8.19977 2.92501 8.78978 2.94376L9.28307 2.96251L9.30241 3.44063C9.32175 4.0125 9.40397 4.19063 9.72799 4.34532C9.98914 4.47657 10.1246 4.47657 10.3905 4.35938C10.7194 4.21875 10.7919 4.05469 10.7919 3.46407V2.96251L11.3142 2.94376C12.0252 2.92032 12.2379 2.79844 12.3395 2.36719C12.3975 2.12344 12.3202 1.87969 12.1267 1.69219L11.9526 1.52344L11.3771 1.50938L10.8016 1.49063L10.7823 0.928132L10.7678 0.37032L10.5646 0.18282C10.376 0.01407 10.3373 7.62939e-06 10.081 7.62939e-06C9.88758 7.62939e-06 9.75701 0.0281324 9.66028 0.0890698Z" fill="#242B3A"/>
<path d="M19.7486 0.0937595C19.6567 0.145322 19.5455 0.276572 19.4971 0.389072C19.4052 0.58126 19.4004 0.773447 19.4004 6.77344V12.9609H20.15H20.8996V6.73594C20.8996 -0.0187407 20.9141 0.39376 20.6384 0.140635C20.4547 -0.0187407 19.9807 -0.0468655 19.7486 0.0937595Z" fill="#242B3A"/>
<path d="M3.5132 3.81563C3.30525 3.90469 3.22787 4.00313 3.01992 4.47657C2.57983 5.47032 1.90277 6.15469 0.925871 6.59532C0.674392 6.7125 0.413241 6.82969 0.350371 6.85782C-0.0316831 7.04063 -0.12357 7.66407 0.185943 7.97813C0.258485 8.05313 0.432585 8.15156 0.572833 8.20313C1.69482 8.61094 2.56532 9.42656 3.03926 10.5188C3.28107 11.0719 3.44066 11.2031 3.8614 11.2031C4.24346 11.2031 4.40789 11.0625 4.62068 10.5469C4.90601 9.8625 5.40413 9.23906 6.01348 8.77969C6.30365 8.56406 6.94202 8.23594 7.17899 8.17969C7.37243 8.13281 7.58039 7.92188 7.64809 7.70157C7.7835 7.275 7.56588 6.92813 7.0339 6.73125C6.00864 6.34688 5.16232 5.56875 4.7174 4.60313C4.44174 4.00313 4.40789 3.95626 4.21444 3.84844C4.00649 3.73594 3.73083 3.72188 3.5132 3.81563Z" fill="#242B3A"/>
<path d="M13.5965 5.3344C13.287 5.50315 13.2338 5.61565 13.2193 6.21565L13.2 6.75002H12.7067C12.1457 6.75002 11.9522 6.81565 11.7733 7.07815C11.6185 7.29377 11.6185 7.65939 11.7733 7.87971C11.9474 8.13752 12.1408 8.20314 12.7163 8.20314H13.2096V8.70471C13.2096 9.12658 13.2241 9.23439 13.3063 9.36564C13.4611 9.60939 13.6691 9.71252 13.9834 9.69377C14.5105 9.66096 14.7088 9.37502 14.7088 8.65783V8.20314H15.1973C15.6132 8.20314 15.7147 8.18908 15.8743 8.10002C16.237 7.90314 16.3628 7.39221 16.1258 7.08283C15.9179 6.81565 15.8018 6.77346 15.2408 6.7594L14.7185 6.74065L14.6992 6.2344C14.6846 5.68596 14.6411 5.57815 14.3606 5.37658C14.1769 5.24065 13.8045 5.2219 13.5965 5.3344Z" fill="#242B3A"/>
<path d="M1.12885 12.8906C0.877375 13.0406 0.77098 13.2422 0.790324 13.5469C0.824177 14.0016 1.06598 14.2031 1.63181 14.2406L1.98485 14.2641L2.03805 14.5031C2.06223 14.6344 2.35723 16.0453 2.68609 17.6344L3.28093 20.5266L3.06331 20.6016C2.60387 20.7516 2.1251 20.625 1.7914 20.2641C1.5496 20.0063 1.48673 19.7953 1.52542 19.3875C1.5496 19.1156 1.52058 18.9 1.3755 18.1969C1.27877 17.7281 1.18689 17.3438 1.16754 17.3438C1.14336 17.3438 0.978933 17.4984 0.79516 17.6906C0.422778 18.075 0.190644 18.4594 0.0794129 18.8672C-0.0124736 19.2188 -0.0124736 19.8656 0.0794129 20.2031C0.446959 21.5391 1.88329 22.3734 3.27126 22.0594C3.43085 22.0219 3.56626 21.9984 3.5711 22.0031C3.57594 22.0078 3.65815 22.3688 3.75004 22.8C3.92897 23.6344 3.98217 23.7656 4.22881 23.9063C4.37873 23.9953 4.4948 24 7.37714 24H10.3659L10.332 23.8969C10.3175 23.8359 10.2885 23.625 10.274 23.4234C10.2111 22.5938 10.6657 21.8203 11.4395 21.4359C11.5652 21.375 11.9231 21.2719 12.2278 21.2109C12.7936 21.0984 13.6544 20.7469 13.7028 20.6156C13.7173 20.5828 14.0171 19.1344 14.375 17.4L15.0231 14.25H15.3132C15.6518 14.25 15.9758 14.1141 16.1257 13.9125C16.353 13.6125 16.2514 13.125 15.9177 12.9L15.7582 12.7969H8.5233C1.39 12.7969 1.28845 12.7969 1.12885 12.8906ZM8.80863 15.9281C9.14232 16.0922 9.29708 16.5094 9.12781 16.8188C9.01658 17.025 4.31586 21.5297 4.04504 21.6938C3.61946 21.9469 3.63397 21.9563 3.47921 21.2109L3.3438 20.5547L5.67482 18.2906C6.96123 17.0438 8.08805 15.9844 8.17993 15.9375C8.39272 15.825 8.591 15.8203 8.80863 15.9281Z" fill="#242B3A"/>
<path d="M19.3324 14.3719C18.1621 14.625 17.2094 15.3609 16.6919 16.4156C16.4259 16.9547 16.3582 17.2547 16.305 18.0984C16.2373 19.1391 16.1213 19.6266 15.7876 20.2734C15.3958 21.0422 14.743 21.6563 13.8773 22.0828C13.4034 22.3125 12.8956 22.4813 12.4361 22.5516C12.1266 22.6031 12.0444 22.6359 11.88 22.7859C11.6914 22.9594 11.6865 22.9688 11.6865 23.2969C11.6865 23.6297 11.6865 23.6344 11.8896 23.8172L12.0928 24H15.3958C18.9069 24 19.1874 23.9859 20.0289 23.7609C22.5775 23.0859 23.9945 21.0703 23.9993 18.1172C24.0042 17.6016 23.98 17.3813 23.9026 17.0906C23.5592 15.825 22.5775 14.8406 21.2621 14.4375C20.8123 14.2969 19.8209 14.2641 19.3324 14.3719Z" fill="#242B3A"/>
</svg>
