<svg width="24" height="24" viewBox="0 0 24 24" fill="none" xmlns="http://www.w3.org/2000/svg">
<g clip-path="url(#clip0_23236_15882)">
<path d="M6 4.57031L0.0234375 9.02812L0.009375 9.7875L0 10.5469H0.609375H1.22344L6.61406 6.58125L12.0094 2.61562L17.2875 6.58125L22.5656 10.5469H23.2828H24V9.85312L23.9953 9.16406L18.0422 4.66406C14.7656 2.18906 12.0609 0.15 12.0328 0.135937C12 0.121875 9.28594 2.11406 6 4.57031Z" fill="#242B3A"/>
<path d="M18.9844 2.6203V3.69374L20.1188 4.55624C20.7422 5.02499 21.2719 5.41874 21.2906 5.42812C21.3094 5.43749 21.3281 4.5703 21.3281 3.49687V1.54687H20.1562H18.9844V2.6203Z" fill="#242B3A"/>
<path d="M6.90938 8.03437L1.85156 11.7516L1.8375 17.8312L1.82812 23.9062H4.07812H6.32812V22.2656V20.625H7.92188H9.51563V19.0078V17.3906H11.0859H12.6562V15.7734V14.1562H14.25H15.8438V12.5391V10.9219L18.3188 10.9125L20.7891 10.8984L16.4016 7.60312C13.9875 5.79375 12.0047 4.3125 11.9906 4.3125C11.9813 4.3125 9.69375 5.98594 6.90938 8.03437Z" fill="#242B3A"/>
<path d="M17.2031 13.2187V14.1562H19.6875H22.1719V13.2187V12.2812H19.6875H17.2031V13.2187Z" fill="#242B3A"/>
<path d="M14.0156 16.4531V17.3906H16.5234H19.0312V16.4531V15.5156H16.5234H14.0156V16.4531Z" fill="#242B3A"/>
<path d="M20.3906 16.4531V17.3906H21.2813H22.1719V16.4531V15.5156H21.2813H20.3906V16.4531Z" fill="#242B3A"/>
<path d="M10.875 19.6875V20.625H13.3594H15.8438V19.6875V18.75H13.3594H10.875V19.6875Z" fill="#242B3A"/>
<path d="M17.2031 19.6875V20.625H19.6875H22.1719V19.6875V18.75H19.6875H17.2031V19.6875Z" fill="#242B3A"/>
<path d="M7.6875 22.9453V23.9062H10.1719H12.6562V22.9453V21.9844H10.1719H7.6875V22.9453Z" fill="#242B3A"/>
<path d="M14.0156 22.9453V23.9062H16.5234H19.0312V22.9453V21.9844H16.5234H14.0156V22.9453Z" fill="#242B3A"/>
<path d="M20.3906 22.9453V23.9062H21.2813H22.1719V22.9453V21.9844H21.2813H20.3906V22.9453Z" fill="#242B3A"/>
</g>
<defs>
<clipPath id="clip0_23236_15882">
<rect width="24" height="24" fill="white"/>
</clipPath>
</defs>
</svg>
