<svg width="24" height="24" viewBox="0 0 24 24" fill="none" xmlns="http://www.w3.org/2000/svg">
<path d="M10.5142 0.843735C10.2798 0.98436 10.2189 1.12498 10.1485 1.65467C9.98917 2.86873 9.23448 3.65155 8.03917 3.84374C7.44386 3.93749 6.71261 3.71248 6.22042 3.29061C5.82667 2.94842 5.56886 2.87342 5.23605 3.01873C5.15167 3.05623 4.6923 3.4828 4.20948 3.96561C3.47823 4.71092 3.32823 4.88436 3.28605 5.04842C3.20636 5.33905 3.28605 5.56874 3.5673 5.89217C3.95636 6.33749 4.17198 6.89999 4.17198 7.46717C4.17198 8.0203 3.89073 8.69999 3.49698 9.11249C3.06105 9.56249 2.61105 9.77342 1.93136 9.84374C1.50948 9.89061 1.31261 9.97499 1.15323 10.1859C1.05948 10.3125 1.0548 10.3828 1.04073 11.5922C1.03136 12.4078 1.04542 12.9281 1.07355 13.0406C1.14855 13.289 1.39698 13.4859 1.67355 13.5187C2.30636 13.5937 2.52667 13.6453 2.83136 13.8C3.57667 14.1656 4.08292 14.9203 4.15323 15.764C4.20948 16.3875 4.00323 16.9875 3.56261 17.5078C3.28605 17.8359 3.21105 18.0469 3.27667 18.3328C3.31417 18.4969 3.40323 18.614 3.78292 18.9937L4.2423 19.4531L5.49855 18.1969L6.7548 16.9406L6.63292 16.6734C6.57198 16.5281 6.51105 16.4062 6.50636 16.4062C6.49698 16.4062 6.38917 16.4578 6.26261 16.5234C5.94386 16.6875 5.47042 16.6875 5.12355 16.5281C4.59386 16.2797 4.28448 15.7594 4.32667 15.1875C4.3548 14.7609 4.48136 14.5406 5.02511 13.9875L5.48917 13.514L5.3673 13.289C5.12355 12.8203 5.23136 12.5437 5.93448 11.85C6.33292 11.4609 6.48292 11.3437 6.61417 11.3203C6.78292 11.2875 6.78292 11.2828 6.81105 11.025C6.85792 10.6219 7.0173 10.0547 7.21886 9.59999C7.85167 8.15624 9.16417 7.04061 10.7204 6.62342C11.1329 6.51092 11.2642 6.50155 12.0001 6.50155C12.7407 6.50155 12.8673 6.51092 13.2892 6.62342C14.1892 6.86717 15.0845 7.38749 15.7595 8.07186C16.7439 9.0703 17.3392 10.6734 17.2267 12.0234C17.0157 14.5359 15.211 16.4953 12.7454 16.8797L12.3892 16.9312L10.8282 18.4922L9.27199 20.0484L9.48761 20.2734C9.88605 20.6812 10.1064 21.1875 10.1579 21.7969C10.1907 22.214 10.2517 22.3547 10.486 22.5328L10.6548 22.664L11.9251 22.6781C13.172 22.6922 13.2001 22.6875 13.4017 22.5844C13.711 22.425 13.7767 22.3031 13.847 21.7687C13.9501 21.0328 14.1095 20.6812 14.5501 20.2406C15.0048 19.7859 15.5907 19.5469 16.2423 19.5469C16.8517 19.5469 17.3392 19.7297 17.8079 20.1328C17.9485 20.2547 18.1173 20.3719 18.1782 20.3953C18.3423 20.4562 18.647 20.4469 18.7876 20.3719C18.8579 20.3344 19.3126 19.9031 19.7954 19.4156C20.5642 18.6469 20.686 18.5062 20.7235 18.3328C20.7892 18.0469 20.7142 17.8359 20.4376 17.5078C19.5704 16.4906 19.6501 15.0984 20.6204 14.1656C21.0189 13.7906 21.4548 13.6219 22.3267 13.5187C22.6032 13.4859 22.8517 13.289 22.9267 13.0406C22.9548 12.9281 22.9689 12.4078 22.9595 11.5922C22.9454 10.3828 22.9407 10.3125 22.847 10.1859C22.6876 9.97499 22.4907 9.89061 22.0689 9.84374C21.3892 9.77342 20.9392 9.56249 20.5032 9.11249C19.6454 8.21717 19.6126 6.82967 20.4329 5.89217C20.6954 5.59217 20.7798 5.37186 20.7329 5.08592C20.7095 4.91717 20.6064 4.79999 19.8095 3.98905C19.3173 3.49217 18.8485 3.05155 18.7642 3.01873C18.4314 2.87811 18.1407 2.9578 17.7751 3.29061C17.5079 3.53436 16.9735 3.7828 16.5845 3.84374C15.8157 3.96092 14.8782 3.5953 14.386 2.98592C14.0485 2.56874 13.8282 1.96405 13.8282 1.4578C13.8282 1.22811 13.697 0.98436 13.5048 0.857798C13.3501 0.749985 13.322 0.749985 12.0048 0.749985C10.7579 0.749985 10.6548 0.754673 10.5142 0.843735Z" fill="#242B3A"/>
<path d="M11.3203 8.60625C11.1609 8.68594 9.09375 10.7297 9.09375 10.8047C9.09375 10.8328 9.33281 11.0906 9.62344 11.3812L10.1484 11.9062L10.7344 11.3203C11.0578 10.9922 11.3906 10.6875 11.475 10.6312C11.775 10.4484 11.7984 10.4672 13.3594 12.0234C14.3859 13.0453 14.8219 13.4531 14.8969 13.4531C15.0141 13.4531 15.375 13.1391 15.5109 12.9187C15.6375 12.7125 15.675 12.4359 15.6094 12.1875C15.5578 12 15.375 11.7984 13.9734 10.3875C13.1062 9.51562 12.3047 8.74219 12.1922 8.66719C12.0234 8.55937 11.9297 8.53125 11.7234 8.53125C11.5781 8.53125 11.4 8.56406 11.3203 8.60625Z" fill="#242B3A"/>
<path d="M8.27366 11.1094C8.2221 11.1328 8.05804 11.2734 7.90335 11.4281L7.62679 11.7094L8.60648 12.6984C9.14085 13.2422 9.59554 13.7156 9.61898 13.7437C9.7221 13.9031 9.75023 14.1562 9.69398 14.3766C9.6471 14.5641 9.56273 14.6766 9.19241 15.0609C8.62054 15.6516 8.42835 15.7687 8.08616 15.7406C7.91273 15.7266 7.7721 15.6797 7.63616 15.5906L7.44398 15.4594L7.21429 15.6844C7.08773 15.8109 6.9846 15.9281 6.9846 15.9516C6.9846 15.9797 7.09241 16.2375 7.22835 16.5328L7.46741 17.0672L5.45179 19.0922C3.54398 21.0047 3.42679 21.1312 3.32835 21.3984C2.99085 22.3078 3.61898 23.25 4.56585 23.2547C4.92679 23.2594 5.15648 23.1937 5.41429 23.0109C5.51741 22.9406 7.25179 21.2297 9.2721 19.2094L12.9377 15.5391L10.7252 13.3312C9.50648 12.1172 8.47523 11.1094 8.43773 11.1C8.40023 11.0859 8.32523 11.0906 8.27366 11.1094ZM4.88929 21.5625C5.04398 21.6844 5.08148 21.8578 4.99241 22.0312C4.86116 22.2891 4.59398 22.3406 4.37835 22.1531C3.99398 21.825 4.49085 21.2484 4.88929 21.5625Z" fill="#242B3A"/>
<path d="M6.29063 12.3422C5.98594 12.6516 5.85938 12.8062 5.85938 12.8906C5.85938 12.975 6.12188 13.2656 6.92344 14.0719C7.85625 15.0047 8.00625 15.1406 8.13281 15.1406C8.25469 15.1406 8.34844 15.0703 8.70938 14.7C9.00938 14.4 9.14063 14.2266 9.14063 14.1516C9.14063 14.0719 8.86406 13.7625 8.07188 12.975C7.15781 12.0562 6.98438 11.9062 6.86719 11.9062C6.75 11.9062 6.64688 11.9859 6.29063 12.3422Z" fill="#242B3A"/>
<path d="M11.3625 12.5203C11.2219 12.6562 11.1094 12.7875 11.1094 12.8156C11.1094 12.8438 11.6156 13.3734 12.2344 13.9922L13.3641 15.1172L13.6172 14.85C14.0156 14.4375 14.0438 14.4891 12.8531 13.3031C12.1219 12.5672 11.8031 12.2812 11.7281 12.2812C11.6625 12.2812 11.5172 12.375 11.3625 12.5203Z" fill="#242B3A"/>
<path d="M5.45163 14.4047C4.94069 14.9297 4.88444 15.0422 4.93601 15.4219C4.98288 15.7922 5.28288 16.0312 5.69538 16.0312C5.99069 16.0312 6.09851 15.9656 6.59538 15.4594L7.03132 15.0234L6.47819 14.4703L5.92507 13.9172L5.45163 14.4047Z" fill="#242B3A"/>
</svg>
