<svg width="16" height="16" viewBox="0 0 16 16" fill="none" xmlns="http://www.w3.org/2000/svg">
<path fill-rule="evenodd" clip-rule="evenodd" d="M9.304 6.03791L11.9482 3.3937C12.13 3.21198 12.4246 3.21198 12.6063 3.3937C12.788 3.57542 12.788 3.87003 12.6063 4.05174L9.96208 6.69597C10.5589 6.56185 11.2557 6.48485 12 6.48485C14.2091 6.48485 16 7.16321 16 8C16 8.8368 14.2091 9.51512 12 9.51512C11.2557 9.51512 10.5589 9.43816 9.96208 9.304L12.6063 11.9482C12.788 12.13 12.788 12.4246 12.6063 12.6063C12.4246 12.788 12.13 12.788 11.9482 12.6063L9.304 9.96208C9.43816 10.5589 9.51512 11.2558 9.51512 12C9.51512 14.2091 8.8368 16 8 16C7.16321 16 6.48485 14.2091 6.48485 12C6.48485 11.2557 6.56185 10.5589 6.69597 9.96208L4.05174 12.6063C3.87003 12.788 3.57542 12.788 3.3937 12.6063C3.21199 12.4246 3.21199 12.13 3.3937 11.9482L6.03792 9.304C5.44108 9.43816 4.74428 9.51512 4 9.51512C1.79086 9.51512 0 8.8368 0 8C0 7.16321 1.79086 6.48485 4 6.48485C4.74428 6.48485 5.44109 6.56185 6.03792 6.69597L3.3937 4.05175C3.21199 3.87004 3.21199 3.57542 3.3937 3.3937C3.57542 3.21199 3.87003 3.21199 4.05174 3.3937L6.69597 6.03793C6.56185 5.44109 6.48485 4.74429 6.48485 4C6.48485 1.79086 7.16321 0 8 0C8.8368 0 9.51512 1.79086 9.51512 4C9.51512 4.74428 9.43816 5.44108 9.304 6.03791Z" fill="white"/>
</svg>
