<svg width="48" height="48" viewBox="0 0 48 48" fill="none" xmlns="http://www.w3.org/2000/svg">
<path d="M27.7498 2.46562C27.0842 2.69062 26.3248 3.14062 25.9685 3.51562L25.7435 3.75937L26.3623 4.37812L26.981 4.99687L27.4592 4.575C28.2373 3.87187 29.1748 3.675 30.1498 3.99375C30.5435 4.13437 30.8904 4.43437 32.6529 6.17812C34.9592 8.46562 35.1748 8.76562 35.1748 9.75937C35.1748 10.2094 35.1185 10.4437 34.9123 10.8375C34.7342 11.1656 33.1498 12.9562 30.1873 16.1719C27.7404 18.825 25.6217 21.1781 25.481 21.3844C25.0123 22.0875 24.8154 22.7437 24.7685 23.7844C24.6935 25.5 25.1435 26.4375 26.8029 28.0781L27.7498 29.0156L28.3779 28.3875L29.006 27.75L27.8623 26.5969C26.5685 25.2844 26.3248 24.8719 26.3248 23.9812C26.3248 23.5406 26.381 23.3062 26.5967 22.9125C26.7748 22.575 28.181 20.9719 30.8904 18.0281C35.8592 12.6375 35.9717 12.5062 36.206 12.0469C36.9842 10.5375 36.956 8.76562 36.1404 7.34062C35.7935 6.74062 32.5404 3.45 31.8373 2.99062C30.6842 2.23125 29.0435 2.025 27.7498 2.46562Z" fill="white"/>
<path d="M12.1219 12.8719L2.25 22.7344V23.25V23.7656L4.99688 26.5031L7.73438 29.25H8.25H8.76563L18.6281 19.3781L28.5 9.51562V9V8.48438L25.7531 5.74687L23.0156 3H22.5H21.9844L12.1219 12.8719Z" fill="white"/>
<path d="M13.5 26.4844C9.38438 30.6 9.31875 30.6562 8.25938 30.6562C7.49063 30.6562 7.0125 30.45 6.36563 29.85C5.97188 29.475 5.86875 29.4187 5.7375 29.5125C5.65313 29.5687 5.33438 29.775 5.04375 29.9625L4.5 30.3094V37.3875V44.4656L4.73438 44.8687C5.08125 45.4594 5.625 45.75 6.375 45.75C7.125 45.75 7.66875 45.4594 8.01563 44.8687L8.25 44.4656V41.475C8.25 39.8344 8.29688 38.2125 8.34375 37.8844C8.5125 36.8531 9 36.1406 9.8625 35.6625C10.3125 35.4187 10.4438 35.3906 11.25 35.3906C12.0563 35.3906 12.1875 35.4187 12.6375 35.6625C13.5563 36.1687 14.0063 36.8812 14.175 38.0625C14.3438 39.2906 14.7844 39.75 15.7594 39.75C16.3594 39.75 16.8 39.5156 17.0813 39.0375C17.2406 38.7656 17.25 38.325 17.2313 30.7594L17.2031 22.7812L13.5 26.4844Z" fill="white"/>
<path d="M2.72832 27.15L2.41895 27.675L3.10332 28.3687C3.47832 28.7531 3.8252 29.0625 3.87207 29.0625C3.9377 29.0625 4.66895 28.6031 4.86582 28.4344C4.9127 28.3969 3.17832 26.625 3.09395 26.625C3.06582 26.625 2.90645 26.8687 2.72832 27.15Z" fill="white"/>
<path d="M29.3626 29.3719L28.4907 30.2437L28.5188 31.1062L28.547 31.9688L30.2813 30.2344L32.0157 28.5H31.1251H30.2345L29.3626 29.3719Z" fill="white"/>
<path d="M31.2187 31.2657L28.7344 33.7501L29.1281 34.1438C29.3437 34.3688 29.6812 34.5938 29.8781 34.6595L30.2344 34.772L32.5125 32.5032L34.7906 30.2251L34.6781 29.9063C34.5844 29.6157 33.8906 28.7813 33.75 28.7813C33.7219 28.7813 32.5875 29.897 31.2187 31.2657Z" fill="white"/>
<path d="M33.4968 33.4875L31.228 35.7656L31.3405 36.1219C31.4999 36.6187 37.5937 42.7219 38.128 42.9L38.4843 43.0312L40.7624 40.7531L43.0405 38.475L42.928 38.1562C42.853 37.9219 41.9249 36.9281 39.628 34.6219C37.8749 32.8594 36.3468 31.4062 36.2437 31.3781C36.1312 31.3594 35.9812 31.3125 35.9062 31.275C35.8124 31.2375 35.0812 31.9031 33.4968 33.4875Z" fill="white"/>
<path d="M41.7375 41.7469L39.4688 44.025L39.5719 44.3438C39.6281 44.5219 39.9188 44.9156 40.2 45.2062C40.7156 45.7406 40.7344 45.75 41.25 45.75H41.7656L43.7625 43.7531L45.75 41.7656V41.25C45.75 40.7437 45.7406 40.7156 45.2156 40.2C44.9156 39.9187 44.5875 39.6562 44.4844 39.6281C44.3813 39.6094 44.2313 39.5531 44.1562 39.525C44.0625 39.4875 43.3219 40.1625 41.7375 41.7469Z" fill="white"/>
</svg>
